<?xml version="1.0" encoding="UTF-8" standalone="no"?>
<!-- Created with Inkscape (http://www.inkscape.org/) -->

<svg
   xmlns:dc="http://purl.org/dc/elements/1.1/"
   xmlns:cc="http://creativecommons.org/ns#"
   xmlns:rdf="http://www.w3.org/1999/02/22-rdf-syntax-ns#"
   xmlns:svg="http://www.w3.org/2000/svg"
   xmlns="http://www.w3.org/2000/svg"
   xmlns:sodipodi="http://sodipodi.sourceforge.net/DTD/sodipodi-0.dtd"
   xmlns:inkscape="http://www.inkscape.org/namespaces/inkscape"
   width="744.09448"
   height="184"
   id="svg2"
   version="1.1"
   inkscape:version="0.48.2 r9819"
   sodipodi:docname="Logo DSISIONNEL.svg"
   inkscape:export-filename="C:\Users\Ludo\Documents\@@PortisEd\Dsisionnel\@Création-Levée\logo\Logo DSISIONNEL.png"
   inkscape:export-xdpi="90"
   inkscape:export-ydpi="90">
  <defs
     id="defs4">
    <clipPath
       id="clipPath3033"
       clipPathUnits="userSpaceOnUse">
      <path
         id="path3035"
         d="M 0,792 612,792 612,0 0,0 0,792 z"
         inkscape:connector-curvature="0" />
    </clipPath>
    <linearGradient
       id="linearGradient3019"
       spreadMethod="pad"
       gradientTransform="matrix(0,-131.80515,-131.80515,0,60.911621,778.50293)"
       gradientUnits="userSpaceOnUse"
       y2="0"
       x2="1"
       y1="0"
       x1="0">
      <stop
         id="stop3021"
         offset="0"
         style="stop-opacity:1;stop-color:#3d393a" />
      <stop
         id="stop3023"
         offset="0.751511"
         style="stop-opacity:1;stop-color:#231f20" />
      <stop
         id="stop3025"
         offset="1"
         style="stop-opacity:1;stop-color:#231f20" />
    </linearGradient>
  </defs>
  <sodipodi:namedview
     id="base"
     pagecolor="#ffffff"
     bordercolor="#666666"
     borderopacity="1.0"
     inkscape:pageopacity="0.0"
     inkscape:pageshadow="2"
     inkscape:zoom="0.98994949"
     inkscape:cx="456.05356"
     inkscape:cy="209.61766"
     inkscape:document-units="px"
     inkscape:current-layer="layer1"
     showgrid="false"
     inkscape:window-width="1366"
     inkscape:window-height="706"
     inkscape:window-x="1672"
     inkscape:window-y="-8"
     inkscape:window-maximized="1" />
  <metadata
     id="metadata7">
    <rdf:RDF>
      <cc:Work
         rdf:about="">
        <dc:format>image/svg+xml</dc:format>
        <dc:type
           rdf:resource="http://purl.org/dc/dcmitype/StillImage" />
        <dc:title></dc:title>
      </cc:Work>
    </rdf:RDF>
  </metadata>
  <g
     inkscape:label="Calque 1"
     inkscape:groupmode="layer"
     id="layer1"
     transform="translate(0,-868.35835)">
    <g
       transform="matrix(1.25,0,0,-1.25,-5.8638357,1853.5855)"
       inkscape:label="Logo-DSISIONNEL"
       id="g2993">
      <text
         id="text2995"
         transform="matrix(1,0,0,-1,114.0596,694.9443)">
        <tspan
           id="tspan2997"
           sodipodi:role="line"
           y="0"
           x="0 61.78981 109.87325"
           style="font-size:74.08850098px;font-variant:normal;font-weight:bold;font-stretch:normal;writing-mode:lr-tb;fill:#f2541b;fill-opacity:1;fill-rule:nonzero;stroke:none;font-family:Georgia;-inkscape-font-specification:Georgia-Bold">DSI</tspan>
      </text>
      <text
         id="text2999"
         transform="matrix(1,0,0,-1,256.97632,694.9443)">
        <tspan
           id="tspan3001"
           sodipodi:role="line"
           y="0"
           x="0 41.563648 70.45816 125.58001 182.40588 239.23177 287.61154"
           style="font-size:74.08850098px;font-variant:normal;font-weight:normal;font-stretch:normal;writing-mode:lr-tb;fill:#231f20;fill-opacity:1;fill-rule:nonzero;stroke:none;font-family:Georgia;-inkscape-font-specification:Georgia">SIONNEL</tspan>
      </text>
      <text
         id="text3003"
         transform="matrix(1,0,0,-1,114.0322,668.0205)">
        <tspan
           id="tspan3005"
           sodipodi:role="line"
           y="0"
           x="0 14.97001 29.29303 43.102921 59.96928 74.939293 88.39222 97.093117 110.90301 125.47144 131.49513 136.87186 151.19487 169.37752 184.34753 197.80046 211.25339 225.82182 242.93359 259.10834 273.67676 286.19269 291.5694 307.40948 312.78619 326.5961 341.16452 358.27628 374.98648 389.95648 407.06827 421.39127 435.95972 448.47562 453.85233 462.55322"
           style="font-size:22.30999947px;font-variant:normal;font-weight:normal;font-stretch:normal;writing-mode:lr-tb;fill:#231f20;fill-opacity:1;fill-rule:nonzero;stroke:none;font-family:Georgia;-inkscape-font-specification:Georgia">ACTUALITÉ, CHALLENGES &amp; TENDANCES IT</tspan>
      </text>
      <g
         id="g3007">
        <g
           id="g3009">
          <g
             id="g3015">
            <g
               id="g3017">
              <path
                 id="path3027"
                 style="fill:url(#linearGradient3019);stroke:none"
                 d="m 36.006,719.69 25.378,-7.138 C 54.925,689.592 43.022,679.722 25.67,682.941 l 0,0 -7.417,-26.367 c 35.714,-7.912 59.377,8.79 70.995,50.096 l 0,0 14.323,50.922 -52.733,14.832 -14.832,-52.734 z"
                 inkscape:connector-curvature="0" />
            </g>
          </g>
        </g>
      </g>
      <g
         id="g3029">
        <g
           clip-path="url(#clipPath3033)"
           id="g3031">
          <g
             transform="translate(27.8706,679.5376)"
             id="g3037">
            <path
               id="path3039"
               style="fill:#f2541b;fill-opacity:1;fill-rule:nonzero;stroke:none"
               d="m 0,0 -5.804,-20.634 c 32.364,-5.929 53.399,9.997 64.255,48.59 L 71.95,75.95 25.072,89.136 11.886,42.256 37.263,35.118 36.44,32.19 C 33.056,20.16 28.09,11.364 21.682,6.051 15.678,1.073 8.395,-0.956 0,0 m -13.416,-25.237 9.04,32.136 2.729,-0.505 C 13.298,3.621 23.578,11.65 29.714,30.924 L 4.385,38.049 20.864,96.637 79.451,80.158 64.305,26.309 C 52.224,-16.643 27.132,-34.22 -10.275,-25.933 l -3.141,0.696 z"
               inkscape:connector-curvature="0" />
          </g>
          <g
             transform="translate(27.8706,679.5376)"
             id="g3041">
            <path
               id="path3043"
               style="fill:none;stroke:#100f0d;stroke-width:2;stroke-linecap:butt;stroke-linejoin:miter;stroke-miterlimit:10;stroke-opacity:1;stroke-dasharray:none"
               d="m 0,0 -5.804,-20.634 c 32.364,-5.929 53.399,9.997 64.255,48.59 L 71.95,75.95 25.072,89.136 11.886,42.256 37.263,35.118 36.44,32.19 C 33.056,20.16 28.09,11.364 21.682,6.051 15.678,1.073 8.395,-0.956 0,0 z m -13.416,-25.237 9.04,32.136 2.729,-0.505 C 13.298,3.621 23.578,11.65 29.714,30.924 L 4.385,38.049 20.864,96.637 79.451,80.158 64.305,26.309 C 52.224,-16.643 27.132,-34.22 -10.275,-25.933 l -3.141,0.696 z"
               inkscape:connector-curvature="0" />
          </g>
          <g
             transform="translate(88.3179,748.3394)"
             id="g3045">
            <path
               id="path3047"
               style="fill:#ffffff;fill-opacity:1;fill-rule:nonzero;stroke:none"
               d="m 0,0 -1.706,-6.063 c -3.991,0.739 -6.729,-1.53 -8.213,-6.812 l 5.836,-1.641 -3.411,-12.127 -12.128,3.411 3.293,11.711 C -13.657,-2.022 -8.214,1.82 0,0 m -18.079,5.085 -1.705,-6.064 c -3.991,0.74 -6.729,-1.529 -8.214,-6.811 l 5.837,-1.641 -3.411,-12.127 -12.129,3.411 3.294,11.711 c 2.672,9.499 8.115,13.34 16.328,11.521"
               inkscape:connector-curvature="0" />
          </g>
        </g>
      </g>
    </g>
  </g>
</svg>
