<?xml version="1.0" encoding="utf-8"?>
<!-- Generator: Adobe Illustrator 15.0.2, SVG Export Plug-In . SVG Version: 6.00 Build 0)  -->
<!DOCTYPE svg PUBLIC "-//W3C//DTD SVG 1.1//EN" "http://www.w3.org/Graphics/SVG/1.1/DTD/svg11.dtd">
<svg version="1.1" id="Calque_1" xmlns="http://www.w3.org/2000/svg" xmlns:xlink="http://www.w3.org/1999/xlink" x="0px" y="0px"
	 width="474px" height="395px" viewBox="278.5 60.5 474 395" enable-background="new 278.5 60.5 474 395" xml:space="preserve">
<polygon fill="#FFFFFF" points="516.518,435.746 524.9,443.154 532.461,434.912 541.572,441.402 548.23,432.414 557.971,437.916 
	563.654,428.283 573.911,432.736 578.559,422.561 589.229,425.918 592.782,415.311 603.745,417.537 606.174,406.615 
	617.309,407.685 618.581,396.568 629.768,396.465 629.868,385.277 640.984,384.008 639.918,372.873 650.838,370.445 
	648.615,359.484 659.221,355.928 655.863,345.256 666.038,340.613 661.584,330.352 671.219,324.668 665.715,314.93 674.703,308.271 
	668.213,299.161 676.453,291.598 669.051,283.217 676.453,274.836 668.213,267.272 674.703,258.163 665.715,251.504 
	671.219,241.766 661.584,236.082 666.038,225.822 655.863,221.178 659.221,210.507 648.615,206.952 650.838,195.989 639.918,193.56 
	640.984,182.426 629.868,181.155 629.768,169.968 618.581,169.864 617.309,158.751 606.174,159.817 603.745,148.898 
	592.782,151.121 589.229,140.516 578.559,143.873 573.911,133.696 563.654,138.152 557.971,128.517 548.23,134.018 541.572,125.031 
	532.461,131.521 524.9,123.279 516.518,130.685 508.135,123.279 500.573,131.521 491.463,125.031 484.805,134.018 475.064,128.517 
	469.383,138.152 459.122,133.696 454.479,143.873 443.808,140.516 440.252,151.121 429.289,148.898 426.865,159.817 
	415.727,158.751 414.455,169.864 403.27,169.968 403.166,181.155 392.053,182.426 393.116,193.56 382.198,195.989 384.422,206.952 
	373.815,210.507 377.172,221.178 366.996,225.822 371.452,236.082 361.818,241.767 367.319,251.504 358.331,258.163 
	364.823,267.273 356.58,274.836 363.988,283.217 356.58,291.598 364.823,299.16 358.331,308.271 367.319,314.93 361.818,324.668 
	371.452,330.352 366.996,340.613 377.172,345.256 373.815,355.928 384.422,359.484 382.198,370.445 393.116,372.873 
	392.053,384.008 403.166,385.277 403.27,396.465 414.455,396.568 415.727,407.685 426.865,406.615 429.289,417.537 440.252,415.311 
	443.808,425.918 454.479,422.561 459.122,432.736 469.383,428.283 475.064,437.916 484.805,432.414 491.463,441.402 
	500.573,434.912 508.135,443.154 "/>
<path d="M525.193,448.752l-8.676-7.666l-8.676,7.666l-7.826-8.531l-9.428,6.718l-6.894-9.302l-10.08,5.693l-5.881-9.969
	l-10.619,4.608l-4.809-10.532l-11.044,3.477l-3.681-10.979l-11.345,2.302l-2.512-11.302l-11.526,1.104l-1.315-11.502l-11.579-0.107
	l-0.104-11.578l-11.503-1.315l1.101-11.524l-11.302-2.515l2.304-11.345l-10.979-3.682l3.475-11.043l-10.531-4.807L366.375,332
	l-9.972-5.883l5.694-10.078l-9.302-6.893l6.717-9.429l-8.531-7.827l7.667-8.675l-7.667-8.674l8.531-7.828l-6.717-9.429l9.302-6.892
	l-5.694-10.079l9.972-5.881l-4.611-10.62l10.531-4.808l-3.475-11.044l10.979-3.68l-2.304-11.346l11.302-2.512l-1.101-11.526
	l11.503-1.315l0.104-11.578l11.579-0.108l1.315-11.502l11.526,1.104l2.512-11.302l11.345,2.301l3.681-10.977l11.044,3.475
	l4.809-10.532l10.619,4.61l5.881-9.972l10.08,5.696l6.894-9.302l9.428,6.717l7.826-8.531l8.676,7.666l8.676-7.666l7.826,8.531
	l9.432-6.717l6.89,9.302l10.08-5.696l5.883,9.972l10.617-4.61l4.811,10.532l11.045-3.475l3.676,10.977l11.351-2.301l2.51,11.302
	l11.525-1.104l1.315,11.502l11.58,0.108l0.105,11.578l11.502,1.315l-1.103,11.526l11.299,2.512l-2.301,11.346l10.978,3.68
	l-3.476,11.044l10.531,4.808l-4.607,10.62l9.972,5.882l-5.695,10.078l9.303,6.892l-6.719,9.43l8.531,7.827l-7.664,8.674l7.664,8.675
	l-8.531,7.826l6.719,9.43l-9.303,6.893l5.695,10.078L666.659,332l4.609,10.621l-10.531,4.807l3.476,11.043l-10.978,3.682
	l2.301,11.345l-11.299,2.515l1.103,11.524l-11.502,1.315l-0.105,11.578l-11.58,0.107l-1.315,11.502l-11.525-1.104l-2.51,11.302
	l-11.351-2.302l-3.676,10.979l-11.045-3.479l-4.811,10.535l-10.617-4.608l-5.883,9.969l-10.08-5.693l-6.89,9.302l-9.432-6.718
	L525.193,448.752z M516.518,435.746l8.383,7.408l7.562-8.242l9.11,6.49l6.658-8.988l9.74,5.502l5.684-9.633l10.258,4.453
	l4.646-10.177l10.67,3.357l3.555-10.607l10.963,2.228l2.429-10.922l11.135,1.068l1.272-11.115l11.187-0.104l0.102-11.188
	l11.115-1.27l-1.065-11.135l10.92-2.428l-2.224-10.961l10.605-3.558l-3.357-10.672l10.176-4.644l-4.454-10.262l9.635-5.684
	l-5.504-9.738l8.988-6.658l-6.49-9.109l8.24-7.562l-7.402-8.382l7.402-8.381l-8.24-7.564l6.49-9.109l-8.988-6.659l5.504-9.738
	l-9.635-5.684l4.454-10.26l-10.176-4.644l3.357-10.671l-10.605-3.555l2.224-10.963l-10.92-2.429l1.065-11.134l-11.115-1.271
	l-0.102-11.187l-11.187-0.104l-1.272-11.113l-11.135,1.066l-2.429-10.919l-10.963,2.223l-3.555-10.605l-10.67,3.357l-4.646-10.177
	l-10.258,4.456l-5.684-9.635l-9.74,5.501l-6.658-8.987l-9.11,6.49l-7.562-8.242l-8.383,7.406l-8.383-7.406l-7.562,8.242l-9.11-6.49
	l-6.658,8.987l-9.74-5.501l-5.682,9.635l-10.261-4.456l-4.644,10.177l-10.671-3.357l-3.555,10.605l-10.964-2.223l-2.425,10.919
	l-11.138-1.066l-1.271,11.113l-11.186,0.104l-0.103,11.187l-11.114,1.271l1.063,11.134l-10.918,2.429l2.225,10.963l-10.607,3.555
	l3.357,10.671l-10.177,4.644l4.456,10.26l-9.634,5.685l5.501,9.737l-8.988,6.659l6.491,9.11l-8.242,7.563l7.407,8.381l-7.407,8.381
	l8.242,7.562l-6.491,9.11l8.988,6.658l-5.501,9.738l9.634,5.684l-4.456,10.262l10.177,4.644l-3.357,10.672l10.607,3.558
	l-2.225,10.961l10.918,2.428l-1.063,11.135l11.114,1.27l0.103,11.188l11.186,0.104l1.271,11.115l11.138-1.068l2.425,10.922
	l10.964-2.228l3.555,10.607l10.671-3.357l4.644,10.177l10.261-4.453l5.682,9.633l9.74-5.502l6.658,8.988l9.11-6.49l7.562,8.242
	L516.518,435.746z"/>
<g>
	<g>
		<defs>
			<rect id="SVGID_1_" x="-1" width="960" height="560"/>
		</defs>
		<clipPath id="SVGID_2_">
			<use xlink:href="#SVGID_1_"  overflow="visible"/>
		</clipPath>
		<path clip-path="url(#SVGID_2_)" d="M284.5,349.182c143.539,52.41,318.461,52.41,462,0c-3.15-4.156-6.341-8.563-9.57-13.217
			c-139.576,38.459-303.283,38.459-442.86,0C290.842,340.617,287.649,345.025,284.5,349.182"/>
	</g>
	<g>
		<defs>
			<rect id="SVGID_3_" x="-1" width="960" height="560"/>
		</defs>
		<clipPath id="SVGID_4_">
			<use xlink:href="#SVGID_3_"  overflow="visible"/>
		</clipPath>
		<path clip-path="url(#SVGID_4_)" d="M746.5,229.182c-153.048-24.24-308.953-24.24-462,0c2.518,3.602,5.021,7.338,7.51,11.201
			c147.271-15.512,299.711-15.512,446.979,0C741.479,236.52,743.982,232.784,746.5,229.182"/>
	</g>
	<g>
		<defs>
			<rect id="SVGID_5_" x="-1" width="960" height="560"/>
		</defs>
		<clipPath id="SVGID_6_">
			<use xlink:href="#SVGID_5_"  overflow="visible"/>
		</clipPath>
		<path clip-path="url(#SVGID_6_)" d="M736.504,244.29c-145.394-12.834-296.614-12.834-442.008,0
			c9.103,14.479,18.046,30.649,26.928,48.185c-8.474,14.627-16.809,28.031-24.926,39.957c138.497,35.277,299.506,35.277,438.004,0
			c-8.117-11.926-16.453-25.33-24.927-39.957C718.459,274.939,727.402,258.769,736.504,244.29"/>
	</g>
	<g>
		<defs>
			<rect id="SVGID_7_" x="-1" width="960" height="560"/>
		</defs>
		<clipPath id="SVGID_8_">
			<use xlink:href="#SVGID_7_"  overflow="visible"/>
		</clipPath>
		<path clip-path="url(#SVGID_8_)" fill="#FFFFFF" d="M738.99,240.383c-147.271-15.512-299.71-15.512-446.979,0
			c0.83,1.288,1.659,2.591,2.486,3.907c145.393-12.834,296.614-12.834,442.008,0C737.331,242.974,738.159,241.671,738.99,240.383"/>
	</g>
	<g>
		<defs>
			<rect id="SVGID_9_" x="-1" width="960" height="560"/>
		</defs>
		<clipPath id="SVGID_10_">
			<use xlink:href="#SVGID_9_"  overflow="visible"/>
		</clipPath>
		<path clip-path="url(#SVGID_10_)" fill="#FFFFFF" d="M294.07,335.965c139.577,38.459,303.283,38.459,442.859,0
			c-0.808-1.162-1.617-2.34-2.428-3.533c-138.498,35.277-299.506,35.277-438.004,0C295.687,333.625,294.877,334.803,294.07,335.965"
			/>
	</g>
</g>
<g>
	<g>
		<defs>
			<rect id="SVGID_11_" x="-1" width="960" height="560"/>
		</defs>
		<clipPath id="SVGID_12_">
			<use xlink:href="#SVGID_11_"  overflow="visible"/>
		</clipPath>
		<path clip-path="url(#SVGID_12_)" d="M515.375,130.814c-83.645,0-151.449,67.673-151.449,151.149
			c0,83.477,67.805,151.148,151.449,151.148c83.646,0,151.45-67.672,151.45-151.148
			C666.825,198.487,599.021,130.814,515.375,130.814 M515.377,419.049c-75.711,0-137.086-61.375-137.086-137.086
			s61.375-137.087,137.086-137.087s137.086,61.376,137.086,137.087S591.088,419.049,515.377,419.049"/>
	</g>
	<g>
		<defs>
			<rect id="SVGID_13_" x="-1" width="960" height="560"/>
		</defs>
		<clipPath id="SVGID_14_">
			<use xlink:href="#SVGID_13_"  overflow="visible"/>
		</clipPath>
		<path clip-path="url(#SVGID_14_)" fill="none" stroke="#FFFFFF" stroke-miterlimit="10" d="M515.375,130.814
			c-83.645,0-151.449,67.673-151.449,151.149c0,83.477,67.805,151.148,151.449,151.148c83.646,0,151.45-67.672,151.45-151.148
			C666.825,198.487,599.021,130.814,515.375,130.814z M515.377,419.049c-75.711,0-137.086-61.375-137.086-137.086
			s61.375-137.087,137.086-137.087s137.086,61.376,137.086,137.087S591.088,419.049,515.377,419.049z"/>
	</g>
	<g>
		<defs>
			<rect id="SVGID_15_" x="-1" width="960" height="560"/>
		</defs>
		<clipPath id="SVGID_16_">
			<use xlink:href="#SVGID_15_"  overflow="visible"/>
		</clipPath>
		<path clip-path="url(#SVGID_16_)" d="M654.282,119.099C617.68,87.8,570.129,68.885,518.146,68.885
			c-51.98,0-99.529,18.915-136.133,50.214L518.148,299.68L654.282,119.099z"/>
	</g>
	<g>
		<defs>
			<rect id="SVGID_17_" x="-1" width="960" height="560"/>
		</defs>
		<clipPath id="SVGID_18_">
			<use xlink:href="#SVGID_17_"  overflow="visible"/>
		</clipPath>
		<polygon clip-path="url(#SVGID_18_)" fill="#FFFFFF" points="441.547,153.449 420.272,127.396 418.881,125.625 418.51,125.847 
			436.657,156.357 430.469,160.039 403.411,114.551 411.579,109.691 427.911,128.129 429.656,130.359 429.781,130.285 
			428.654,127.687 420.245,104.537 428.413,99.678 455.473,145.166 449.282,148.845 431.135,118.336 430.764,118.556 
			431.656,120.623 444.395,151.756 		"/>
	</g>
	<g>
		<defs>
			<rect id="SVGID_19_" x="-1" width="960" height="560"/>
		</defs>
		<clipPath id="SVGID_20_">
			<use xlink:href="#SVGID_19_"  overflow="visible"/>
		</clipPath>
		<path clip-path="url(#SVGID_20_)" fill="#FFFFFF" d="M473.98,126.967c0.672,2.054,0.934,4.029,0.756,5.857
			c-0.115,1.574-0.595,3.207-1.578,4.715c-0.959,1.574-2.563,2.85-5.002,3.738c-2.433,0.887-4.549,0.969-6.299,0.379
			c-1.72-0.521-3.07-1.486-4.174-2.617c-1.311-1.285-2.382-2.965-3.189-4.971l-10.678-29.295c-0.647-1.986-0.908-3.962-0.729-5.791
			c0.114-1.574,0.502-3.248,1.483-4.755c0.985-1.508,2.631-2.877,5.069-3.764c2.435-0.887,4.507-0.877,6.231-0.356
			c1.722,0.522,3.164,1.53,4.267,2.663c1.312,1.285,2.382,2.962,3.164,4.9L473.98,126.967z M455.995,100.332
			c-0.495-1.352-1.11-2.199-2.082-2.766c-0.465-0.214-1.077-0.22-1.686,0c-1.287,0.471-1.548,1.639-1.5,2.618
			c-0.005,0.615,0.149,1.248,0.395,1.925l10.679,29.297c0.517,1.422,1.203,2.246,2.149,2.742c0.461,0.215,1.009,0.247,1.617,0.024
			c1.285-0.469,1.601-1.502,1.5-2.617c0.03-0.547-0.125-1.18-0.394-1.924L455.995,100.332z"/>
	</g>
	<g>
		<defs>
			<rect id="SVGID_21_" x="-1" width="960" height="560"/>
		</defs>
		<clipPath id="SVGID_22_">
			<use xlink:href="#SVGID_21_"  overflow="visible"/>
		</clipPath>
		<polygon clip-path="url(#SVGID_22_)" fill="#FFFFFF" points="483.727,107.699 482.65,105.408 482.227,105.486 487.639,135.019 
			480.629,136.304 471.085,84.25 477.885,83.004 490.293,108.765 491.37,111.056 491.795,110.978 486.383,81.447 493.395,80.162 
			502.936,132.215 496.139,133.461 		"/>
	</g>
	<g>
		<defs>
			<rect id="SVGID_23_" x="-1" width="960" height="560"/>
		</defs>
		<clipPath id="SVGID_24_">
			<use xlink:href="#SVGID_23_"  overflow="visible"/>
		</clipPath>
		<path clip-path="url(#SVGID_24_)" fill="#FFFFFF" d="M518.883,93.1c-0.025-1.729-0.125-3.67-0.652-5.176
			c-0.523-1.431-1.33-2.428-2.555-2.41c-2.015,0.1-2.631,2.197-2.586,5.293c0.024,1.801,0.844,3.66,2.024,5.658
			c1.183,2,2.726,4.065,4.271,6.274c1.838,2.638,3.678,5.347,5.084,7.99c1.408,2.644,2.383,5.367,2.426,8.246
			c0.051,3.527-0.477,6.848-2.096,9.318c-1.621,2.473-4.26,4.096-8.508,4.157c-4.968,0.074-7.804-1.758-9.431-4.614
			c-1.625-2.857-2.039-6.666-2.098-10.625l7.619-0.832c0.033,2.233,0.139,4.461,0.737,6.11c0.529,1.72,1.41,2.859,3.064,2.836
			c2.305-0.034,3.133-2.496,3.082-5.879c-0.023-1.727-0.918-3.731-2.1-5.801c-0.662-0.998-1.328-2.068-2.062-3.139
			c-1.545-2.136-3.236-4.56-5.002-7.199c-1.768-2.637-3.104-5.353-3.938-8.15c-0.451-1.362-0.688-2.799-0.707-4.239
			c-0.046-2.879,0.559-5.984,2.18-8.382c1.621-2.331,4.117-4.022,7.787-4.147c4.678-0.143,7.44,1.764,8.994,4.547
			c1.555,2.857,2.039,6.381,2.082,9.33L518.883,93.1z"/>
	</g>
	<g>
		<defs>
			
				<rect id="SVGID_25_" x="131.243" y="-340.45" transform="matrix(0.9946 0.1036 -0.1036 0.9946 -2.9741 -63.6504)" width="959.981" height="559.989"/>
		</defs>
		<clipPath id="SVGID_26_">
			<use xlink:href="#SVGID_25_"  overflow="visible"/>
		</clipPath>
		
			<rect x="532.397" y="79.876" transform="matrix(0.9946 0.1036 -0.1036 0.9946 13.8967 -54.971)" clip-path="url(#SVGID_26_)" fill="#FFFFFF" width="7.774" height="52.908"/>
	</g>
	<g>
		<defs>
			<rect id="SVGID_27_" x="-1" width="960" height="560"/>
		</defs>
		<clipPath id="SVGID_28_">
			<use xlink:href="#SVGID_27_"  overflow="visible"/>
		</clipPath>
		<polygon clip-path="url(#SVGID_28_)" fill="#FFFFFF" points="552.74,81.76 570.127,85.506 568.441,93.321 558.657,91.211 
			555.732,104.795 562.768,106.313 560.98,114.617 553.939,113.1 550.875,127.321 560.657,129.428 558.977,137.24 541.588,133.492 
					"/>
	</g>
	<g>
		<defs>
			<rect id="SVGID_29_" x="-1" width="960" height="560"/>
		</defs>
		<clipPath id="SVGID_30_">
			<use xlink:href="#SVGID_29_"  overflow="visible"/>
		</clipPath>
		<path clip-path="url(#SVGID_30_)" fill="#FFFFFF" d="M599.385,95.709l-14.922,39.318c-0.834,1.995-1.929,3.661-3.256,4.926
			c-1.117,1.117-2.546,2.039-4.275,2.537c-1.756,0.569-3.803,0.483-6.228-0.438c-2.424-0.918-4.077-2.24-5.018-3.828
			c-0.961-1.522-1.352-3.133-1.445-4.709c-0.153-1.83,0.131-3.801,0.832-5.846l14.92-39.32l7.273,2.759l-14.924,39.319
			c-0.535,1.416-0.56,2.484-0.164,3.48c0.209,0.465,0.604,0.848,1.209,1.076c1.278,0.485,2.192-0.091,2.842-1
			c0.383-0.394,0.68-0.976,0.963-1.714l14.92-39.321L599.385,95.709z"/>
	</g>
	<g>
		<defs>
			<rect id="SVGID_31_" x="-1" width="960" height="560"/>
		</defs>
		<clipPath id="SVGID_32_">
			<use xlink:href="#SVGID_31_"  overflow="visible"/>
		</clipPath>
		<path clip-path="url(#SVGID_32_)" fill="#FFFFFF" d="M595.84,153.727l7.727-21.323l-1.805-1.048l-11.213,19.296l-6.724-3.908
			l26.588-45.75l6.722,3.907c8.031,4.666,8.812,11.201,3.785,19.851c-2.642,4.543-6.211,7.965-9.775,8.225l-8.582,24.656
			L595.84,153.727z M605.379,125.131c0.934,0.543,2.252,1.143,3.754,0.848c1.5-0.293,3.287-1.502,5.17-4.741
			c1.879-3.236,2.084-5.449,1.594-6.898c-0.49-1.451-1.697-2.236-2.631-2.779L605.379,125.131z"/>
	</g>
</g>
<g>
	<g>
		<defs>
			<rect id="SVGID_33_" x="-1" width="960" height="560"/>
		</defs>
		<clipPath id="SVGID_34_">
			<use xlink:href="#SVGID_33_"  overflow="visible"/>
		</clipPath>
		<path clip-path="url(#SVGID_34_)" d="M515.375,130.814c-83.645,0-151.449,67.673-151.449,151.149
			c0,83.477,67.805,151.148,151.449,151.148c83.646,0,151.45-67.672,151.45-151.148
			C666.825,198.487,599.021,130.814,515.375,130.814 M515.377,419.049c-75.711,0-137.086-61.375-137.086-137.086
			s61.375-137.087,137.086-137.087s137.086,61.376,137.086,137.087S591.088,419.049,515.377,419.049"/>
	</g>
	<g>
		<defs>
			<rect id="SVGID_35_" x="-1" width="960" height="560"/>
		</defs>
		<clipPath id="SVGID_36_">
			<use xlink:href="#SVGID_35_"  overflow="visible"/>
		</clipPath>
		<path clip-path="url(#SVGID_36_)" fill="#FFFFFF" d="M515.375,434.111c-84.062,0-152.449-68.254-152.449-152.148
			c0-83.896,68.388-152.149,152.449-152.149s152.45,68.253,152.45,152.149C667.825,365.857,599.438,434.111,515.375,434.111
			 M515.375,131.813c-82.959,0-150.449,67.357-150.449,150.15s67.49,150.148,150.449,150.148s150.45-67.355,150.45-150.148
			S598.334,131.813,515.375,131.813 M515.377,420.049c-76.142,0-138.086-61.945-138.086-138.086
			c0-76.142,61.944-138.087,138.086-138.087c76.141,0,138.086,61.945,138.086,138.087
			C653.463,358.104,591.518,420.049,515.377,420.049 M515.377,145.876c-75.038,0-136.086,61.048-136.086,136.087
			c0,75.037,61.048,136.086,136.086,136.086c75.036,0,136.086-61.049,136.086-136.086
			C651.463,206.924,590.413,145.876,515.377,145.876"/>
	</g>
	<g>
		<defs>
			<rect id="SVGID_37_" x="-1" width="960" height="560"/>
		</defs>
		<clipPath id="SVGID_38_">
			<use xlink:href="#SVGID_37_"  overflow="visible"/>
		</clipPath>
		<path clip-path="url(#SVGID_38_)" d="M654.282,119.099C617.68,87.8,570.129,68.885,518.146,68.885
			c-51.98,0-99.529,18.915-136.133,50.214L518.148,299.68L654.282,119.099z"/>
	</g>
	<g>
		<defs>
			<rect id="SVGID_39_" x="-1" width="960" height="560"/>
		</defs>
		<clipPath id="SVGID_40_">
			<use xlink:href="#SVGID_39_"  overflow="visible"/>
		</clipPath>
		<polygon clip-path="url(#SVGID_40_)" fill="#FFFFFF" points="441.547,153.449 420.272,127.396 418.881,125.625 418.51,125.847 
			436.657,156.357 430.469,160.039 403.411,114.551 411.579,109.691 427.911,128.129 429.656,130.359 429.781,130.285 
			428.654,127.687 420.245,104.537 428.413,99.678 455.473,145.166 449.282,148.845 431.135,118.336 430.764,118.556 
			431.656,120.623 444.395,151.756 		"/>
	</g>
	<g>
		<defs>
			<rect id="SVGID_41_" x="-1" width="960" height="560"/>
		</defs>
		<clipPath id="SVGID_42_">
			<use xlink:href="#SVGID_41_"  overflow="visible"/>
		</clipPath>
		<path clip-path="url(#SVGID_42_)" fill="#FFFFFF" d="M473.98,126.967c0.672,2.054,0.934,4.029,0.756,5.857
			c-0.115,1.574-0.595,3.207-1.578,4.715c-0.959,1.574-2.563,2.85-5.002,3.738c-2.433,0.887-4.549,0.969-6.299,0.379
			c-1.72-0.521-3.07-1.486-4.174-2.617c-1.311-1.285-2.382-2.965-3.189-4.971l-10.678-29.295c-0.647-1.986-0.908-3.962-0.729-5.791
			c0.114-1.574,0.502-3.248,1.483-4.755c0.985-1.508,2.631-2.877,5.069-3.764c2.435-0.887,4.507-0.877,6.231-0.356
			c1.722,0.522,3.164,1.53,4.267,2.663c1.312,1.285,2.382,2.962,3.164,4.9L473.98,126.967z M455.995,100.332
			c-0.495-1.352-1.11-2.199-2.082-2.766c-0.465-0.214-1.077-0.22-1.686,0c-1.287,0.471-1.548,1.639-1.5,2.618
			c-0.005,0.615,0.149,1.248,0.395,1.925l10.679,29.297c0.517,1.422,1.203,2.246,2.149,2.742c0.461,0.215,1.009,0.247,1.617,0.024
			c1.285-0.469,1.601-1.502,1.5-2.617c0.03-0.547-0.125-1.18-0.394-1.924L455.995,100.332z"/>
	</g>
	<g>
		<defs>
			<rect id="SVGID_43_" x="-1" width="960" height="560"/>
		</defs>
		<clipPath id="SVGID_44_">
			<use xlink:href="#SVGID_43_"  overflow="visible"/>
		</clipPath>
		<polygon clip-path="url(#SVGID_44_)" fill="#FFFFFF" points="483.727,107.699 482.65,105.408 482.227,105.486 487.639,135.019 
			480.629,136.304 471.085,84.25 477.885,83.004 490.293,108.765 491.37,111.056 491.795,110.978 486.383,81.447 493.395,80.162 
			502.936,132.215 496.139,133.461 		"/>
	</g>
	<g>
		<defs>
			<rect id="SVGID_45_" x="-1" width="960" height="560"/>
		</defs>
		<clipPath id="SVGID_46_">
			<use xlink:href="#SVGID_45_"  overflow="visible"/>
		</clipPath>
		<path clip-path="url(#SVGID_46_)" fill="#FFFFFF" d="M518.883,93.1c-0.025-1.729-0.125-3.67-0.652-5.176
			c-0.523-1.431-1.33-2.428-2.555-2.41c-2.015,0.1-2.631,2.197-2.586,5.293c0.024,1.801,0.844,3.66,2.024,5.658
			c1.183,2,2.726,4.065,4.271,6.274c1.838,2.638,3.678,5.347,5.084,7.99c1.408,2.644,2.383,5.367,2.426,8.246
			c0.051,3.527-0.477,6.848-2.096,9.318c-1.621,2.473-4.26,4.096-8.508,4.157c-4.968,0.074-7.804-1.758-9.431-4.614
			c-1.625-2.857-2.039-6.666-2.098-10.625l7.619-0.832c0.033,2.233,0.139,4.461,0.737,6.11c0.529,1.72,1.41,2.859,3.064,2.836
			c2.305-0.034,3.133-2.496,3.082-5.879c-0.023-1.727-0.918-3.731-2.1-5.801c-0.662-0.998-1.328-2.068-2.062-3.139
			c-1.545-2.136-3.236-4.56-5.002-7.199c-1.768-2.637-3.104-5.353-3.938-8.15c-0.451-1.362-0.688-2.799-0.707-4.239
			c-0.046-2.879,0.559-5.984,2.18-8.382c1.621-2.331,4.117-4.022,7.787-4.147c4.678-0.143,7.44,1.764,8.994,4.547
			c1.555,2.857,2.039,6.381,2.082,9.33L518.883,93.1z"/>
	</g>
	<g>
		<defs>
			
				<rect id="SVGID_47_" x="131.243" y="-340.45" transform="matrix(0.9946 0.1036 -0.1036 0.9946 -2.9741 -63.6504)" width="959.981" height="559.989"/>
		</defs>
		<clipPath id="SVGID_48_">
			<use xlink:href="#SVGID_47_"  overflow="visible"/>
		</clipPath>
		
			<rect x="532.397" y="79.876" transform="matrix(0.9946 0.1036 -0.1036 0.9946 13.8967 -54.971)" clip-path="url(#SVGID_48_)" fill="#FFFFFF" width="7.774" height="52.908"/>
	</g>
	<g>
		<defs>
			<rect id="SVGID_49_" x="-1" width="960" height="560"/>
		</defs>
		<clipPath id="SVGID_50_">
			<use xlink:href="#SVGID_49_"  overflow="visible"/>
		</clipPath>
		<polygon clip-path="url(#SVGID_50_)" fill="#FFFFFF" points="552.74,81.76 570.127,85.506 568.441,93.321 558.657,91.211 
			555.732,104.795 562.768,106.313 560.98,114.617 553.939,113.1 550.875,127.321 560.657,129.428 558.977,137.24 541.588,133.492 
					"/>
	</g>
	<g>
		<defs>
			<rect id="SVGID_51_" x="-1" width="960" height="560"/>
		</defs>
		<clipPath id="SVGID_52_">
			<use xlink:href="#SVGID_51_"  overflow="visible"/>
		</clipPath>
		<path clip-path="url(#SVGID_52_)" fill="#FFFFFF" d="M599.385,95.709l-14.922,39.318c-0.834,1.995-1.929,3.661-3.256,4.926
			c-1.117,1.117-2.546,2.039-4.275,2.537c-1.756,0.569-3.803,0.483-6.228-0.438c-2.424-0.918-4.077-2.24-5.018-3.828
			c-0.961-1.522-1.352-3.133-1.445-4.709c-0.153-1.83,0.131-3.801,0.832-5.846l14.92-39.32l7.273,2.759l-14.924,39.319
			c-0.535,1.416-0.56,2.484-0.164,3.48c0.209,0.465,0.604,0.848,1.209,1.076c1.278,0.485,2.192-0.091,2.842-1
			c0.383-0.394,0.68-0.976,0.963-1.714l14.92-39.321L599.385,95.709z"/>
	</g>
	<g>
		<defs>
			<rect id="SVGID_53_" x="-1" width="960" height="560"/>
		</defs>
		<clipPath id="SVGID_54_">
			<use xlink:href="#SVGID_53_"  overflow="visible"/>
		</clipPath>
		<path clip-path="url(#SVGID_54_)" fill="#FFFFFF" d="M595.84,153.727l7.727-21.323l-1.805-1.048l-11.213,19.296l-6.724-3.908
			l26.588-45.75l6.722,3.907c8.031,4.666,8.812,11.201,3.785,19.851c-2.642,4.543-6.211,7.965-9.775,8.225l-8.582,24.656
			L595.84,153.727z M605.379,125.131c0.934,0.543,2.252,1.143,3.754,0.848c1.5-0.293,3.287-1.502,5.17-4.741
			c1.879-3.236,2.084-5.449,1.594-6.898c-0.49-1.451-1.697-2.236-2.631-2.779L605.379,125.131z"/>
	</g>
</g>
<g>
	<g>
		<defs>
			<rect id="SVGID_55_" x="-1" width="960" height="560"/>
		</defs>
		<clipPath id="SVGID_56_">
			<use xlink:href="#SVGID_55_"  overflow="visible"/>
		</clipPath>
		<path clip-path="url(#SVGID_56_)" fill="#FFFFFF" d="M659.186,284.018c0,79.027-63.695,143.093-142.268,143.093
			c-78.573,0-142.271-64.064-142.271-143.093c0-79.026,63.697-143.091,142.271-143.091
			C595.49,140.927,659.186,204.991,659.186,284.018"/>
	</g>
	<g>
		<defs>
			<rect id="SVGID_57_" x="-1" width="960" height="560"/>
		</defs>
		<clipPath id="SVGID_58_">
			<use xlink:href="#SVGID_57_"  overflow="visible"/>
		</clipPath>
		<path clip-path="url(#SVGID_58_)" d="M420.5,189.182l96.229-32l99.771,32c0,0-31.214-45.772-97.513-45.513
			C452.689,143.929,420.5,189.182,420.5,189.182"/>
	</g>
	<g>
		<defs>
			<rect id="SVGID_59_" x="-1" width="960" height="560"/>
		</defs>
		<clipPath id="SVGID_60_">
			<use xlink:href="#SVGID_59_"  overflow="visible"/>
		</clipPath>
		<path clip-path="url(#SVGID_60_)" d="M508.504,209.693c0,0,8.084-6.721,10.657-6.721c2.572,0,10.566,6.842,10.566,6.842
			s-0.758,14.354-10.508,14.354C509.475,224.168,508.504,209.693,508.504,209.693"/>
	</g>
	<g>
		<defs>
			<rect id="SVGID_61_" x="-1" width="960" height="560"/>
		</defs>
		<clipPath id="SVGID_62_">
			<use xlink:href="#SVGID_61_"  overflow="visible"/>
		</clipPath>
		<polygon clip-path="url(#SVGID_62_)" points="515.581,229 504.725,363.958 519.133,386.73 533.543,363.869 522.687,229 		"/>
	</g>
	<g>
		<defs>
			<rect id="SVGID_63_" x="-1" width="960" height="560"/>
		</defs>
		<clipPath id="SVGID_64_">
			<use xlink:href="#SVGID_63_"  overflow="visible"/>
		</clipPath>
		<path clip-path="url(#SVGID_64_)" d="M435.092,236.676c6.092-0.263,10.645-0.397,13.664-0.397c14.869,0,25.871,2.184,33.006,6.554
			c10.096,6.157,15.172,17.345,15.227,33.564c0.056,12.71-4.006,23.005-12.182,30.884c8.779,8.143,13.17,18.504,13.17,31.082
			c0,14.896-4.391,26.15-13.17,33.764c-5.269,4.633-13.416,6.949-24.445,6.949c-5.598,0-14.021-0.131-25.27-0.396V236.676z
			 M474.684,277.589v-0.199c0-9.597-5.379-15.159-16.133-16.682v37.635C469.305,295.432,474.684,288.514,474.684,277.589
			 M475.094,336.775c0-12.711-5.515-19.066-16.543-19.066v39.223C469.579,355.541,475.094,348.824,475.094,336.775"/>
	</g>
	<g>
		<defs>
			<rect id="SVGID_65_" x="-1" width="960" height="560"/>
		</defs>
		<clipPath id="SVGID_66_">
			<use xlink:href="#SVGID_65_"  overflow="visible"/>
		</clipPath>
		<polygon clip-path="url(#SVGID_66_)" points="574.014,264.283 538.784,264.283 538.784,236.875 608.09,236.875 568.581,352.066 
			604.057,352.066 604.057,379.076 534.752,379.076 		"/>
	</g>
	<g>
		<defs>
			<rect id="SVGID_67_" x="-1" width="960" height="560"/>
		</defs>
		<clipPath id="SVGID_68_">
			<use xlink:href="#SVGID_67_"  overflow="visible"/>
		</clipPath>
		<polygon clip-path="url(#SVGID_68_)" points="612,261.193 612,395.174 641.991,359.033 		"/>
	</g>
	<g>
		<defs>
			<rect id="SVGID_69_" x="-1" width="960" height="560"/>
		</defs>
		<clipPath id="SVGID_70_">
			<use xlink:href="#SVGID_69_"  overflow="visible"/>
		</clipPath>
		<polygon clip-path="url(#SVGID_70_)" points="426,265.193 426,399.174 396.008,363.033 		"/>
	</g>
	<g>
		<defs>
			<rect id="SVGID_71_" x="-1" width="960" height="560"/>
		</defs>
		<clipPath id="SVGID_72_">
			<use xlink:href="#SVGID_71_"  overflow="visible"/>
		</clipPath>
		<path clip-path="url(#SVGID_72_)" fill="#FFFFFF" d="M468.678,162.967c0,0,52.266-26.291,95.936,0.068
			c1.41,0.852,0.104,20.524,0.104,20.524s-37.771-18.516-92.217,0L468.678,162.967z"/>
	</g>
	<g>
		<defs>
			<rect id="SVGID_73_" x="-1" width="960" height="560"/>
		</defs>
		<clipPath id="SVGID_74_">
			<use xlink:href="#SVGID_73_"  overflow="visible"/>
		</clipPath>
		<path clip-path="url(#SVGID_74_)" d="M565.615,185.111l-1.338-0.654c-0.166-0.082-16.93-8.128-43.67-8.128
			c-15.756,0-31.832,2.751-47.786,8.176l-1.093,0.373l-4.172-22.467l0.672-0.338c0.234-0.117,23.728-11.771,52.029-11.771
			c16.719,0,31.815,3.996,44.873,11.877c0.526,0.319,1.932,1.167,0.584,21.446L565.615,185.111z M469.801,163.538l3.473,18.706
			c15.8-5.253,31.72-7.915,47.333-7.915c22.896,0,38.658,5.829,43.203,7.736c0.5-8.164,0.668-16.77,0.117-18.276
			c-12.701-7.622-27.394-11.487-43.67-11.487C495.102,152.302,473.805,161.666,469.801,163.538"/>
	</g>
	<g>
		<defs>
			<rect id="SVGID_75_" x="-1" width="960" height="560"/>
		</defs>
		<clipPath id="SVGID_76_">
			<use xlink:href="#SVGID_75_"  overflow="visible"/>
		</clipPath>
		
			<line clip-path="url(#SVGID_76_)" fill="none" stroke="#000000" stroke-width="2" stroke-miterlimit="10" x1="468.5" y1="183.557" x2="464.678" y2="164.182"/>
	</g>
	<g>
		<defs>
			<rect id="SVGID_77_" x="-1" width="960" height="560"/>
		</defs>
		<clipPath id="SVGID_78_">
			<use xlink:href="#SVGID_77_"  overflow="visible"/>
		</clipPath>
		<path clip-path="url(#SVGID_78_)" fill="#FFFFFF" d="M468.633,162.916c0.155,0.089,3.41,19.764,3.41,19.764"/>
	</g>
	<g>
		<defs>
			<rect id="SVGID_79_" x="-1" width="960" height="560"/>
		</defs>
		<clipPath id="SVGID_80_">
			<use xlink:href="#SVGID_79_"  overflow="visible"/>
		</clipPath>
		<path clip-path="url(#SVGID_80_)" fill="none" stroke="#000000" stroke-width="1.822" stroke-miterlimit="10" d="M468.633,162.916
			c0.155,0.089,3.41,19.764,3.41,19.764"/>
	</g>
	<g>
		<defs>
			<rect id="SVGID_81_" x="-1" width="960" height="560"/>
		</defs>
		<clipPath id="SVGID_82_">
			<use xlink:href="#SVGID_81_"  overflow="visible"/>
		</clipPath>
		<path clip-path="url(#SVGID_82_)" fill="#FFFFFF" d="M472.586,161.65c0.313,0.179,2.995,20.154,2.995,20.154"/>
	</g>
	<g>
		<defs>
			<rect id="SVGID_83_" x="-1" width="960" height="560"/>
		</defs>
		<clipPath id="SVGID_84_">
			<use xlink:href="#SVGID_83_"  overflow="visible"/>
		</clipPath>
		<path clip-path="url(#SVGID_84_)" fill="none" stroke="#000000" stroke-width="1.644" stroke-miterlimit="10" d="M472.586,161.65
			c0.313,0.179,2.995,20.154,2.995,20.154"/>
	</g>
	<g>
		<defs>
			<rect id="SVGID_85_" x="-1" width="960" height="560"/>
		</defs>
		<clipPath id="SVGID_86_">
			<use xlink:href="#SVGID_85_"  overflow="visible"/>
		</clipPath>
		<path clip-path="url(#SVGID_86_)" fill="#FFFFFF" d="M476.54,160.385c0.472,0.268,2.585,20.543,2.585,20.543"/>
	</g>
	<g>
		<defs>
			<rect id="SVGID_87_" x="-1" width="960" height="560"/>
		</defs>
		<clipPath id="SVGID_88_">
			<use xlink:href="#SVGID_87_"  overflow="visible"/>
		</clipPath>
		<path clip-path="url(#SVGID_88_)" fill="none" stroke="#000000" stroke-width="1.467" stroke-miterlimit="10" d="M476.54,160.385
			c0.472,0.268,2.585,20.543,2.585,20.543"/>
	</g>
	<g>
		<defs>
			<rect id="SVGID_89_" x="-1" width="960" height="560"/>
		</defs>
		<clipPath id="SVGID_90_">
			<use xlink:href="#SVGID_89_"  overflow="visible"/>
		</clipPath>
		<path clip-path="url(#SVGID_90_)" fill="#FFFFFF" d="M480.495,159.12c0.627,0.356,2.171,20.932,2.171,20.932"/>
	</g>
	<g>
		<defs>
			<rect id="SVGID_91_" x="-1" width="960" height="560"/>
		</defs>
		<clipPath id="SVGID_92_">
			<use xlink:href="#SVGID_91_"  overflow="visible"/>
		</clipPath>
		<path clip-path="url(#SVGID_92_)" fill="none" stroke="#000000" stroke-width="1.289" stroke-miterlimit="10" d="M480.495,159.12
			c0.627,0.356,2.171,20.932,2.171,20.932"/>
	</g>
	<g>
		<defs>
			<rect id="SVGID_93_" x="-1" width="960" height="560"/>
		</defs>
		<clipPath id="SVGID_94_">
			<use xlink:href="#SVGID_93_"  overflow="visible"/>
		</clipPath>
		<path clip-path="url(#SVGID_94_)" fill="#FFFFFF" d="M484.45,157.854c0.783,0.445,1.756,21.321,1.756,21.321"/>
	</g>
	<g>
		<defs>
			<rect id="SVGID_95_" x="-1" width="960" height="560"/>
		</defs>
		<clipPath id="SVGID_96_">
			<use xlink:href="#SVGID_95_"  overflow="visible"/>
		</clipPath>
		<path clip-path="url(#SVGID_96_)" fill="none" stroke="#000000" stroke-width="1.111" stroke-miterlimit="10" d="M484.45,157.854
			c0.783,0.445,1.756,21.321,1.756,21.321"/>
	</g>
	<g>
		<defs>
			<rect id="SVGID_97_" x="-1" width="960" height="560"/>
		</defs>
		<clipPath id="SVGID_98_">
			<use xlink:href="#SVGID_97_"  overflow="visible"/>
		</clipPath>
		<path clip-path="url(#SVGID_98_)" fill="#FFFFFF" d="M488.406,156.588c0.938,0.535,1.342,21.711,1.342,21.711"/>
	</g>
	<g>
		<defs>
			<rect id="SVGID_99_" x="-1" width="960" height="560"/>
		</defs>
		<clipPath id="SVGID_100_">
			<use xlink:href="#SVGID_99_"  overflow="visible"/>
		</clipPath>
		<path clip-path="url(#SVGID_100_)" fill="none" stroke="#000000" stroke-width="0.933" stroke-miterlimit="10" d="
			M488.406,156.588c0.938,0.535,1.342,21.711,1.342,21.711"/>
	</g>
	<g>
		<defs>
			<rect id="SVGID_101_" x="-1" width="960" height="560"/>
		</defs>
		<clipPath id="SVGID_102_">
			<use xlink:href="#SVGID_101_"  overflow="visible"/>
		</clipPath>
		<path clip-path="url(#SVGID_102_)" fill="#FFFFFF" d="M492.359,155.323c1.098,0.622,0.93,22.1,0.93,22.1"/>
	</g>
	<g>
		<defs>
			<rect id="SVGID_103_" x="-1" width="960" height="560"/>
		</defs>
		<clipPath id="SVGID_104_">
			<use xlink:href="#SVGID_103_"  overflow="visible"/>
		</clipPath>
		<path clip-path="url(#SVGID_104_)" fill="none" stroke="#000000" stroke-width="0.756" stroke-miterlimit="10" d="
			M492.359,155.323c1.098,0.622,0.93,22.1,0.93,22.1"/>
	</g>
	<g>
		<defs>
			<rect id="SVGID_105_" x="-1" width="960" height="560"/>
		</defs>
		<clipPath id="SVGID_106_">
			<use xlink:href="#SVGID_105_"  overflow="visible"/>
		</clipPath>
		<path clip-path="url(#SVGID_106_)" fill="#FFFFFF" d="M496.314,154.058c1.254,0.712,0.518,22.489,0.518,22.489"/>
	</g>
	<g>
		<defs>
			<rect id="SVGID_107_" x="-1" width="960" height="560"/>
		</defs>
		<clipPath id="SVGID_108_">
			<use xlink:href="#SVGID_107_"  overflow="visible"/>
		</clipPath>
		<path clip-path="url(#SVGID_108_)" fill="none" stroke="#000000" stroke-width="0.578" stroke-miterlimit="10" d="
			M496.314,154.058c1.254,0.712,0.518,22.489,0.518,22.489"/>
	</g>
	<g>
		<defs>
			<rect id="SVGID_109_" x="-1" width="960" height="560"/>
		</defs>
		<clipPath id="SVGID_110_">
			<use xlink:href="#SVGID_109_"  overflow="visible"/>
		</clipPath>
		<path clip-path="url(#SVGID_110_)" fill="#FFFFFF" d="M500.27,152.792c1.41,0.801,0.104,22.878,0.104,22.878"/>
	</g>
	<g>
		<defs>
			<rect id="SVGID_111_" x="-1" width="960" height="560"/>
		</defs>
		<clipPath id="SVGID_112_">
			<use xlink:href="#SVGID_111_"  overflow="visible"/>
		</clipPath>
		<path clip-path="url(#SVGID_112_)" fill="none" stroke="#000000" stroke-width="0.4" stroke-miterlimit="10" d="M500.27,152.792
			c1.41,0.801,0.104,22.878,0.104,22.878"/>
	</g>
	<g>
		<defs>
			<rect id="SVGID_113_" x="-1" width="960" height="560"/>
		</defs>
		<clipPath id="SVGID_114_">
			<use xlink:href="#SVGID_113_"  overflow="visible"/>
		</clipPath>
		<path clip-path="url(#SVGID_114_)" fill="#FFFFFF" d="M467.65,162.146l-3.445,1.695l-4.762,17.547
			c-0.053,20.973,15.785,49.992,15.785,49.992c11.428-21.039,35.697-34.859,35.697-34.859L467.65,162.146z"/>
	</g>
	<g>
		<defs>
			<rect id="SVGID_115_" x="-1" width="960" height="560"/>
		</defs>
		<clipPath id="SVGID_116_">
			<use xlink:href="#SVGID_115_"  overflow="visible"/>
		</clipPath>
		<path clip-path="url(#SVGID_116_)" d="M475.23,233.472l-0.879-1.611c-0.652-1.194-15.961-29.486-15.908-50.475l0.035-0.259
			l4.879-17.983l4.42-2.174l44.928,35.689l-1.284,0.732c-0.24,0.137-24.158,13.931-35.312,34.468L475.23,233.472z M460.443,181.522
			c0.014,17.664,11.56,41.414,14.816,47.765c10.186-17.44,28.911-29.787,33.917-32.879l-41.652-33.085l-2.471,1.217L460.443,181.522
			z"/>
	</g>
	<g>
		<defs>
			<rect id="SVGID_117_" x="-1" width="960" height="560"/>
		</defs>
		<clipPath id="SVGID_118_">
			<use xlink:href="#SVGID_117_"  overflow="visible"/>
		</clipPath>
		
			<line clip-path="url(#SVGID_118_)" fill="none" stroke="#000000" stroke-width="2" stroke-miterlimit="10" x1="561.102" y1="181.652" x2="564.924" y2="162.275"/>
	</g>
	<g>
		<defs>
			<rect id="SVGID_119_" x="-1" width="960" height="560"/>
		</defs>
		<clipPath id="SVGID_120_">
			<use xlink:href="#SVGID_119_"  overflow="visible"/>
		</clipPath>
		<path clip-path="url(#SVGID_120_)" fill="#FFFFFF" d="M560.969,161.01c-0.156,0.089-3.408,19.766-3.408,19.766"/>
	</g>
	<g>
		<defs>
			<rect id="SVGID_121_" x="-1" width="960" height="560"/>
		</defs>
		<clipPath id="SVGID_122_">
			<use xlink:href="#SVGID_121_"  overflow="visible"/>
		</clipPath>
		<path clip-path="url(#SVGID_122_)" fill="none" stroke="#000000" stroke-width="1.822" stroke-miterlimit="10" d="M560.969,161.01
			c-0.156,0.089-3.408,19.766-3.408,19.766"/>
	</g>
	<g>
		<defs>
			<rect id="SVGID_123_" x="-1" width="960" height="560"/>
		</defs>
		<clipPath id="SVGID_124_">
			<use xlink:href="#SVGID_123_"  overflow="visible"/>
		</clipPath>
		<path clip-path="url(#SVGID_124_)" fill="#FFFFFF" d="M557.014,159.745c-0.312,0.178-2.994,20.154-2.994,20.154"/>
	</g>
	<g>
		<defs>
			<rect id="SVGID_125_" x="-1" width="960" height="560"/>
		</defs>
		<clipPath id="SVGID_126_">
			<use xlink:href="#SVGID_125_"  overflow="visible"/>
		</clipPath>
		<path clip-path="url(#SVGID_126_)" fill="none" stroke="#000000" stroke-width="1.644" stroke-miterlimit="10" d="
			M557.014,159.745c-0.312,0.178-2.994,20.154-2.994,20.154"/>
	</g>
	<g>
		<defs>
			<rect id="SVGID_127_" x="-1" width="960" height="560"/>
		</defs>
		<clipPath id="SVGID_128_">
			<use xlink:href="#SVGID_127_"  overflow="visible"/>
		</clipPath>
		<path clip-path="url(#SVGID_128_)" fill="#FFFFFF" d="M553.061,158.479c-0.471,0.268-2.584,20.544-2.584,20.544"/>
	</g>
	<g>
		<defs>
			<rect id="SVGID_129_" x="-1" width="960" height="560"/>
		</defs>
		<clipPath id="SVGID_130_">
			<use xlink:href="#SVGID_129_"  overflow="visible"/>
		</clipPath>
		<path clip-path="url(#SVGID_130_)" fill="none" stroke="#000000" stroke-width="1.467" stroke-miterlimit="10" d="
			M553.061,158.479c-0.471,0.268-2.584,20.544-2.584,20.544"/>
	</g>
	<g>
		<defs>
			<rect id="SVGID_131_" x="-1" width="960" height="560"/>
		</defs>
		<clipPath id="SVGID_132_">
			<use xlink:href="#SVGID_131_"  overflow="visible"/>
		</clipPath>
		<path clip-path="url(#SVGID_132_)" fill="#FFFFFF" d="M549.105,157.214c-0.627,0.355-2.17,20.933-2.17,20.933"/>
	</g>
	<g>
		<defs>
			<rect id="SVGID_133_" x="-1" width="960" height="560"/>
		</defs>
		<clipPath id="SVGID_134_">
			<use xlink:href="#SVGID_133_"  overflow="visible"/>
		</clipPath>
		<path clip-path="url(#SVGID_134_)" fill="none" stroke="#000000" stroke-width="1.289" stroke-miterlimit="10" d="
			M549.105,157.214c-0.627,0.355-2.17,20.933-2.17,20.933"/>
	</g>
	<g>
		<defs>
			<rect id="SVGID_135_" x="-1" width="960" height="560"/>
		</defs>
		<clipPath id="SVGID_136_">
			<use xlink:href="#SVGID_135_"  overflow="visible"/>
		</clipPath>
		<path clip-path="url(#SVGID_136_)" fill="#FFFFFF" d="M545.15,155.948c-0.783,0.445-1.756,21.321-1.756,21.321"/>
	</g>
	<g>
		<defs>
			<rect id="SVGID_137_" x="-1" width="960" height="560"/>
		</defs>
		<clipPath id="SVGID_138_">
			<use xlink:href="#SVGID_137_"  overflow="visible"/>
		</clipPath>
		<path clip-path="url(#SVGID_138_)" fill="none" stroke="#000000" stroke-width="1.111" stroke-miterlimit="10" d="M545.15,155.948
			c-0.783,0.445-1.756,21.321-1.756,21.321"/>
	</g>
	<g>
		<defs>
			<rect id="SVGID_139_" x="-1" width="960" height="560"/>
		</defs>
		<clipPath id="SVGID_140_">
			<use xlink:href="#SVGID_139_"  overflow="visible"/>
		</clipPath>
		<path clip-path="url(#SVGID_140_)" fill="#FFFFFF" d="M541.195,154.684c-0.938,0.533-1.342,21.709-1.342,21.709"/>
	</g>
	<g>
		<defs>
			<rect id="SVGID_141_" x="-1" width="960" height="560"/>
		</defs>
		<clipPath id="SVGID_142_">
			<use xlink:href="#SVGID_141_"  overflow="visible"/>
		</clipPath>
		<path clip-path="url(#SVGID_142_)" fill="none" stroke="#000000" stroke-width="0.933" stroke-miterlimit="10" d="
			M541.195,154.684c-0.938,0.533-1.342,21.709-1.342,21.709"/>
	</g>
	<g>
		<defs>
			<rect id="SVGID_143_" x="-1" width="960" height="560"/>
		</defs>
		<clipPath id="SVGID_144_">
			<use xlink:href="#SVGID_143_"  overflow="visible"/>
		</clipPath>
		<path clip-path="url(#SVGID_144_)" fill="#FFFFFF" d="M537.241,153.418c-1.098,0.623-0.93,22.099-0.93,22.099"/>
	</g>
	<g>
		<defs>
			<rect id="SVGID_145_" x="-1" width="960" height="560"/>
		</defs>
		<clipPath id="SVGID_146_">
			<use xlink:href="#SVGID_145_"  overflow="visible"/>
		</clipPath>
		<path clip-path="url(#SVGID_146_)" fill="none" stroke="#000000" stroke-width="0.756" stroke-miterlimit="10" d="
			M537.241,153.418c-1.098,0.623-0.93,22.099-0.93,22.099"/>
	</g>
	<g>
		<defs>
			<rect id="SVGID_147_" x="-1" width="960" height="560"/>
		</defs>
		<clipPath id="SVGID_148_">
			<use xlink:href="#SVGID_147_"  overflow="visible"/>
		</clipPath>
		<path clip-path="url(#SVGID_148_)" fill="#FFFFFF" d="M533.284,152.152c-1.252,0.711-0.516,22.488-0.516,22.488"/>
	</g>
	<g>
		<defs>
			<rect id="SVGID_149_" x="-1" width="960" height="560"/>
		</defs>
		<clipPath id="SVGID_150_">
			<use xlink:href="#SVGID_149_"  overflow="visible"/>
		</clipPath>
		<path clip-path="url(#SVGID_150_)" fill="none" stroke="#000000" stroke-width="0.578" stroke-miterlimit="10" d="
			M533.284,152.152c-1.252,0.711-0.516,22.488-0.516,22.488"/>
	</g>
	<g>
		<defs>
			<rect id="SVGID_151_" x="-1" width="960" height="560"/>
		</defs>
		<clipPath id="SVGID_152_">
			<use xlink:href="#SVGID_151_"  overflow="visible"/>
		</clipPath>
		<path clip-path="url(#SVGID_152_)" fill="#FFFFFF" d="M529.331,150.887c-1.409,0.801-0.104,22.877-0.104,22.877"/>
	</g>
	<g>
		<defs>
			<rect id="SVGID_153_" x="-1" width="960" height="560"/>
		</defs>
		<clipPath id="SVGID_154_">
			<use xlink:href="#SVGID_153_"  overflow="visible"/>
		</clipPath>
		<path clip-path="url(#SVGID_154_)" fill="none" stroke="#000000" stroke-width="0.4" stroke-miterlimit="10" d="M529.331,150.887
			c-1.409,0.801-0.104,22.877-0.104,22.877"/>
	</g>
	<g>
		<defs>
			<rect id="SVGID_155_" x="-1" width="960" height="560"/>
		</defs>
		<clipPath id="SVGID_156_">
			<use xlink:href="#SVGID_155_"  overflow="visible"/>
		</clipPath>
		<path clip-path="url(#SVGID_156_)" fill="#FFFFFF" d="M564.717,162.146l3.444,1.695l4.763,17.547
			c0.053,20.973-15.785,49.992-15.785,49.992c-11.428-21.039-35.697-34.859-35.697-34.859L564.717,162.146z"/>
	</g>
	<g>
		<defs>
			<rect id="SVGID_157_" x="-1" width="960" height="560"/>
		</defs>
		<clipPath id="SVGID_158_">
			<use xlink:href="#SVGID_157_"  overflow="visible"/>
		</clipPath>
		<path clip-path="url(#SVGID_158_)" d="M557.137,233.471l-0.877-1.613c-11.162-20.551-35.072-34.331-35.312-34.468l-1.285-0.732
			l44.929-35.688l4.42,2.173l4.914,18.243c0.053,20.988-15.256,49.28-15.908,50.474L557.137,233.471z M523.191,196.408
			c5.006,3.092,23.73,15.439,33.916,32.879c3.258-6.351,14.803-30.101,14.816-47.765l-4.609-16.982l-2.471-1.217L523.191,196.408z"
			/>
	</g>
	<g>
		<defs>
			<rect id="SVGID_159_" x="-1" width="960" height="560"/>
		</defs>
		<clipPath id="SVGID_160_">
			<use xlink:href="#SVGID_159_"  overflow="visible"/>
		</clipPath>
		<path clip-path="url(#SVGID_160_)" fill="#FFFFFF" d="M351.672,286.092c0,2.234-0.945,3.012-2.109,3.012
			c-1.166,0-2.11-0.776-2.11-3.012c0-2.232,2.188-5.076,2.11-5.076C349.483,281.016,351.672,283.859,351.672,286.092"/>
	</g>
	<g>
		<defs>
			<rect id="SVGID_161_" x="-1" width="960" height="560"/>
		</defs>
		<clipPath id="SVGID_162_">
			<use xlink:href="#SVGID_161_"  overflow="visible"/>
		</clipPath>
		<path clip-path="url(#SVGID_162_)" fill="#FFFFFF" d="M347.452,296.029c0-2.234,0.945-3.012,2.109-3.012
			c1.166,0,2.11,0.776,2.11,3.012c0,2.231-2.188,5.076-2.11,5.076C349.642,301.105,347.452,298.262,347.452,296.029"/>
	</g>
	<g>
		<defs>
			<rect id="SVGID_163_" x="-1" width="960" height="560"/>
		</defs>
		<clipPath id="SVGID_164_">
			<use xlink:href="#SVGID_163_"  overflow="visible"/>
		</clipPath>
		<path clip-path="url(#SVGID_164_)" fill="#FFFFFF" d="M343.594,287.951c2.233,0,3.012,0.945,3.012,2.109
			c0,1.166-0.778,2.108-3.012,2.108c-2.232,0-5.076-2.188-5.076-2.108S341.362,287.951,343.594,287.951"/>
	</g>
	<g>
		<defs>
			<rect id="SVGID_165_" x="-1" width="960" height="560"/>
		</defs>
		<clipPath id="SVGID_166_">
			<use xlink:href="#SVGID_165_"  overflow="visible"/>
		</clipPath>
		<path clip-path="url(#SVGID_166_)" fill="#FFFFFF" d="M355.531,292.17c-2.233,0-3.012-0.945-3.012-2.109
			c0-1.166,0.778-2.108,3.012-2.108c2.232,0,5.076,2.188,5.076,2.108S357.763,292.17,355.531,292.17"/>
	</g>
	<g>
		<defs>
			<rect id="SVGID_167_" x="-1" width="960" height="560"/>
		</defs>
		<clipPath id="SVGID_168_">
			<use xlink:href="#SVGID_167_"  overflow="visible"/>
		</clipPath>
		<path clip-path="url(#SVGID_168_)" fill="#FFFFFF" d="M350.629,290.021c0,0.553-0.449,1-1,1c-0.556,0-1.002-0.447-1.002-1
			c0-0.552,0.446-1,1.002-1C350.18,289.021,350.629,289.471,350.629,290.021"/>
	</g>
	<g>
		<defs>
			<rect id="SVGID_169_" x="-1" width="960" height="560"/>
		</defs>
		<clipPath id="SVGID_170_">
			<use xlink:href="#SVGID_169_"  overflow="visible"/>
		</clipPath>
		<path clip-path="url(#SVGID_170_)" fill="#FFFFFF" d="M350.629,292.021c0,0.553-0.449,1-1,1c-0.556,0-1.002-0.447-1.002-1
			c0-0.552,0.446-1,1.002-1C350.18,291.021,350.629,291.471,350.629,292.021"/>
	</g>
	<g>
		<defs>
			<rect id="SVGID_171_" x="-1" width="960" height="560"/>
		</defs>
		<clipPath id="SVGID_172_">
			<use xlink:href="#SVGID_171_"  overflow="visible"/>
		</clipPath>
		<path clip-path="url(#SVGID_172_)" fill="#FFFFFF" d="M685.672,288.092c0,2.234-0.945,3.012-2.109,3.012
			c-1.166,0-2.109-0.776-2.109-3.012c0-2.232,2.188-5.076,2.109-5.076C683.482,283.016,685.672,285.859,685.672,288.092"/>
	</g>
	<g>
		<defs>
			<rect id="SVGID_173_" x="-1" width="960" height="560"/>
		</defs>
		<clipPath id="SVGID_174_">
			<use xlink:href="#SVGID_173_"  overflow="visible"/>
		</clipPath>
		<path clip-path="url(#SVGID_174_)" fill="#FFFFFF" d="M681.452,298.029c0-2.234,0.945-3.012,2.109-3.012
			c1.166,0,2.109,0.776,2.109,3.012c0,2.231-2.188,5.076-2.109,5.076C683.643,303.105,681.452,300.262,681.452,298.029"/>
	</g>
	<g>
		<defs>
			<rect id="SVGID_175_" x="-1" width="960" height="560"/>
		</defs>
		<clipPath id="SVGID_176_">
			<use xlink:href="#SVGID_175_"  overflow="visible"/>
		</clipPath>
		<path clip-path="url(#SVGID_176_)" fill="#FFFFFF" d="M677.594,289.951c2.233,0,3.012,0.945,3.012,2.109
			c0,1.166-0.777,2.108-3.012,2.108c-2.232,0-5.076-2.188-5.076-2.108S675.361,289.951,677.594,289.951"/>
	</g>
	<g>
		<defs>
			<rect id="SVGID_177_" x="-1" width="960" height="560"/>
		</defs>
		<clipPath id="SVGID_178_">
			<use xlink:href="#SVGID_177_"  overflow="visible"/>
		</clipPath>
		<path clip-path="url(#SVGID_178_)" fill="#FFFFFF" d="M689.531,294.17c-2.233,0-3.012-0.945-3.012-2.109
			c0-1.166,0.777-2.108,3.012-2.108c2.232,0,5.076,2.188,5.076,2.108S691.764,294.17,689.531,294.17"/>
	</g>
	<g>
		<defs>
			<rect id="SVGID_179_" x="-1" width="960" height="560"/>
		</defs>
		<clipPath id="SVGID_180_">
			<use xlink:href="#SVGID_179_"  overflow="visible"/>
		</clipPath>
		<path clip-path="url(#SVGID_180_)" fill="#FFFFFF" d="M684.629,292.021c0,0.553-0.449,1-1,1c-0.556,0-1.002-0.447-1.002-1
			c0-0.552,0.446-1,1.002-1C684.18,291.021,684.629,291.471,684.629,292.021"/>
	</g>
	<g>
		<defs>
			<rect id="SVGID_181_" x="-1" width="960" height="560"/>
		</defs>
		<clipPath id="SVGID_182_">
			<use xlink:href="#SVGID_181_"  overflow="visible"/>
		</clipPath>
		<path clip-path="url(#SVGID_182_)" fill="#FFFFFF" d="M684.629,294.021c0,0.553-0.449,1-1,1c-0.556,0-1.002-0.447-1.002-1
			c0-0.552,0.446-1,1.002-1C684.18,293.021,684.629,293.471,684.629,294.021"/>
	</g>
</g>
</svg>
