<?xml version="1.0" encoding="UTF-8" standalone="no"?>
<!-- Created with Inkscape (http://www.inkscape.org/) -->

<svg xmlns:dc="http://purl.org/dc/elements/1.1/" xmlns:cc="http://creativecommons.org/ns#" xmlns:rdf="http://www.w3.org/1999/02/22-rdf-syntax-ns#" xmlns:svg="http://www.w3.org/2000/svg" xmlns="http://www.w3.org/2000/svg" version="1.1" width="370.09375" height="280.83438" id="svg3217" xml:space="preserve"><metadata id="metadata3223"><rdf:RDF><cc:Work rdf:about=""><dc:format>image/svg+xml</dc:format><dc:type rdf:resource="http://purl.org/dc/dcmitype/StillImage" /><dc:title></dc:title></cc:Work></rdf:RDF></metadata><defs id="defs3221"><clipPath id="clipPath3231"><path d="M 0,304 336,304 336,0 0,0 0,304 z" id="path3233" /></clipPath><clipPath id="clipPath3319"><path d="m 242.41,254.002 47.352,0 0,-85.082 -47.352,0 0,85.082 z" id="path3321" /></clipPath><clipPath id="clipPath3367"><path d="M 0,304 336,304 336,0 0,0 0,304 z" id="path3369" /></clipPath><clipPath id="clipPath3379"><path d="M 0,304 336,304 336,0 0,0 0,304 z" id="path3381" /></clipPath></defs><g transform="matrix(1.25,0,0,-1.25,-23.03125,363.39688)" id="g3225"><path d="m 185.1152,269.5225 1.25,5.557 0.948,0.175 2.095,15.463 0.777,-0.105 -2.086,-15.427 0.866,-0.439 -0.299,-5.705 -3.551,0.481 z" id="path3245" style="fill:#3b58a5;fill-opacity:1;fill-rule:nonzero;stroke:none" /><path d="m 223.6875,44.46875 c -1.56302,0.03614 -2.97571,0.161211 -3.875,0.40625 l 0.0312,0.1875 c 0.825,4.05125 -0.40625,21.65625 -0.40625,21.65625 L 211.2187,125.875 c -1.0396,-0.008 -2.08129,-0.0312 -3.125,-0.0312 -11.68075,0 -23.10638,0.50998 -34.1875,1.46875 -0.0848,-8.99889 -0.1903,-19.29009 -0.375,-19.40625 l -3.78125,-7.125 c -0.13898,-0.2881 -0.31803,-0.46684 -0.59375,-0.5 l -0.46875,27.5 c -0.41631,0.0418 -0.83474,0.0819 -1.25,0.125 l 0.46875,-27.53125 c -0.14304,0.0118 -0.29434,0.0218 -0.4375,0.0312 -1.66,0.1075 -3.30875,0.2075 -4.96875,0.3125 -0.7875,0.05 -1.55875,0.1175 -2.34375,0.1875 -1.14625,0.10125 -2.29375,0.22625 -3.53125,0.34375 -0.1075,-1.99625 0.33625,-3.77375 1.09375,-5.4375 0.29875,-0.655 0.71125,-1.22875 1.03125,-1.875 0.655,-1.33 1.16375,-2.76375 1.9375,-4 0.89125,-1.42625 1.345,-2.965 1.59375,-4.625 0.10375,-0.68375 0.45625,-1.06875 1.09375,-1.0625 0.60375,0.0075 1.2125,0.0275 1.8125,0.09375 0.94375,0.105 1.38875,0.815 1,1.75 -0.5425,1.305 -0.785,2.7875 -1.78125,3.84375 -0.1675,0.1775 -0.26875,0.4625 -0.34375,0.71875 -0.2925,0.97375 -0.26125,0.94625 -1.21875,0.71875 -0.37125,-0.08875 -0.9425,-0.1175 -1.15625,0.125 -0.6225,0.71 -0.9625,1.645 -1,2.65625 -0.006,0.1225 0.1675,0.36 0.21875,0.34375 0.845,-0.255 1.76,-0.3725 2.5,-0.84375 C 164.13125,93.195 164.6275,92.3375 165.5,92 c 0.32375,-0.125 0.60875,-0.725 0.71875,-1.15625 0.46375,-1.80375 0.99875,-3.5375 1.96875,-5.09375 0.505,-0.81125 0.46125,-2.495 -0.15625,-3.1875 -0.10375,-0.11875 -0.2625,-0.19375 -0.40625,-0.25 -0.54625,-0.21375 -1.105,-0.4325 -1.65625,-0.625 -0.5075,-0.1775 -0.68125,-0.4725 -0.4375,-1.0625 0.4675,-1.12375 0.54875,-2.25875 -0.0625,-3.375 -0.0737,-0.1325 -0.0662,-0.3275 -0.0625,-0.5 0.04,-1.37625 0.14,-2.7475 0.125,-4.125 -0.005,-0.61375 0.17875,-1.00625 0.5625,-1.40625 0.5175,-0.54 0.9625,-1.16375 1.4375,-1.75 -0.055,-0.05625 -0.0987,-0.1325 -0.15625,-0.1875 -0.5975,0.655 -1.2025,1.3225 -1.875,2.0625 -0.19125,-2.24875 -1.135,-4.13125 -0.96875,-6.25 0.95125,0.0225 0.95875,0.08375 1.21875,0.9375 0.15375,0.505 0.435,0.965 0.75,1.375 0.47125,0.6125 0.7975,0.5475 1.15625,-0.125 0.0712,-0.13375 0.10625,-0.29125 0.125,-0.34375 0.41,0.04375 0.91625,0.2625 1.0625,0.09375 0.50875,-0.57625 0.90125,-1.26375 1.3125,-1.9375 0.0475,-0.0775 -0.0337,-0.28375 -0.0937,-0.40625 -0.39875,-0.8175 -0.8525,-1.635 -1.21875,-2.46875 -0.31125,-0.70375 -0.77,-1.36125 -0.40625,-2.25 0.0737,-0.18 -0.0863,-0.5425 -0.21875,-0.75 -0.16375,-0.25875 -0.49,-0.4175 -0.59375,-0.6875 -0.1075,-0.28625 -0.15,-0.81125 0,-0.96875 0.76125,-0.80625 0.69,-1.72375 0.40625,-2.9375 -0.4038,0.5425 -0.6888,0.9975 -1.0313,1.375 -0.1825,0.2025 -0.48125,0.2975 -0.71875,0.4375 -0.0137,-0.29125 -0.105,-0.6125 -0.0312,-0.875 0.11125,-0.4075 0.2275,-0.69875 -0.1875,-1 -0.32125,-0.2325 -0.55,-0.60375 -0.90625,-1 -0.55875,0.54625 -1.31125,1.10875 -1.65625,2.09375 -0.04,0.11 -0.18125,0.2425 -0.28125,0.25 -0.3675,0.03 -0.74375,0 -1.15625,0 -0.74625,0.56125 -1.52875,1.16 -2.3125,1.75 0.3625,0.665 -0.36625,0.57375 -0.65625,1 0.45875,-0.13 0.75875,-0.21375 1.21875,-0.34375 -0.67375,1.6425 -2.10625,1.42875 -3.28125,1.90625 0.2675,0.24625 0.4525,0.40375 0.625,0.5625 -0.9875,-0.12375 -1.3925,0.53375 -1.59375,1.40625 0.23375,-0.03875 0.48875,-0.0825 0.75,-0.125 l 0.0937,0.15625 c -0.4275,0.3825 -0.91625,0.66875 -1,1.375 -0.0488,0.41125 -0.36375,0.80125 -0.5625,1.1875 -0.065,0.12875 -0.225,0.22875 -0.21875,0.34375 0.0525,0.84625 -0.45375,0.98 -0.875,1.0625 -0.3725,-0.675 -0.74,-1.285 -1.0625,-1.90625 -0.0625,-0.11875 -0.085,-0.3325 -0.0312,-0.4375 0.61,-1.1875 1.2325,-2.36625 1.875,-3.53125 0.0575,-0.105 0.27375,-0.085 0.5,-0.15625 0.0637,-0.3125 0.16,-0.75 0.25,-1.1875 0.06,-0.03875 0.0962,-0.085 0.15625,-0.125 0.085,0.1375 0.19625,0.27 0.28125,0.40625 -0.0437,-0.285 -0.13875,-0.59625 -0.3125,-0.6875 -0.71875,-0.36875 -1.4525,-0.83125 -2.21875,-0.96875 -0.6675,-0.12125 -1.3925,0.17125 -2.09375,0.21875 -0.2425,0.01625 -0.65875,-0.08875 -0.6875,-0.21875 -0.16625,-0.775 -0.3275,-1.58625 -0.3125,-2.375 0.0125,-0.7075 -0.48625,-1.6175 -1.15625,-1.6875 -0.21312,-0.02188 -0.44078,-0.03078 -0.65625,-0.03125 -0.21547,-4.69e-4 -0.4125,0.0075 -0.625,0.03125 -1.22875,0.1375 -2.1225,1.45625 -1.9375,2.8125 0.0213,0.15625 -0.075,0.38 -0.1875,0.5 -0.44625,0.4775 -0.965,0.9 -1.375,1.40625 -0.6275,0.775 -1.2625,1.64875 -1.0625,2.75 0.11375,0.62625 0.055,1.13625 -0.125,1.6875 -0.25,0.76 -0.52125,1.515 -0.75,2.28125 -0.52,1.74375 -1.13875,3.44125 -1.21875,5.3125 -0.0375,0.86875 -0.66875,1.27 -1.4375,1.03125 -0.1075,-0.0325 -0.2775,-0.0075 -0.34375,0.0625 -0.68625,0.71 -1.5225,0.5375 -2.34375,0.5625 -2.1875,0.06625 -4.07375,0.96875 -5.625,2.65625 -0.46375,0.50625 -0.80875,0.96125 -1.5625,1.125 -1.74,0.375 -2.72,1.83375 -3.1875,3.625 -0.305,1.175 -0.26625,2.455 -0.90625,3.53125 -0.0512,0.08625 0.0187,0.26875 0.0312,0.40625 0.03,0.3175 0.16125,0.65 0.0937,0.9375 -0.175,0.72875 -0.41125,1.42125 -0.65625,2.125 -0.075,0.21625 -0.28875,0.39375 -0.40625,0.59375 -0.28375,0.4825 -0.55125,0.985 -0.84375,1.5 0.18625,0.015 0.3425,0.01375 0.5625,0.03125 -0.07,0.305 -0.13875,0.55375 -0.1875,0.8125 -0.145,0.76875 -0.4025,1.55125 -0.375,2.3125 0.0238,0.67375 0.0275,1.33125 -0.25,1.90625 -0.64875,1.34375 -0.0725,2.615 0.125,3.90625 0.0475,0.30125 0.13125,0.5825 0.21875,0.875 0.0438,0.14875 0.145,0.40125 0.21875,0.40625 0.82125,0.05375 0.675,0.63625 0.53125,1.1875 -0.1425,0.54125 -0.435,1.05125 -0.46875,1.59375 -0.0275,0.43125 0.11125,1.1425 0.375,1.28125 0.465,0.24875 0.44125,0.50125 0.375,1 -1.97125,0.13875 -3.94125,0.2925 -5.90625,0.4375 -0.49125,0.0362 -0.98375,0.075 -1.46875,0.15625 -0.12625,0.02 -0.26875,0.1525 -0.3125,0.28125 -0.4239,1.29374 -0.83543,24.15444 -1.25,32.4375 -8.96058,2.37061 -17.464105,5.08514 -25.40625,8.09375 L 77.46875,59.0625 c -5.038125,-1.97125 -11.008281,-2.489375 -15.71875,-2.5 -4.710469,-0.01062 -8.15625,0.5 -8.15625,0.5 0,0 -14.38625,2.47 -22.78125,9.3125 L 46.75,169.625 c -15.08397,12.42315 -23.71875,26.75841 -23.71875,42.03125 0,47.39 82.86375,85.78125 185.0625,85.78125 102.1975,0 185.03125,-38.39125 185.03125,-85.78125 0,-22.95843 -19.45811,-43.82273 -51.125,-59.21875 -0.0824,-0.57376 -0.16943,-1.14472 -0.25,-1.71875 -0.10875,-0.76875 0.16125,-1.63875 0.40625,-2.40625 0.39375,-1.23375 0.915,-2.415 1.375,-3.59375 -0.71125,-0.6575 -2.0675,-0.44125 -1.9375,-1.9375 0.3925,-4.52125 0.665,-9.04125 1.0625,-13.5625 0.0412,-0.45875 0.65125,-0.84125 0.90625,-1.3125 0.3375,-0.6175 1.005,-1.66875 0.8125,-1.875 -1.085,-1.17125 -0.79625,-2.40625 -0.53125,-3.6875 2.60375,-12.63625 6.72875,-24.8275 11.25,-36.875 1.0625,-2.83 1.69875,-5.8125 3.9375,-8.25 1.41125,-1.53875 1.7225,-3.98 0.4375,-6.15625 -0.12875,-0.215 -0.0625,-0.6075 0.0312,-0.875 0.8875,-2.53125 1.78125,-5.0675 2.6875,-7.59375 -0.0975,-0.03625 -0.185,-0.055 -0.28125,-0.09375 -0.9875,2.4375 -1.95375,4.8825 -2.96875,7.3125 -0.125,0.30125 -0.45125,0.7475 -0.6875,0.75 -2.25125,0.03375 -2.2775,2.27125 -3.40625,3.40625 -0.43375,0.4375 -0.465,1.3325 -0.59375,2.03125 -0.17125,0.935 -0.1425,1.90875 -0.40625,2.8125 -0.345,1.18625 -0.875,2.32 -1.34375,3.46875 -5.185,12.68375 -10.665,25.23125 -17.8125,36.96875 -0.48375,0.7925 -1.37875,1.72625 -2.1875,1.84375 -1.4575,0.21125 -1.37125,1.37625 -1.09375,1.875 0.53,0.95125 0.0675,1.46125 -0.375,2.03125 -2.37125,3.06 -4.77,6.0775 -7.15625,9.125 -0.995,1.27625 -1.93875,2.6975 -3.6875,1.34375 -0.98125,1.95875 -1.48125,4.24375 -2.875,5.5 -0.38971,0.35083 -0.79201,0.68692 -1.1875,1.03125 -1.26076,-0.42101 -2.52822,-0.84349 -3.8125,-1.25 l 7.75,-59.8125 c 0,0 3.45,-17.31375 5.3125,-21 l 0.0937,-0.15625 c -2.8525,-1.685 -12.3125,-3.49875 -12.78125,-3.53125 -2.29062,-0.146875 -5.75723,-0.452429 -8.9375,-0.4375 -1.90816,0.009 -3.72594,0.132031 -5.09375,0.5 l 0,0.1875 c 0.0113,0.665 1.06125,15.365 0.1875,23.71875 l -7.53125,54.8125 c -0.35589,-0.0833 -0.7053,-0.16777 -1.0625,-0.25 l 5.09375,-41.96875 -7.625,-0.9375 0.84375,-6.4375 C 280.88875,80.85 268.75,79.0625 268.75,79.0625 c 0,0 -3.82481,-0.471086 -8.6875,-0.5 -0.69467,-0.0041 -1.39537,0.01537 -2.125,0.03125 -3.50222,0.07625 -7.29969,0.4125 -10.53125,1.3125 l -0.96875,6.96875 -7.53125,-0.90625 -4.9375,40.75 c -0.35702,-0.0232 -0.70483,-0.0715 -1.0625,-0.0937 l 7.1875,-54.96875 c 1.3325,-8.1913 6.145,-22.1213 6.40625,-22.8438 l 0.0625,-0.1875 c -3.26,-1.9125 -9.925,-2.93375 -13.5,-3.75 -0.29531,-0.06484 -4.155,-0.387915 -7.78125,-0.40625 -0.54394,-0.0027 -1.07274,-0.01205 -1.59375,0 z m 3.59375,4.1875 3.03125,0.40625 -2.78125,21.34375 -3,-0.40625 2.75,-21.34375 z m 6.5625,1.65625 3.03125,0.375 -2.75,21.34375 -3.03125,-0.375 2.75,-21.34375 z m 72.25,8.21875 3.03125,0.375 -2.75,21.34375 -3.03125,-0.375 2.75,-21.34375 z m -153.1875,0.15625 c 0.38625,-0.1225 0.9775,0.255 1.375,0.5625 0.145,0.1125 0.13,0.7425 0,1.03125 -0.485,1.075 -1.05125,2.1125 -1.59375,3.15625 -0.0437,0.085 -0.17375,0.09 -0.5,0.28125 0,-0.76875 0.005,-1.33 -0.0312,-1.90625 -0.0137,-0.23875 -0.11875,-0.49375 -0.25,-0.6875 -0.25125,-0.3775 -0.5525,-0.7325 -0.9375,-1.21875 0.64875,-0.43 1.2475,-0.9975 1.9375,-1.21875 z m 161.40625,1.46875 3.03125,0.40625 -2.78125,21.34375 -3,-0.40625 2.75,-21.34375 z m -57.15625,24.6875 4.875,0.625 -4.46875,34.59375 -4.875,-0.625 4.46875,-34.59375 z m -99.75,0.5 c 0.1,0.0088 0.2375,0.4425 0.25,0.6875 0.0613,1.14 -0.15125,2.20875 -0.53125,3.4375 -0.50875,-0.6575 -0.7425,-1.10625 -0.59375,-1.8125 0.0875,-0.41375 -0.11875,-0.91625 -0.15625,-1.375 -0.0225,-0.25 -0.03,-0.6425 0.0937,-0.71875 0.2725,-0.17 0.62125,-0.24625 0.9375,-0.21875 z M 143.3125,85.75 c 0.0919,-0.01545 0.21438,0.0081 0.375,0.0625 2.18125,0.7425 4.41625,1.04125 6.6875,0.8125 1.28125,-0.13 2.54125,-0.4525 3.8125,-0.6875 0.165,1.0375 0.3675,2.01125 0.46875,3 0.0312,0.305 -0.19,0.64375 -0.28125,0.96875 -0.18375,0.6625 0.0737,0.9375 0.6875,0.96875 0.6025,0.03125 1.19,0.19125 1.84375,0.3125 -0.78,3.52875 -1.5175,6.87375 -2.25,10.1875 -1.31125,0.13875 -2.52125,0.28375 -3.71875,0.40625 -1.4675,0.15 -2.93625,0.31 -4.40625,0.4375 -0.92125,0.0812 -1.8275,0.0863 -2.75,0.15625 -0.85375,0.065 -1.70875,0.1925 -2.5625,0.25 -0.2,0.0125 -0.4225,-0.12625 -0.625,-0.1875 0.055,-0.1825 0.1575,-0.34875 0.15625,-0.53125 -0.002,-0.3275 -0.0263,-0.68 -0.0937,-1 -0.10375,-0.49625 -0.325,-0.9675 -0.375,-1.46875 -0.085,-0.8775 -0.37,-1.47125 -1.125,-1.90625 -0.9025,-0.5225 -1.745,-1.1975 -2.5625,-1.875 -0.73625,-0.61 -0.7675,-1.1525 -0.0937,-1.90625 0.38625,-0.4325 0.85125,-0.835 1.34375,-1.09375 0.995,-0.51875 1.77375,-1.27375 2.46875,-2.1875 0.715,-0.94125 1.48875,-1.825 2.1875,-2.78125 0.23625,-0.3225 0.3375,-0.79875 0.4375,-1.21875 0.0797,-0.336563 0.0993,-0.672402 0.375,-0.71875 z m 128.625,0.71875 4.875,0.625 -4.46875,34.625 -4.875,-0.625 4.46875,-34.625 z m -138,0.1875 c 0.13844,-0.01812 0.29188,0.09125 0.46875,0.3125 0.44125,0.55625 0.90625,1.06375 1.34375,1.625 0.44875,0.5725 0.46375,1.09125 -0.125,1.84375 -0.78125,0.99625 -1.6175,1.92625 -2.5,2.8125 -0.66375,0.6675 -0.66875,1.67625 0.0937,2.21875 1.23625,0.88125 2.485,1.755 3.6875,2.6875 0.47875,0.37125 0.905,0.87125 1.28125,1.375 0.19875,0.2675 0.24625,0.66875 0.375,1 -0.20391,0.30387 -0.415,0.61781 -0.4375,0.9375 -0.03,0.41 0.30875,0.84375 0.5,1.3125 -1.36125,0.1475 -2.725,0.31875 -4.09375,0.4375 -2.16375,0.1875 -4.33125,0.37 -6.5,0.5 -1.0525,0.0637 -1.60375,-0.96875 -1.625,-2.125 -0.0288,-1.5825 0.40875,-3.01 0.71875,-4.5 0.2825,-1.36375 1.19625,-2.2675 1.78125,-3.40625 0.20875,-0.40875 0.40875,-0.80875 0.6875,-1.15625 0.94875,-1.18125 1.955,-2.2925 2.875,-3.5 0.43625,-0.575 0.76875,-1.30125 1.09375,-1.96875 0.12937,-0.26625 0.23656,-0.388125 0.375,-0.40625 z m 200.34375,43.28125 c 0.10893,-0.004 0.19594,0.009 0.28125,0.0312 2.85,0.7475 2.8725,0.83375 2.40625,3.75 -0.40375,2.53125 -0.77625,5.0475 -1.1875,7.71875 -2.70375,-1.0575 -5.24625,-2.04625 -7.84375,-3.0625 1.8575,-2.77125 3.6525,-5.4725 5.5,-8.125 0.12937,-0.18844 0.51697,-0.30072 0.84375,-0.3125 z M 191.625,137 l 17.34375,0 -1.875,13.625 -8.6875,0 c -3.1225,0 -5.41375,0.48625 -6.875,1.46875 -1.4625,0.9825 -2.34375,2.60625 -2.65625,4.875 l -0.78125,5.625 17.34375,0 -1.9375,14.09375 -17.34375,0 -7.78125,56.53125 -18.9375,0 7.78125,-56.53125 -13.15625,0 1.9375,-14.09375 13.15625,0 1,-7.25 c 0.9925,-7.20125 2.9825,-12.05375 5.9375,-14.5625 C 179.05,138.2725 184.2225,137 191.625,137 z m -110.75,25.59375 37.46875,0 c 9.45375,0 16.2875,2.2275 20.46875,6.65625 4.18125,4.43 5.67125,10.9925 4.46875,19.71875 l -6.125,44.25 -49.15625,0 c -6.88875,0 -11.9425,-1.74625 -15.15625,-5.28125 -3.21375,-3.53625 -4.365,-8.55875 -3.46875,-15.0625 1.105,-8.02625 4.0425,-13.78875 8.78125,-17.28125 4.7375,-3.49 12.055,-5.25 21.9375,-5.25 l 24.0625,0 0.21875,-1.75 c 0.57625,-4.18875 -0.22375,-7.1425 -2.40625,-8.84375 -2.1825,-1.7025 -6.35875,-2.5625 -12.5625,-2.5625 l -30.5625,0 2.03125,-14.59375 z m 133.03125,0 18.21875,0 -5.96875,43.28125 c -0.6475,4.71125 -0.2625,7.8375 1.125,9.40625 1.3875,1.5725 4.4575,2.375 9.25,2.375 l 14.71875,0 7.5625,-55.0625 18.3125,0 -9.75,70.625 -34.46875,0 c -10.14,0 -17.1775,-2.0225 -21.125,-6.125 -3.94875,-4.1025 -5.3075,-10.68625 -4.0625,-19.71875 l 6.1875,-44.78125 z m 79.75,0 35.25,0 c 10.61125,0 18.43,3.1925 23.5,9.5625 5.06625,6.3725 6.81875,15.2675 5.25,26.65625 -0.645,4.67125 -1.8475,8.93875 -3.625,12.84375 -1.78,3.905 -4.15625,7.49125 -7.125,10.71875 -3.53125,3.88625 -7.51375,6.66375 -11.9375,8.34375 -4.425,1.68 -10.10125,2.5 -17.03125,2.5 l -15.71875,0 -3.53125,25.59375 -18.28125,0 13.25,-96.21875 z m 16.1875,15.25 -5.53125,40.28125 11.15625,0 c 7.40125,0 12.85625,-1.59375 16.375,-4.78125 3.52,-3.185 5.78875,-8.4875 6.8125,-15.90625 0.985,-7.15625 0.29375,-12.21125 -2.125,-15.15625 -2.42,-2.94625 -7.12,-4.4375 -14.09375,-4.4375 l -12.59375,0 z m -209.0625,26.59375 c -4.27875,0 -7.30625,0.5725 -9.09375,1.75 -1.78875,1.18 -2.91,3.2325 -3.3125,6.15625 -0.3425,2.48625 0.08,4.2375 1.25,5.21875 1.17,0.9825 3.75875,1.46875 7.78125,1.46875 l 22.90625,0 2.03125,-14.59375 -21.5625,0 z m 49.84375,33.25 8.375,0 -3.28125,23.9375 c -0.32875,2.385 -0.4475,4.0625 -0.375,5.03125 0.0762,0.97 0.3225,1.75 0.75,2.34375 0.66375,0.96 1.52125,1.655 2.625,2.0625 1.10375,0.4075 2.70125,0.59375 4.75,0.59375 l 9.875,0 -0.9375,6.78125 -10.625,0 c -3.7325,0 -6.46375,-0.33125 -8.1875,-0.96875 -1.72375,-0.63625 -3.1925,-1.74125 -4.40625,-3.3125 -1.13,-1.405 -1.82625,-2.97625 -2.125,-4.75 -0.3,-1.77375 -0.225,-4.28625 0.21875,-7.5 L 150.625,237.6875 z M 226.46875,248 c 4.71,0 8.29,1.40125 10.71875,4.21875 2.42875,2.8175 3.33375,6.5875 2.6875,11.28125 -0.6475,4.69625 -2.565,8.42 -5.75,11.21875 -3.1875,2.80125 -7.16,4.21875 -11.90625,4.21875 -4.7475,0 -8.3425,-1.41 -10.78125,-4.21875 -2.44,-2.81 -3.3325,-6.54375 -2.6875,-11.21875 0.64625,-4.69375 2.56625,-8.46375 5.78125,-11.28125 3.215,-2.8175 7.19,-4.21875 11.9375,-4.21875 z m -47.4375,0.53125 7.6875,0 -2.46875,17.8125 c -0.31,2.255 -0.18875,3.73625 0.375,4.4375 0.565,0.70375 1.89875,1.0625 4,1.0625 l 6.21875,0 3.21875,-23.3125 7.75,0 -4,29.09375 c -0.545,3.955 -1.86375,6.87875 -3.9375,8.78125 -2.07625,1.90375 -4.98625,2.875 -8.71875,2.875 l -15.1875,0 0.84375,-6.09375 13.84375,0 c 1.48625,0 2.69625,-0.36375 3.59375,-1.09375 0.8975,-0.73 1.43375,-1.77 1.625,-3.15625 l 0.0625,-0.5 -6.84375,0 c -4.38375,0 -7.37625,-0.8925 -9,-2.65625 -1.62125,-1.765 -2.16125,-4.7225 -1.59375,-8.84375 l 2.53125,-18.40625 z m 67.625,0 14.5625,0 c 4.4025,0 7.4425,0.84 9.09375,2.53125 1.65125,1.69125 2.1975,4.48875 1.65625,8.40625 l -2.59375,18.96875 -7.75,0 2.46875,-18 c 0.3075,-2.23625 0.18125,-3.6775 -0.40625,-4.34375 -0.5875,-0.665 -1.92,-1 -3.96875,-1 l -6.21875,0 -3.21875,23.34375 -7.75,0 4.125,-29.90625 z m -21.125,5.9375 c -2.32,0 -4.25,0.8175 -5.78125,2.40625 -1.5325,1.58875 -2.48625,3.7975 -2.875,6.625 -0.3925,2.84625 -0.0538,5.0375 1.03125,6.625 1.085,1.59125 2.82,2.40625 5.15625,2.40625 2.32,0 4.24,-0.815 5.78125,-2.40625 1.54125,-1.5875 2.5125,-3.77875 2.90625,-6.625 0.39,-2.84375 0.0325,-5.075 -1.0625,-6.65625 -1.09625,-1.57875 -2.8175,-2.375 -5.15625,-2.375 z" transform="matrix(0.8,0,0,-0.8,0,304)" id="path3249" style="fill:#3b58a5;fill-opacity:1;fill-rule:nonzero;stroke:none" /><path d="m 268.65625,54.84375 c 0,0 0.2,5.02875 1.15625,5.6875 L 269.4375,66.9375 269.28125,68 c -6.16779,2.652696 -17.375,7.6875 -17.375,7.6875 0,0 6.35375,-1.4475 16.6875,0 10.01372,1.557215 15.5625,4.5 15.5625,4.5 0,0 -9.16375,-7.94625 -14.3125,-12.21875 L 271.25,60.6875 c 1.10625,-0.36875 2.75,-5.21875 2.75,-5.21875 0,0 -1.1875,2.8725 -3.3125,3.21875 -1.71186,-1.066095 -2.03125,-3.84375 -2.03125,-3.84375 z" transform="matrix(0.8,0,0,-0.8,0,304)" id="path3253" style="fill:#3b58a5;fill-opacity:1;fill-rule:nonzero;stroke:none" /><path d="m 248.2607,260.3994 1.251,5.558 0.948,0.175 2.092,15.462 0.776,-0.105 -2.088,-15.429 0.868,-0.437 -0.298,-5.704 -3.549,0.48 z" id="path3273" style="fill:#3b58a5;fill-opacity:1;fill-rule:nonzero;stroke:none" /><path d="M 49.96875,40.25 C 44.3375,46.51875 34.0625,58.375 34.0625,58.375 c 0,0 6.325,-4.55875 18.0625,-6.3125 11.428754,-1.460568 18.5625,0.84375 18.5625,0.84375 0,0 -13.495,-8.23125 -20.71875,-12.65625 z" transform="matrix(0.8,0,0,-0.8,0,304)" id="path3289" style="fill:#3b58a5;fill-opacity:1;fill-rule:nonzero;stroke:none" /></g></svg>