<?xml version="1.0" encoding="utf-8"?>
<!-- Generator: Adobe Illustrator 12.0.0, SVG Export Plug-In . SVG Version: 6.00 Build 51448)  -->
<!DOCTYPE svg PUBLIC "-//W3C//DTD SVG 1.1//EN" "http://www.w3.org/Graphics/SVG/1.1/DTD/svg11.dtd" [
	<!ENTITY ns_svg "http://www.w3.org/2000/svg">
	<!ENTITY ns_xlink "http://www.w3.org/1999/xlink">
]>
<svg  version="1.1" id="Calque_1" xmlns="&ns_svg;" xmlns:xlink="&ns_xlink;" width="712.485" height="338.268"
	 viewBox="0 0 712.485 338.268" overflow="visible" enable-background="new 0 0 712.485 338.268" xml:space="preserve">
<path fill="#557EBA" d="M174.614,208.163l4.944-28.039h-42.247c-8.383,0-14.366,1.132-17.95,3.396
	c-3.585,2.263-5.871,6.204-6.861,11.819c-0.843,4.777-0.153,8.109,2.072,9.996c2.223,1.886,7.275,2.828,15.155,2.828H174.614z
	 M604.412,166.671c2.424-13.747,1.369-23.45-3.166-29.108c-4.534-5.658-13.635-8.487-27.296-8.487h-24.644l-13.636,77.327h21.879
	c14.5,0,25.309-3.059,32.423-9.179C597.085,191.106,601.899,180.922,604.412,166.671 M641.541,169.311
	c-1.582,8.97-4.25,17.206-8.002,24.707c-3.756,7.503-8.65,14.354-14.689,20.558c-7.185,7.461-15.167,12.806-23.95,16.031
	c-8.785,3.229-19.965,4.84-33.545,4.84h-30.805l-8.668,49.163h-35.834l32.59-184.83h69.027c20.788,0,35.929,6.12,45.424,18.357
	C642.579,130.377,645.399,147.433,641.541,169.311 M486.403,99.78l-23.922,135.667h-67.52c-19.865,0-33.526-3.938-40.979-11.818
	c-7.456-7.879-9.651-20.494-6.592-37.847l15.165-86.002h35.708l-14.654,83.11c-1.597,9.053-1.089,15.089,1.522,18.106
	c2.61,3.019,8.609,4.527,17.998,4.527h28.793L450.569,99.78H486.403z M353.131,50.618l-4.611,26.153h-16.974
	c-6.12,0-10.646,0.943-13.576,2.829c-2.931,1.886-4.781,5.009-5.549,9.367l-1.907,10.813h33.949l-4.767,27.033h-33.948
	l-19.156,108.634h-37.091l19.155-108.634H242.88l4.767-27.033h25.776l2.46-13.957c2.439-13.83,6.639-23.154,12.603-27.975
	c5.962-4.82,16.194-7.23,30.697-7.23H353.131z M221.631,150.451l-14.988,84.996h-96.312c-13.497,0-23.271-3.394-29.324-10.184
	c-6.054-6.79-7.979-16.428-5.776-28.919c2.719-15.422,8.839-26.487,18.363-33.194c9.522-6.705,23.966-10.059,43.329-10.059h47.15
	l0.599-3.394c1.419-8.047,0.047-13.705-4.111-16.975c-4.16-3.269-12.318-4.903-24.471-4.903H99.075l4.944-28.039h70.594
	c18.525,0,31.731,4.255,39.62,12.762C222.119,121.051,224.587,133.687,221.631,150.451 M712.485,169.134
	C712.485,75.724,552.99,0,356.242,0C159.495,0,0,75.724,0,169.134c0,93.411,159.495,169.134,356.242,169.134
	C552.99,338.268,712.485,262.544,712.485,169.134"/>
</svg>
