<?xml version="1.0" encoding="UTF-8" standalone="no"?>
<!-- Generator: Adobe Illustrator 12.0.0, SVG Export Plug-In . SVG Version: 6.00 Build 51448)  -->

<svg
   xmlns:dc="http://purl.org/dc/elements/1.1/"
   xmlns:cc="http://creativecommons.org/ns#"
   xmlns:rdf="http://www.w3.org/1999/02/22-rdf-syntax-ns#"
   xmlns:svg="http://www.w3.org/2000/svg"
   xmlns="http://www.w3.org/2000/svg"
   xmlns:sodipodi="http://sodipodi.sourceforge.net/DTD/sodipodi-0.dtd"
   xmlns:inkscape="http://www.inkscape.org/namespaces/inkscape"
   version="1.1"
   id="Calque_1"
   width="712.485"
   height="338.268"
   viewBox="0 0 712.485 338.268"
   overflow="visible"
   enable-background="new 0 0 712.485 338.268"
   xml:space="preserve"
   inkscape:version="0.48.2 r9819"
   sodipodi:docname="www.afup.org.svg"><metadata
   id="metadata3074"><rdf:RDF><cc:Work
       rdf:about=""><dc:format>image/svg+xml</dc:format><dc:type
         rdf:resource="http://purl.org/dc/dcmitype/StillImage" /><dc:title></dc:title></cc:Work></rdf:RDF></metadata><defs
   id="defs3072" /><sodipodi:namedview
   pagecolor="#ffffff"
   bordercolor="#666666"
   borderopacity="1"
   objecttolerance="10"
   gridtolerance="10"
   guidetolerance="10"
   inkscape:pageopacity="0"
   inkscape:pageshadow="2"
   inkscape:window-width="1436"
   inkscape:window-height="856"
   id="namedview3070"
   showgrid="false"
   inkscape:zoom="0.2628337"
   inkscape:cx="501.04731"
   inkscape:cy="-36.480516"
   inkscape:window-x="4"
   inkscape:window-y="0"
   inkscape:window-maximized="1"
   inkscape:current-layer="Calque_1"
   inkscape:snap-global="true"
   showguides="true"
   inkscape:guide-bbox="true" />

<g
   id="g3950"
   transform="translate(-54.880005,-5.3392)"
   inkscape:export-filename="/Users/woecifaun/Desktop/PHP Tour Lyon/www.afup.org.png"
   inkscape:export-xdpi="21.74"
   inkscape:export-ydpi="21.74"><path
     style="fill:#557eba"
     inkscape:connector-curvature="0"
     d="m 386.83553,187.16335 1.60752,-9.11679 h -13.73647 c -2.72571,0 -4.67106,0.36807 -5.83639,1.1042 -1.16565,0.73581 -1.90894,2.01722 -2.23083,3.84292 -0.2741,1.55322 -0.0497,2.63661 0.6737,3.25015 0.72281,0.61323 2.36544,0.91952 4.9276,0.91952 h 14.59487 z m 139.74745,-13.49099 c 0.78816,-4.46979 0.44513,-7.62468 -1.02941,-9.46437 -1.47421,-1.83968 -4.43338,-2.75952 -8.87521,-2.75952 h -8.01292 l -4.4337,25.14262 h 7.11389 c 4.71463,0 8.22914,-0.99462 10.54223,-2.98451 2.31278,-1.98925 3.87803,-5.30055 4.69512,-9.93422 m 12.0724,0.85839 c -0.5144,2.91657 -1.38189,5.59448 -2.60185,8.03341 -1.22124,2.43957 -2.81251,4.66715 -4.77608,6.68436 -2.33617,2.42592 -4.9315,4.16383 -7.78726,5.21243 -2.85642,1.0499 -6.49156,1.57371 -10.90705,1.57371 h -10.01615 l -2.81838,15.98519 H 488.0973 l 10.59654,-60.09688 h 22.44391 c 6.75915,0 11.6822,1.9899 14.76947,5.96872 3.08566,3.9798 4.00258,9.5255 2.74816,16.63906 m -50.44265,-22.60778 -7.77816,44.11169 h -21.95391 c -6.45904,0 -10.90088,-1.28043 -13.3242,-3.84259 -2.42429,-2.56183 -3.13799,-6.66356 -2.14336,-12.30582 l 4.93085,-27.96328 h 11.61034 l -4.7647,27.02295 c -0.51926,2.94355 -0.35409,4.90614 0.49487,5.88711 0.84864,0.98161 2.79919,1.47194 5.852,1.47194 h 9.36194 l 6.06302,-34.382 h 11.65131 z m -43.33296,-15.98487 -1.49926,8.50357 h -5.51904 c -1.9899,0 -3.46151,0.30661 -4.41419,0.91984 -0.953,0.61323 -1.55453,1.62866 -1.80424,3.04564 l -0.62005,3.51582 h 11.0384 l -1.54998,8.78969 h -11.03808 l -6.22851,35.322 h -12.06003 l 6.2282,-35.322 H 409.032 l 1.54998,-8.78969 h 8.38098 l 0.79986,-4.53808 c 0.79303,-4.49677 2.15865,-7.52844 4.09783,-9.09598 1.93852,-1.5672 5.26543,-2.35081 9.98103,-2.35081 h 11.03809 z m -42.75682,32.46039 -4.8733,27.63617 h -31.31554 c -4.3885,0 -7.56649,-1.10355 -9.5346,-3.3113 -1.96843,-2.20775 -2.59435,-5.34151 -1.87805,-9.40291 0.88407,-5.01442 2.87397,-8.61216 5.97067,-10.79292 3.09605,-2.18012 7.79247,-3.27066 14.08829,-3.27066 h 15.33067 l 0.19476,-1.10355 c 0.46138,-2.61645 0.0153,-4.45613 -1.33667,-5.51936 -1.35261,-1.06291 -4.00516,-1.5942 -7.95667,-1.5942 h -18.53825 l 1.60753,-9.11679 h 22.95341 c 6.02335,0 10.31724,1.3835 12.88232,4.14953 2.56411,2.76667 3.36657,6.87522 2.40543,12.32599 m 159.59964,6.07471 c 0,-30.37196 -51.85931,-54.99338 -115.8313,-54.99338 -63.97166,0 -115.83095,24.62142 -115.83095,54.99338 0,30.37228 51.85929,54.99338 115.83095,54.99338 63.97199,0 115.8313,-24.62142 115.8313,-54.99338"
     id="path3076" /><g
     transform="matrix(0.32514683,0,-0.05733193,0.32514683,339.64491,119.56766)"
     id="text3055"
     style="font-size:258.06539917px;font-style:normal;font-variant:normal;font-weight:bold;font-stretch:normal;line-height:125%;letter-spacing:0px;word-spacing:0px;fill:#557eba;fill-opacity:1;stroke:none;font-family:HandelGothic BT;-inkscape-font-specification:HandelGothic BT Bold"><path
       style="fill:#557eba;fill-opacity:1"
       sodipodi:nodetypes="cccccccccccccc"
       inkscape:connector-curvature="0"
       id="path3926"
       d="m -601.98169,142.07231 -28.35191,92.86826 -39.81868,0 -47.5052,-135.96317 37.67654,0 29.99002,95.13641 29.61199,-95.13641 38.18058,0 30.24204,95.13641 29.99002,-95.13641 36.92049,0 -45.9931,135.96317 -41.33079,0 -29.612,-92.86826" /><path
       style="fill:#557eba;fill-opacity:1"
       sodipodi:nodetypes="cccccccccccccc"
       inkscape:connector-curvature="0"
       id="path3928"
       d="m -376.67849,142.07231 -28.35191,92.86826 -39.81869,0 -47.5052,-135.96317 37.67654,0 29.99002,95.13641 29.612,-95.13641 38.18057,0 30.24204,95.13641 29.99002,-95.13641 36.92049,0 -45.9931,135.96317 -41.33079,0 -29.61199,-92.86826" /><path
       style="fill:#557eba;fill-opacity:1"
       sodipodi:nodetypes="cccccccccccccc"
       inkscape:connector-curvature="0"
       id="path3930"
       d="m -151.3753,142.07231 -28.35191,92.86826 -39.81869,0 -47.5052,-135.96317 37.67654,0 29.99002,95.13641 29.612,-95.13641 38.18057,0 30.24204,95.13641 29.990022,-95.13641 36.920489,0 -45.9931,135.96317 -41.330791,0 -29.61199,-92.86826" /><path
       style="fill:#557eba;fill-opacity:1"
       sodipodi:nodetypes="ccccc"
       inkscape:connector-curvature="0"
       id="path3932"
       d="m -44.394054,202.68239 30.99809,0 0,32.25818 -30.99809,0 0,-32.25818" /><path
       style="fill:#557eba;fill-opacity:1"
       sodipodi:nodetypes="ccccc"
       inkscape:connector-curvature="0"
       id="path3942"
       d="m 729.1444,202.68239 30.99809,0 0,32.25818 -30.99809,0 0,-32.25818" /><path
       style="fill:#557eba;fill-opacity:1"
       sodipodi:nodetypes="ccsscccccccssscccc"
       inkscape:connector-curvature="0"
       id="path3944"
       d="m 814.57807,167.02199 c -4e-5,12.93693 3.02416,23.01759 9.07261,30.24204 6.04835,7.22451 14.49091,10.83675 25.32771,10.83673 10.75264,2e-5 19.1952,-3.61222 25.32771,-10.83673 6.1323,-7.22445 9.19851,-17.30511 9.19862,-30.24204 -1.1e-4,-12.93679 -3.06632,-22.97546 -9.19862,-30.11603 -6.04851,-7.22438 -14.49107,-10.83662 -25.32771,-10.83673 -10.75279,1.1e-4 -19.19535,3.61235 -25.32771,10.83673 -6.04845,7.22458 -9.07265,17.26324 -9.07261,30.11603 m 106.60319,0 c -1.5e-4,21.33748 -6.51058,38.39062 -19.53132,51.15945 -12.93699,12.68486 -30.41015,19.02728 -52.41953,19.02728 -22.00954,0 -39.56671,-6.38443 -52.67155,-19.15329 -13.1049,-12.76883 -19.65734,-29.77996 -19.65733,-51.03344 -10e-6,-21.33735 6.55243,-38.39048 19.65733,-51.15945 13.10484,-12.85274 30.66201,-19.279163 52.67155,-19.279301 21.84137,1.38e-4 39.27253,6.426561 52.29352,19.279301 13.10474,12.76897 19.65718,29.8221 19.65733,51.15945" /><path
       style="fill:#557eba;fill-opacity:1"
       sodipodi:nodetypes="cscsccccccccc"
       inkscape:connector-curvature="0"
       id="path3946"
       d="m 943.23281,98.9774 60.35809,0 c 14.1128,0 23.9835,2.56231 29.612,7.68652 5.7123,5.04046 9.6666,14.13562 8.5686,26.58779 l 0,22.68153 -34.2744,0 0,-17.51518 c 0,-5.29226 -0.9661,-8.82049 -2.8981,-10.58471 -1.8482,-1.84802 -6.13254,-2.77208 -12.85292,-2.77219 l -12.60085,0 0,109.87941 -35.91242,0 0,-135.96317" /><path
       style="fill:#557eba;fill-opacity:1"
       sodipodi:nodetypes="cccccccccccssccscccssccscccccc"
       inkscape:connector-curvature="0"
       id="path3948"
       d="m 1137.4119,206.84067 18.6492,0 0,-78.75531 -18.6492,0 c -8.9887,1.1e-4 -15.2891,0.33613 -18.9013,1.00807 -3.6123,0.67215 -6.7625,1.80623 -9.4506,3.40223 -5.5445,3.36033 -9.6187,7.81262 -12.2229,13.3569 -2.5202,5.46045 -3.7803,12.60093 -3.7802,21.42144 -10e-5,14.53304 3.2342,24.78172 9.7026,30.74608 6.4684,5.88043 18.0192,8.82062 34.6524,8.82059 m 54.8137,23.18557 c -2e-4,18.64924 -4.1584,32.34215 -12.4749,41.07877 -8.3166,8.73654 -21.2955,13.10488 -38.9366,13.10488 l -70.4387,0 0,-27.59586 64.2643,0 c 6.8884,0 12.1807,-1.68013 15.8771,-5.04034 3.6961,-3.27624 5.5442,-8.06455 5.5443,-14.36497 l 0,-2.26815 -29.2339,0 c -15.1211,0 -25.9998,-1.13408 -32.6362,-3.40223 -6.6365,-2.26815 -12.7689,-6.13241 -18.3973,-11.59278 -6.4684,-6.1324 -11.4668,-13.7769 -14.995,-22.93355 -3.4442,-9.15657 -5.1663,-19.06923 -5.1663,-29.73801 0,-10.50062 1.7221,-20.28728 5.1663,-29.35997 3.5282,-9.15652 8.5266,-16.80102 14.995,-22.93355 5.7964,-5.71226 12.6008,-9.78653 20.4134,-12.22282 7.8125,-2.52004 18.0192,-3.780124 30.6201,-3.78026 l 65.3984,0 0,131.04884" /></g></g></svg>