<svg width="728" height="90" xmlns="http://www.w3.org/2000/svg" xmlns:svg="http://www.w3.org/2000/svg">
 <defs>
  <style type="text/css">
   <![CDATA[
      .primary {
        fill: #012345;
      }
      .secondary {
        fill: #56789a;
      }
      .ternary {
        fill: #abcdef;
      }
    ]]>
  </style>
 </defs>
 <g id="layer1">
  <rect fill="black" class="primary" id="pt_fond" y="0" x="0.40296" ry="5" rx="5" height="90" width="728"/>
  <path class="secondary" id="pt_hexagon" d="m98.41407,67.50003l-38.97114,22.49997l-38.97115,-22.49997l0,-44.99995l38.97115,-22.50006l38.97114,22.50006l0,44.99995z"/>
  <g class="secondary" id="pt_phptour_ombre">
   <path id="path3535" d="m112.87956,61.77393l4.49905,0l2,-2l-2,-23.55548l8.08615,0l2,-2l-20.67136,-3.99237l-2,2l0,3.99237l8.08615,0l0,25.55548"/>
   <path id="path3537" d="m128.38339,47c0,3.37769 0.10133,5.66101 0.30399,6.84991c0.10808,0.63501 0.24319,1.16187 0.40532,1.58069c0.17564,0.4054 0.37154,0.83099 0.58771,1.27679c0.71608,1.36462 1.86447,2.56702 3.44524,3.60742c1.55373,1.08075 3.49249,1.64832 5.81635,1.70227c2.35086,-0.05396 4.30991,-0.62152 5.87715,-1.70227c1.55371,-1.04041 2.67511,-2.2428 3.36417,-3.60742c0.49988,-0.71613 0.84439,-1.66858 1.03357,-2.85748c0.17561,-1.1889 0.26344,-3.47223 0.26346,-6.84991c-0.00002,-3.4317 -0.0878,-5.72852 -0.26346,-6.8905c-0.18918,-1.16193 -0.53369,-2.10089 -1.03357,-2.81696c-0.68906,-1.36456 -1.81046,-2.58051 -3.36417,-3.64789c-1.56725,-1.08081 -3.52629,-1.63477 -5.87715,-1.6618c-2.32385,0.02698 -4.26262,0.58099 -5.81635,1.6618c-1.58076,1.06738 -2.72916,2.28333 -3.44524,3.64789c-0.44585,0.71606 -0.77686,1.65503 -0.99303,2.81696c-0.20265,1.16199 -0.30399,3.4588 -0.30399,6.8905l0,0m4.49905,0c0,-2.90479 0.10808,-4.88409 0.32425,-5.93799c0.18915,-0.99969 0.5742,-1.81714 1.15518,-2.45221c0.47285,-0.60791 1.09435,-1.11456 1.86446,-1.5199c0.75659,-0.39185 1.66182,-0.60126 2.71565,-0.6283c1.06734,0.02704 1.99283,0.23645 2.77646,0.6283c0.74307,0.40533 1.33754,0.91199 1.7834,1.5199c0.58095,0.63507 0.97951,1.45251 1.19571,2.45221c0.20264,1.05389 0.30397,3.0332 0.30399,5.93799c-0.00002,2.90479 -0.10135,4.87061 -0.30399,5.8974c-0.2162,1.02679 -0.61476,1.85773 -1.19571,2.49268c-0.44586,0.60803 -1.04033,1.10114 -1.7834,1.47943c-0.78363,0.44586 -1.70912,0.66876 -2.77646,0.66876c-1.05383,0 -1.95906,-0.2229 -2.71565,-0.66876c-0.77011,-0.3783 -1.3916,-0.8714 -1.86446,-1.47943c-0.58098,-0.63495 -0.96603,-1.46588 -1.15518,-2.49268c-0.21617,-1.02679 -0.32425,-2.99261 -0.32425,-5.8974l0,0"/>
   <path id="path3539" d="m155.64153,51.76251c0.02701,3.10748 1.05383,5.57318 3.08044,7.39709c1.98605,1.87799 4.45853,2.83051 7.41737,2.85748c3.01286,-0.02698 5.50558,-0.97949 7.47816,-2.85748c1.95901,-1.82391 2.96558,-4.28961 3.01964,-7.39709l-2.47881,-21.5365l-2,2l0,19.05011c-0.02701,2.01306 -0.5945,3.54657 -1.70235,4.6004c-1.13492,1.10791 -2.57381,1.6618 -4.31665,1.6618c-1.74289,0 -3.16829,-0.55389 -4.27614,-1.6618c-1.13492,-1.05383 -1.71588,-2.58734 -1.74289,-4.6004l-2.47879,-21.05011l-2,2l0,19.5365"/>
   <path id="path3541" d="m188.35121,36.21844l7.01205,0c1.43211,0 2.52649,0.30402 3.2831,0.91199c0.95924,0.68909 1.45238,1.80365 1.47942,3.34387c-0.00002,1.28351 -0.41209,2.36438 -1.23622,3.24261c-0.83769,0.94568 -2.09418,1.43207 -3.76949,1.45911l-6.76886,0l0,-8.95758m-4.47879,25.55548l4.47879,0l2,-2l-2,-10.62573l5.71503,0l6.10007,12.62573l5.32997,0l2,-2l-8.84991,-11.11212c3.75595,-1.44562 5.66096,-4.1748 5.71501,-8.1875c-0.0811,-2.72913 -1.06061,-4.83002 -2.93857,-6.30273c-1.55374,-1.297 -13.09146,-3.9455 -15.55038,-3.94556l-2,2l0,29.54791"/>
   <path id="path3543" d="m222.13533,61.77393l18.86768,0l2,-2l-16.38889,-2.2356l-2.47879,-27.31226l-2,2l0,29.54785"/>
   <path id="path3545" d="m246.53593,61.77393l4.21533,0l2,-2l-2,-10.15961l6.15453,-19.38824l-1.99998,2l-6.26221,13.11218l0,0l-9.00446,-15.11218l-2,2l8.89679,17.38824l0,12.15961"/>
   <path id="path3547" d="m261.57367,47c0,3.37769 0.10132,5.66101 0.30399,6.84991c0.10809,0.63501 0.24319,1.16187 0.40533,1.58069c0.17563,0.4054 0.37152,0.83099 0.58771,1.27679c0.71606,1.36462 1.86447,2.56702 3.44522,3.60742c1.55371,1.08075 3.49249,1.64832 5.81635,1.70227c2.35086,-0.05396 4.30991,-0.62152 5.87717,-1.70227c1.55371,-1.04041 2.67508,-2.2428 3.36414,-3.60742c0.49991,-0.71613 0.84442,-1.66858 1.03357,-2.85748c0.17563,-1.1889 0.26346,-3.47223 0.26349,-6.84991c-0.00003,-3.4317 -0.0878,-5.72852 -0.26349,-6.8905c-0.18915,-1.16193 -0.53366,-2.10089 -1.03357,-2.81696c-0.68906,-1.36456 -1.81042,-2.58051 -3.36414,-3.64789c-1.56726,-1.08081 -3.52631,-1.63477 -5.87717,-1.6618c-2.32385,0.02698 -4.26263,0.58099 -5.81635,1.6618c-1.58075,1.06738 -2.72916,2.28333 -3.44522,3.64789c-0.44586,0.71606 -0.77686,1.65503 -0.99304,2.81696c-0.20267,1.16199 -0.30399,3.4588 -0.30399,6.8905l0,0m4.49905,0c0,-2.90479 0.10809,-4.88409 0.32425,-5.93799c0.18915,-0.99969 0.57422,-1.81714 1.15518,-2.45221c0.47287,-0.60791 1.09436,-1.11456 1.86447,-1.5199c0.75659,-0.39185 1.6618,-0.60126 2.71564,-0.6283c1.06732,0.02704 1.99283,0.23645 2.77646,0.6283c0.74307,0.40533 1.33752,0.91199 1.78342,1.5199c0.58093,0.63507 0.97949,1.45251 1.19568,2.45221c0.20267,1.05389 0.30399,3.0332 0.30402,5.93799c-0.00003,2.90479 -0.10135,4.87061 -0.30402,5.8974c-0.21619,1.02679 -0.61475,1.85773 -1.19568,2.49268c-0.44589,0.60803 -1.04034,1.10114 -1.78342,1.47943c-0.78363,0.44586 -1.70914,0.66876 -2.77646,0.66876c-1.05383,0 -1.95905,-0.2229 -2.71564,-0.66876c-0.77011,-0.3783 -1.3916,-0.8714 -1.86447,-1.47943c-0.58096,-0.63495 -0.96603,-1.46588 -1.15518,-2.49268c-0.21616,-1.02679 -0.32425,-2.99261 -0.32425,-5.8974l0,0"/>
   <path id="path3549" d="m289.37897,61.77393l4.47879,0l2,-2l-2,-18.99561l13.43643,20.99561l4.2356,0l2,-2l-4.47879,-29.54785l-2,2l0,20.99554l-0.08112,0l-15.59091,-22.99554l-2,2l0,29.54785"/>
   <path id="path3551" d="m328.9389,61.77393l16.84106,0l2,-2l-13.28818,-2.2356l9.50476,-11.91638c1.18893,-1.51324 1.78342,-3.24261 1.78342,-5.18811c-0.02701,-2.43188 -0.84442,-4.43829 -2.45218,-6.01904c-1.58078,-1.59424 -3.64114,-2.40491 -6.18115,-2.43195c-2.26981,0.02704 -4.18155,0.82422 -5.73529,2.39142c-1.54022,1.60779 -2.36438,3.64117 -2.47244,6.10004l4.21533,0l2,-2c0.40616,-0.40619 -0.97995,-0.76965 -0.58139,-1.14124c0.77011,-0.74304 1.73611,-1.11456 2.89804,-1.11462c1.31055,0.02704 2.32385,0.45264 3.03992,1.27679c0.68903,0.82416 1.03357,1.79016 1.03357,2.89801c0,0.41888 -0.05411,0.86469 -0.16214,1.33759c-0.16214,0.49988 -0.46613,1.04028 -0.91196,1.62128l-11.53137,14.42944l0,3.99237"/>
   <path id="path3553" d="m363.14828,53.26221c-0.08112,2.98578 -1.46591,4.49231 -4.15454,4.51929c-2.70215,-0.02698 -4.08023,-1.53351 -4.13428,-4.51929l0,-12.52441c0.05402,-2.95886 1.43213,-4.46527 4.13428,-4.51935c2.68863,0.05408 4.07346,1.56049 4.15454,4.51935l0,12.52441m-12.52441,0.24323c0.02701,2.71558 0.89847,4.80975 2.61432,6.28235c1.60776,1.45923 3.52628,2.20233 5.75555,2.22931c2.29681,-0.02698 4.24908,-0.77008 5.85687,-2.22931c1.6348,-1.4726 2.47922,-3.56677 2.53326,-6.28235l0,-13.03113c-0.05408,-2.72913 -0.89847,-4.83002 -2.53326,-6.30273c-1.60779,-1.45911 -3.56006,-2.18872 -5.85687,-2.18872c-2.22928,0 -4.1478,0.72961 -5.75555,2.18872c-1.71585,1.47272 -2.58731,3.57361 -2.61432,6.30273l0,13.03113"/>
   <path id="path3555" d="m378.53052,36.70483l0,25.06909l4.2356,0l2,-2l-2,-27.54785l-6.43066,1.06012l-2,2l0,4.49915l0,0l4.19507,-3.08051l0,0"/>
   <path id="path3557" d="m392.43332,57.37622l12.32175,0l0,4.39771l4.2356,0l2,-2l-2,-2.39771l2.35086,0l2,-2l-4.35086,-1.99243l-2.2356,-10.49146l-2,2l0,8.49146l-7.72134,0l7.26917,-23.15771l-2,2l-9.86957,21.15771l0,3.99243"/>
  </g>
  <g class="ternary" id="pt_phptour">
   <path id="path3498" d="m28.18146,34.46167l6.46487,0c1.21594,-0.02698 2.28329,0.24994 3.20203,0.83093c0.60796,0.35126 1.08084,0.83093 1.41862,1.43884c0.32424,0.6756 0.48637,1.50647 0.48639,2.49268c-0.00002,1.18903 -0.39859,2.2699 -1.1957,3.24261c-0.83768,0.99982 -2.08742,1.51318 -3.74922,1.54022l-6.62699,0l0,-9.54529m-4.47879,25.31226l4.47879,0l0,-11.53137l6.80939,0c3.03989,-0.05402 5.35021,-1.02679 6.93098,-2.91833c1.5402,-1.79688 2.31031,-3.78967 2.31033,-5.97845c-0.00002,-1.62122 -0.30401,-3.02637 -0.91197,-4.21533c-0.58098,-1.22943 -1.33758,-2.17517 -2.2698,-2.83722c-1.10789,-0.87817 -2.20226,-1.45911 -3.28309,-1.74286c-1.08088,-0.21619 -2.20226,-0.32428 -3.36417,-0.32428l-10.70046,0l0,29.54785"/>
   <path id="path3500" d="m64.51846,59.77393l4.4788,0l0,-29.54785l-4.4788,0l0,12.66626l-11.6935,0l0,-12.66626l-4.47879,0l0,29.54785l4.47879,0l0,-12.90948l11.6935,0l0,12.90948"/>
   <path id="path3502" d="m79.73825,34.46167l6.46487,0c1.21594,-0.02698 2.28329,0.24994 3.20203,0.83093c0.60796,0.35126 1.08084,0.83093 1.41862,1.43884c0.32424,0.6756 0.48637,1.50647 0.48639,2.49268c-0.00002,1.18903 -0.39859,2.2699 -1.19569,3.24261c-0.83768,0.99982 -2.08743,1.51318 -3.74922,1.54022l-6.62699,0l0,-9.54529m-4.47879,25.31226l4.47879,0l0,-11.53137l6.80939,0c3.03989,-0.05402 5.35021,-1.02679 6.93098,-2.91833c1.5402,-1.79688 2.31031,-3.78967 2.31033,-5.97845c-0.00002,-1.62122 -0.30401,-3.02637 -0.91196,-4.21533c-0.58099,-1.22943 -1.33759,-2.17517 -2.26981,-2.83722c-1.10789,-0.87817 -2.20226,-1.45911 -3.28309,-1.74286c-1.08087,-0.21619 -2.20226,-0.32428 -3.36417,-0.32428l-10.70046,0l0,29.54785"/>
   <path id="path3504" d="m114.87956,59.77393l4.49905,0l0,-25.55548l8.08615,0l0,-3.99237l-20.67136,0l0,3.99237l8.08615,0l0,25.55548"/>
   <path id="path3506" d="m130.38339,45c0,3.37769 0.10133,5.66101 0.30399,6.84991c0.10808,0.63501 0.24319,1.16187 0.40532,1.58069c0.17564,0.4054 0.37154,0.83099 0.58771,1.27679c0.71608,1.36462 1.86447,2.56702 3.44524,3.60742c1.55373,1.08075 3.49249,1.64825 5.81635,1.70227c2.35086,-0.05402 4.30991,-0.62152 5.87715,-1.70227c1.55371,-1.04041 2.67511,-2.2428 3.36417,-3.60742c0.49988,-0.71613 0.84439,-1.66858 1.03357,-2.85748c0.17561,-1.1889 0.26344,-3.47223 0.26346,-6.84991c-0.00002,-3.4317 -0.0878,-5.72852 -0.26346,-6.8905c-0.18918,-1.16187 -0.53369,-2.10089 -1.03357,-2.81696c-0.68906,-1.36456 -1.81046,-2.58051 -3.36417,-3.64789c-1.56725,-1.08081 -3.52629,-1.63477 -5.87715,-1.6618c-2.32385,0.02698 -4.26262,0.58099 -5.81635,1.6618c-1.58076,1.06738 -2.72916,2.28333 -3.44524,3.64789c-0.44585,0.71606 -0.77686,1.65509 -0.99303,2.81696c-0.20265,1.16199 -0.30399,3.4588 -0.30399,6.8905l0,0m4.49905,0c0,-2.90479 0.10808,-4.88409 0.32425,-5.93799c0.18915,-0.99969 0.5742,-1.81714 1.15518,-2.45221c0.47285,-0.60791 1.09435,-1.11456 1.86446,-1.5199c0.75659,-0.39185 1.66182,-0.60126 2.71565,-0.6283c1.06734,0.02704 1.99283,0.23645 2.77646,0.6283c0.74307,0.40533 1.33754,0.91199 1.7834,1.5199c0.58095,0.63507 0.97951,1.45251 1.19571,2.45221c0.20264,1.05389 0.30397,3.0332 0.30399,5.93799c-0.00002,2.90479 -0.10135,4.87061 -0.30399,5.8974c-0.2162,1.02679 -0.61476,1.85773 -1.19571,2.49268c-0.44586,0.60803 -1.04033,1.10114 -1.7834,1.47943c-0.78363,0.44586 -1.70912,0.66876 -2.77646,0.66876c-1.05383,0 -1.95906,-0.2229 -2.71565,-0.66876c-0.77011,-0.3783 -1.3916,-0.8714 -1.86446,-1.47943c-0.58098,-0.63495 -0.96603,-1.46588 -1.15518,-2.49268c-0.21617,-1.02679 -0.32425,-2.99261 -0.32425,-5.8974l0,0"/>
   <path id="path3508" d="m157.64153,49.76251c0.02701,3.10748 1.05383,5.57318 3.08044,7.39709c1.98605,1.87799 4.45853,2.83051 7.41737,2.85748c3.01286,-0.02698 5.50558,-0.97949 7.47816,-2.85748c1.95901,-1.82391 2.96558,-4.28961 3.01964,-7.39709l0,-19.5365l-4.47879,0l0,19.05011c-0.02701,2.01306 -0.5945,3.54657 -1.70236,4.6004c-1.1349,1.10791 -2.57379,1.6618 -4.31665,1.6618c-1.74289,0 -3.16827,-0.55389 -4.27614,-1.6618c-1.1349,-1.05383 -1.71587,-2.58734 -1.74287,-4.6004l0,-19.05011l-4.47881,0l0,19.5365"/>
   <path id="path3510" d="m190.35121,34.21844l7.01205,0c1.43211,0 2.52649,0.30402 3.2831,0.91199c0.95924,0.68903 1.45238,1.80371 1.47942,3.34387c-0.00002,1.28351 -0.41209,2.36438 -1.23622,3.24261c-0.83769,0.94568 -2.09418,1.43207 -3.76949,1.45911l-6.76886,0l0,-8.95758m-4.47879,25.55548l4.47879,0l0,-12.62573l5.71503,0l6.10007,12.62573l5.32997,0l-6.84991,-13.11212c3.75595,-1.44562 5.66096,-4.1748 5.71501,-8.1875c-0.0811,-2.72913 -1.06061,-4.83002 -2.93857,-6.30273c-1.55374,-1.297 -3.56009,-1.9455 -6.01901,-1.94556l-11.53137,0l0,29.54791"/>
   <path id="path3512" d="m224.13533,59.77393l18.86768,0l0,-4.2356l-14.38889,0l0,-25.31226l-4.47879,0l0,29.54785"/>
   <path id="path3514" d="m248.53593,59.77393l4.21533,0l0,-12.15961l8.89677,-17.38824l-4.74225,0l-6.26219,13.11218l0,0l-6.26221,-13.11218l-4.74225,0l8.89679,17.38824l0,12.15961"/>
   <path id="path3516" d="m263.57367,45c0,3.37769 0.10132,5.66101 0.30399,6.84991c0.10809,0.63501 0.24319,1.16187 0.40533,1.58069c0.17563,0.4054 0.37152,0.83099 0.58771,1.27679c0.71606,1.36462 1.86447,2.56702 3.44522,3.60742c1.55371,1.08075 3.49249,1.64825 5.81635,1.70227c2.35086,-0.05402 4.30991,-0.62152 5.87717,-1.70227c1.55371,-1.04041 2.67508,-2.2428 3.36414,-3.60742c0.49991,-0.71613 0.84442,-1.66858 1.03357,-2.85748c0.17563,-1.1889 0.26346,-3.47223 0.26349,-6.84991c-0.00003,-3.4317 -0.0878,-5.72852 -0.26349,-6.8905c-0.18915,-1.16187 -0.53366,-2.10089 -1.03357,-2.81696c-0.68906,-1.36456 -1.81042,-2.58051 -3.36414,-3.64789c-1.56726,-1.08081 -3.52631,-1.63477 -5.87717,-1.6618c-2.32385,0.02698 -4.26263,0.58099 -5.81635,1.6618c-1.58075,1.06738 -2.72916,2.28333 -3.44522,3.64789c-0.44586,0.71606 -0.77686,1.65509 -0.99304,2.81696c-0.20267,1.16199 -0.30399,3.4588 -0.30399,6.8905l0,0m4.49905,0c0,-2.90479 0.10809,-4.88409 0.32425,-5.93799c0.18915,-0.99969 0.57422,-1.81714 1.15518,-2.45221c0.47287,-0.60791 1.09436,-1.11456 1.86447,-1.5199c0.75659,-0.39185 1.6618,-0.60126 2.71564,-0.6283c1.06732,0.02704 1.99283,0.23645 2.77646,0.6283c0.74307,0.40533 1.33752,0.91199 1.78342,1.5199c0.58093,0.63507 0.97949,1.45251 1.19568,2.45221c0.20267,1.05389 0.30399,3.0332 0.30402,5.93799c-0.00003,2.90479 -0.10135,4.87061 -0.30402,5.8974c-0.21619,1.02679 -0.61475,1.85773 -1.19568,2.49268c-0.44589,0.60803 -1.04034,1.10114 -1.78342,1.47943c-0.78363,0.44586 -1.70914,0.66876 -2.77646,0.66876c-1.05383,0 -1.95905,-0.2229 -2.71564,-0.66876c-0.77011,-0.3783 -1.3916,-0.8714 -1.86447,-1.47943c-0.58096,-0.63495 -0.96603,-1.46588 -1.15518,-2.49268c-0.21616,-1.02679 -0.32425,-2.99261 -0.32425,-5.8974l0,0"/>
   <path id="path3518" d="m291.37897,59.77393l4.47879,0l0,-20.99561l0.08112,0l13.35532,20.99561l4.2356,0l0,-29.54785l-4.47879,0l0,20.99554l-0.08112,0l-13.37558,-20.99554l-4.21533,0l0,29.54785"/>
   <path id="path3520" d="m330.9389,59.77393l16.84106,0l0,-4.2356l-11.28818,0l9.50476,-11.91638c1.18893,-1.51324 1.78342,-3.24261 1.78342,-5.18811c-0.02701,-2.43195 -0.84442,-4.43829 -2.45218,-6.01904c-1.58078,-1.59424 -3.64114,-2.40491 -6.18115,-2.43195c-2.26981,0.02704 -4.18155,0.82422 -5.73529,2.39142c-1.54022,1.60779 -2.36438,3.64111 -2.47244,6.10004l4.21533,0c0.14862,-1.35101 0.62149,-2.39807 1.41861,-3.14124c0.77011,-0.74304 1.73611,-1.11456 2.89804,-1.11462c1.31055,0.02704 2.32385,0.45264 3.03992,1.27679c0.68903,0.82416 1.03357,1.79016 1.03357,2.89801c0,0.41888 -0.05411,0.86469 -0.16214,1.33759c-0.16214,0.49988 -0.46613,1.04028 -0.91196,1.62128l-11.53137,14.42944l0,3.99237"/>
   <path id="path3522" d="m365.14828,51.26221c-0.08112,2.98578 -1.46591,4.49231 -4.15454,4.51929c-2.70215,-0.02698 -4.08023,-1.53351 -4.13428,-4.51929l0,-12.52441c0.05402,-2.95886 1.43213,-4.46527 4.13428,-4.51935c2.68863,0.05408 4.07346,1.56049 4.15454,4.51935l0,12.52441m-12.52441,0.24323c0.02701,2.71558 0.89847,4.80975 2.61432,6.28235c1.60776,1.45923 3.52628,2.20233 5.75555,2.22931c2.29681,-0.02698 4.24908,-0.77008 5.85687,-2.22931c1.6348,-1.4726 2.47922,-3.56677 2.53326,-6.28235l0,-13.03113c-0.05408,-2.72913 -0.89847,-4.83002 -2.53326,-6.30273c-1.60779,-1.45911 -3.56006,-2.18872 -5.85687,-2.18872c-2.22928,0 -4.1478,0.72961 -5.75555,2.18872c-1.71585,1.47272 -2.58731,3.57361 -2.61432,6.30273l0,13.03113"/>
   <path id="path3524" d="m380.53052,34.70483l0,25.06909l4.2356,0l0,-29.54785l-4.2356,0l-4.19507,3.06012l0,4.49915l0,0l4.19507,-3.08051l0,0"/>
   <path id="path3526" d="m394.43332,55.37622l12.32175,0l0,4.39771l4.2356,0l0,-4.39771l2.35086,0l0,-3.99243l-2.35086,0l0,-8.49146l-4.2356,0l0,8.49146l-7.72134,0l9.99115,-21.15771l-4.72198,0l-9.86957,21.15771l0,3.99243"/>
  </g>
  <g class="secondary" id="pt_text_cycle">
   <path id="path3560" d="m113.35851,19.13422l-5.328,0l0,-11.50201l-1.188,0.12604l0,12.50995l6.318,0c-0.00001,-0.20398 0.024,-0.396 0.07201,-0.57599c0.048,-0.17999 0.09,-0.36597 0.126,-0.55798"/>
   <path id="path3562" d="m124.8156,19.13422l-6.03,0l0,-4.62598l5.31,0l0,-1.11603l-5.31,0l0,-4.5l5.814,0l-0.126,-1.11597l-6.876,0l0,12.49194l7.11,0l0.10799,-1.13397"/>
   <path id="path3564" d="m146.56682,18.21625c-0.54001,0.34802 -1.11,0.62402 -1.70999,0.828c-0.60002,0.20398 -1.21802,0.30597 -1.854,0.30597c-0.864,0 -1.62001,-0.14996 -2.26801,-0.44995c-0.64799,-0.31201 -1.188,-0.71405 -1.62,-1.20599c-0.43201,-0.50403 -0.756,-1.07404 -0.972,-1.71002c-0.20399,-0.63599 -0.306,-1.284 -0.306,-1.94403c0,-0.672 0.108,-1.32599 0.32399,-1.96198c0.216,-0.63599 0.54001,-1.20001 0.972,-1.69202c0.43201,-0.50397 0.966,-0.90594 1.60201,-1.20599c0.64799,-0.31195 1.39799,-0.46796 2.25,-0.46802c0.63599,0.00006 1.24799,0.10205 1.836,0.30603c0.588,0.20398 1.15199,0.46204 1.692,0.77399l-0.108,-1.40399c-0.492,-0.276 -1.026,-0.48596 -1.60199,-0.63c-0.56401,-0.14398 -1.12802,-0.216 -1.692,-0.216c-0.90001,0 -1.752,0.16803 -2.556,0.50403c-0.79201,0.32397 -1.48801,0.77997 -2.088,1.36798c-0.58801,0.57599 -1.05602,1.26001 -1.40401,2.052c-0.34801,0.79199 -0.522,1.64398 -0.522,2.55603c0,0.95996 0.162,1.836 0.48601,2.62799c0.336,0.79199 0.79199,1.47595 1.368,2.052c0.588,0.56396 1.284,1.008 2.088,1.33197c0.804,0.31201 1.68001,0.46802 2.62801,0.46802c0.57599,0 1.15199,-0.08398 1.728,-0.25201c0.57599,-0.15601 1.11598,-0.37201 1.62,-0.64801l0.108,-1.38599"/>
   <path id="path3566" d="m160.0489,7.79425l-1.35001,-0.16199l-3.798,5.76001l-4.06799,-5.76001l-1.332,0.16199l4.752,6.75l-1.008,5.77802l1.188,-0.12604l1.008,-5.31l4.608,-7.09198"/>
   <path id="path3568" d="m173.02307,18.21625c-0.54001,0.34802 -1.11002,0.62402 -1.71001,0.828c-0.60001,0.20398 -1.218,0.30597 -1.85399,0.30597c-0.864,0 -1.62001,-0.14996 -2.26801,-0.44995c-0.64799,-0.31201 -1.188,-0.71405 -1.62,-1.20599c-0.43201,-0.50403 -0.75601,-1.07404 -0.972,-1.71002c-0.20401,-0.63599 -0.306,-1.284 -0.306,-1.94403c0,-0.672 0.108,-1.32599 0.32399,-1.96198c0.216,-0.63599 0.54001,-1.20001 0.972,-1.69202c0.43201,-0.50397 0.966,-0.90594 1.60201,-1.20599c0.64799,-0.31195 1.39799,-0.46796 2.25,-0.46802c0.63599,0.00006 1.24799,0.10205 1.836,0.30603c0.588,0.20398 1.15199,0.46204 1.692,0.77399l-0.108,-1.40399c-0.492,-0.276 -1.02602,-0.48596 -1.60201,-0.63c-0.56401,-0.14398 -1.12801,-0.216 -1.692,-0.216c-0.90001,0 -1.752,0.16803 -2.556,0.50403c-0.79199,0.32397 -1.48799,0.77997 -2.088,1.36798c-0.588,0.57599 -1.056,1.26001 -1.40399,2.052c-0.34801,0.79199 -0.522,1.64398 -0.522,2.55603c0,0.95996 0.162,1.836 0.48599,2.62799c0.33601,0.79199 0.79201,1.47595 1.36801,2.052c0.588,0.56396 1.284,1.008 2.088,1.33197c0.804,0.31201 1.67999,0.46802 2.62799,0.46802c0.576,0 1.15199,-0.08398 1.72801,-0.25201c0.57599,-0.15601 1.11598,-0.37201 1.62,-0.64801l0.108,-1.38599"/>
   <path id="path3570" d="m183.48117,19.13422l-5.328,0l0,-11.50201l-1.188,0.12604l0,12.50995l6.31801,0c-0.00002,-0.20398 0.024,-0.396 0.07199,-0.57599c0.048,-0.17999 0.09001,-0.36597 0.12601,-0.55798"/>
   <path id="path3572" d="m194.93826,19.13422l-6.03,0l0,-4.62598l5.31,0l0,-1.11603l-5.31,0l0,-4.5l5.814,0l-0.12601,-1.11597l-6.87599,0l0,12.49194l7.11,0l0.108,-1.13397"/>
   <path id="path3574" d="m207.09547,20.26825l3.79799,0c1.06799,0 2.004,-0.17999 2.80801,-0.53998c0.81598,-0.36005 1.48798,-0.828 2.01599,-1.40405c0.53999,-0.58795 0.94199,-1.25397 1.20601,-1.99799c0.27597,-0.75598 0.41397,-1.52399 0.41399,-2.30396c0.01201,-0.78003 -0.12001,-1.54205 -0.396,-2.28601c-0.26401,-0.75604 -0.666,-1.422 -1.20599,-1.99805c-0.52802,-0.58795 -1.19402,-1.06195 -1.998,-1.422c-0.80402,-0.35999 -1.74001,-0.53998 -2.808,-0.53998l-3.834,0l0,12.492m1.18799,-11.37598l2.466,0c0.79199,0 1.51199,0.12 2.16,0.35999c0.64799,0.22803 1.20599,0.56403 1.674,1.008c0.46799,0.44397 0.82799,0.98401 1.08,1.62c0.252,0.63599 0.37799,1.35602 0.37801,2.15997c-0.00002,0.79205 -0.13802,1.50604 -0.414,2.14203c-0.27602,0.62402 -0.65401,1.15802 -1.134,1.60199c-0.48001,0.44403 -1.05,0.78601 -1.71001,1.026c-0.66,0.22803 -1.37401,0.34198 -2.142,0.34198l-2.358,0l0,-10.25995"/>
   <path id="path3576" d="m229.13826,19.13422l-6.03,0l0,-4.62598l5.31,0l0,-1.11603l-5.31,0l0,-4.5l5.814,0l-0.12599,-1.11597l-6.87601,0l0,12.49194l7.11,0l0.108,-1.13397"/>
   <path id="path3578" d="m250.88948,18.21625c-0.54001,0.34802 -1.11002,0.62402 -1.71001,0.828c-0.60001,0.20398 -1.218,0.30597 -1.85399,0.30597c-0.86401,0 -1.62001,-0.14996 -2.26801,-0.44995c-0.64799,-0.31201 -1.188,-0.71405 -1.62,-1.20599c-0.43201,-0.50403 -0.75601,-1.07404 -0.972,-1.71002c-0.20401,-0.63599 -0.306,-1.284 -0.306,-1.94403c0,-0.672 0.108,-1.32599 0.32399,-1.96198c0.216,-0.63599 0.54001,-1.20001 0.972,-1.69202c0.43201,-0.50397 0.966,-0.90594 1.60201,-1.20599c0.64799,-0.31195 1.39799,-0.46796 2.25,-0.46802c0.63599,0.00006 1.24799,0.10205 1.836,0.30603c0.588,0.20398 1.15199,0.46204 1.692,0.77399l-0.108,-1.40399c-0.492,-0.276 -1.026,-0.48596 -1.60201,-0.63c-0.56401,-0.14398 -1.12801,-0.216 -1.69199,-0.216c-0.90002,0 -1.75201,0.16803 -2.556,0.50403c-0.79201,0.32397 -1.48801,0.77997 -2.08801,1.36798c-0.588,0.57599 -1.056,1.26001 -1.40399,2.052c-0.34801,0.79199 -0.522,1.64398 -0.522,2.55603c0,0.95996 0.162,1.836 0.48601,2.62799c0.336,0.79199 0.79199,1.47595 1.368,2.052c0.588,0.56396 1.284,1.008 2.088,1.33197c0.804,0.31201 1.67999,0.46802 2.62801,0.46802c0.57599,0 1.15198,-0.08398 1.728,-0.25201c0.57599,-0.15601 1.11598,-0.37201 1.62,-0.64801l0.108,-1.38599"/>
   <path id="path3580" d="m268.00757,14.02222c-0.00003,-0.91199 -0.17401,-1.76398 -0.522,-2.55597c-0.34799,-0.79205 -0.82199,-1.47601 -1.422,-2.052c-0.58801,-0.58801 -1.284,-1.04401 -2.08801,-1.36804c-0.80399,-0.336 -1.65601,-0.50397 -2.556,-0.50397c-0.91199,0 -1.76999,0.16797 -2.57397,0.50397c-0.79202,0.32404 -1.48801,0.78003 -2.08801,1.36804c-0.58801,0.57599 -1.056,1.25995 -1.40399,2.052c-0.33601,0.79199 -0.50401,1.64398 -0.50401,2.55597c0,0.92401 0.17401,1.78198 0.522,2.57397c0.34801,0.78003 0.81599,1.46405 1.40401,2.052c0.59998,0.57605 1.29599,1.03204 2.08798,1.36804c0.80402,0.32397 1.66202,0.48596 2.57401,0.48596c0.89999,0 1.746,-0.16199 2.53799,-0.48596c0.80402,-0.336 1.5,-0.79199 2.08801,-1.36804c0.60001,-0.58795 1.07401,-1.27795 1.422,-2.06995c0.34799,-0.79205 0.52197,-1.64404 0.522,-2.55603m-1.27798,0c-0.00003,0.73199 -0.13803,1.422 -0.414,2.07001c-0.27603,0.64801 -0.65402,1.21198 -1.134,1.69202c-0.48001,0.47998 -1.04401,0.86395 -1.69202,1.15198c-0.64801,0.276 -1.33801,0.414 -2.07001,0.414c-0.74399,0 -1.44,-0.138 -2.08798,-0.414c-0.63602,-0.276 -1.194,-0.65399 -1.67401,-1.13397c-0.46799,-0.492 -0.84,-1.05603 -1.116,-1.69202c-0.276,-0.64801 -0.414,-1.34399 -0.414,-2.08801c0,-0.73199 0.138,-1.422 0.414,-2.07001c0.276,-0.64801 0.64801,-1.21198 1.116,-1.69202c0.48001,-0.49194 1.04401,-0.87598 1.69202,-1.15198c0.64798,-0.276 1.34399,-0.414 2.08798,-0.414c0.73199,0 1.41599,0.14404 2.052,0.43201c0.64801,0.276 1.21201,0.66003 1.69202,1.15198c0.47998,0.48004 0.85797,1.04401 1.134,1.69202c0.27597,0.63599 0.41397,1.32001 0.414,2.052"/>
   <path id="path3582" d="m283.13751,20.43024l-0.522,0l-8.694,-10.27802l0,10.026l-1.20599,0.12604l0,-12.65405l0.54001,-0.03595c1.42798,1.75201 2.87399,3.46796 4.33798,5.14795c1.46399,1.66803 2.91,3.37201 4.33801,5.11206l0,-10.11603l1.20599,-0.12598l0,12.79797"/>
   <path id="path3584" d="m293.91257,8.89221l-0.12601,-1.11603l-5.95798,0l0,12.54602l1.20599,-0.12598l0,-5.79602l4.086,0.01801l0.03598,-1.15198l-4.13998,0l0,-4.37402l4.896,0"/>
   <path id="path3586" d="m304.56641,4.23022l-1.65601,0.03601l-2.034,2.80798l0.97202,0l2.71799,-2.84399m0.88199,14.922l-6.03,0l0,-4.64398l5.31003,0l0,-1.11603l-5.31003,0l0,-4.5l5.81403,0l-0.12601,-1.11597l-6.87601,0l0,12.492l7.11002,0l0.10797,-1.11603"/>
   <path id="path3588" d="m317.86682,20.01624c-0.612,-0.96002 -1.254,-1.896 -1.92599,-2.80798c-0.66,-0.91199 -1.37399,-1.78802 -2.142,-2.62799c0.612,-0.16803 1.116,-0.45001 1.51199,-0.84601c0.396,-0.396 0.67801,-0.84601 0.84601,-1.35004c0.17999,-0.50397 0.23999,-1.026 0.17999,-1.56598c-0.06,-0.552 -0.246,-1.04999 -0.55801,-1.49402c-0.31198,-0.45599 -0.75598,-0.82794 -1.332,-1.11597c-0.564,-0.28802 -1.26599,-0.43201 -2.10599,-0.43201l-2.79001,0l0,12.54602l1.18802,-0.12604l0,-5.56201l1.07999,0c0.228,0 0.48599,0.11401 0.77402,0.34204c0.28799,0.22797 0.58798,0.52197 0.89999,0.88196c0.31198,0.36005 0.62399,0.76202 0.936,1.20599c0.31198,0.43201 0.60599,0.85803 0.88199,1.27802c0.276,0.41998 0.522,0.81 0.73801,1.16998c0.216,0.36005 0.384,0.63605 0.504,0.828l1.314,-0.32397m-7.12799,-11.12402l1.60199,0c0.80399,0.00006 1.45801,0.21002 1.96201,0.63c0.504,0.42004 0.75598,1.05005 0.75598,1.89001c0,0.396 -0.07199,0.73798 -0.21597,1.026c-0.13202,0.28802 -0.31802,0.52802 -0.55801,0.72003c-0.23999,0.19196 -0.522,0.336 -0.84601,0.43195c-0.32401,0.08405 -0.66599,0.12604 -1.026,0.12604l-1.67398,0l0,-4.82404"/>
   <path id="path3590" d="m329.09216,19.13422l-6.03,0l0,-4.62598l5.31,0l0,-1.11603l-5.31,0l0,-4.5l5.814,0l-0.12601,-1.11597l-6.87601,0l0,12.49194l7.11002,0l0.108,-1.13397"/>
   <path id="path3592" d="m344.42657,20.43024l-0.522,0l-8.694,-10.27802l0,10.026l-1.20599,0.12604l0,-12.65405l0.53998,-0.03595c1.42801,1.75201 2.87399,3.46796 4.33801,5.14795c1.46399,1.66803 2.91,3.37201 4.33801,5.11206l0,-10.11603l1.20599,-0.12598l0,12.79797"/>
   <path id="path3594" d="m358.99963,18.21625c-0.54001,0.34802 -1.11002,0.62402 -1.70999,0.828c-0.60001,0.20398 -1.21802,0.30597 -1.854,0.30597c-0.86401,0 -1.62,-0.14996 -2.26801,-0.44995c-0.64801,-0.31201 -1.18799,-0.71405 -1.62,-1.20599c-0.43201,-0.50403 -0.75601,-1.07404 -0.97202,-1.71002c-0.20398,-0.63599 -0.306,-1.284 -0.306,-1.94403c0,-0.672 0.108,-1.32599 0.32401,-1.96198c0.216,-0.63599 0.54001,-1.20001 0.97202,-1.69202c0.43198,-0.50397 0.96597,-0.90594 1.60199,-1.20599c0.64801,-0.31195 1.39801,-0.46796 2.25,-0.46802c0.63599,0.00006 1.24799,0.10205 1.836,0.30603c0.58798,0.20398 1.15198,0.46204 1.69199,0.77399l-0.108,-1.40399c-0.492,-0.276 -1.026,-0.48596 -1.60199,-0.63c-0.564,-0.14398 -1.12799,-0.216 -1.69199,-0.216c-0.90002,0 -1.75201,0.16803 -2.556,0.50403c-0.79202,0.32397 -1.48801,0.77997 -2.08801,1.36798c-0.58801,0.57599 -1.056,1.26001 -1.40399,2.052c-0.34799,0.79199 -0.522,1.64398 -0.522,2.55603c0,0.95996 0.16199,1.836 0.48599,2.62799c0.336,0.79199 0.79199,1.47595 1.36801,2.052c0.58798,0.56396 1.284,1.008 2.08798,1.33197c0.80402,0.31201 1.68002,0.46802 2.62802,0.46802c0.57599,0 1.15198,-0.08398 1.728,-0.25201c0.57599,-0.15601 1.116,-0.37201 1.62,-0.64801l0.108,-1.38599"/>
   <path id="path3596" d="m370.39371,19.13422l-6.03,0l0,-4.62598l5.31,0l0,-1.11603l-5.31,0l0,-4.5l5.814,0l-0.12601,-1.11597l-6.87598,0l0,12.49194l7.10999,0l0.108,-1.13397"/>
   <path id="path3598" d="m374.71213,18.81024c0.36002,0.46802 0.79199,0.83997 1.29599,1.11597c0.504,0.26404 1.026,0.43201 1.56601,0.50403c0.552,0.08398 1.09799,0.07202 1.638,-0.03601c0.54001,-0.10797 1.01999,-0.30597 1.44,-0.59399c0.43198,-0.29999 0.78,-0.69 1.04401,-1.16998c0.26398,-0.492 0.396,-1.06799 0.396,-1.72803c0,-0.73199 -0.15002,-1.31396 -0.45001,-1.74597c-0.29999,-0.44403 -0.672,-0.79803 -1.116,-1.06201c-0.444,-0.26398 -0.92999,-0.47998 -1.45801,-0.64801c-0.52798,-0.16797 -1.01398,-0.354 -1.45798,-0.55798c-0.444,-0.20398 -0.81601,-0.45599 -1.116,-0.75598c-0.30002,-0.30005 -0.45001,-0.72003 -0.45001,-1.26001c0,-0.36005 0.06601,-0.67798 0.198,-0.95404c0.14401,-0.27594 0.33002,-0.50397 0.55801,-0.68396c0.23999,-0.17999 0.50998,-0.31201 0.81,-0.396c0.31198,-0.09601 0.63599,-0.14398 0.97198,-0.14404c0.504,0.00006 0.98401,0.11401 1.44,0.34204c0.45599,0.216 0.87,0.48602 1.242,0.81l0.396,-1.09802c-0.36002,-0.37201 -0.78,-0.65399 -1.26001,-0.84601c-0.47998,-0.20398 -0.978,-0.32397 -1.49399,-0.35999c-0.504,-0.03601 -1.008,0.01202 -1.51199,0.14398c-0.492,0.13202 -0.936,0.34204 -1.332,0.63c-0.384,0.276 -0.69601,0.63605 -0.936,1.08002c-0.23999,0.44403 -0.35999,0.96002 -0.35999,1.54797c0,0.72003 0.14999,1.29602 0.44998,1.72803c0.30002,0.41998 0.672,0.76202 1.116,1.026c0.45599,0.25201 0.94202,0.46198 1.45801,0.63c0.52798,0.15601 1.01401,0.34198 1.45801,0.55798c0.45599,0.20398 0.83398,0.46802 1.134,0.79199c0.29999,0.31201 0.44998,0.75 0.44998,1.31403c0,0.35999 -0.07199,0.68396 -0.216,0.97198c-0.13199,0.28802 -0.31799,0.53998 -0.55798,0.75598c-0.228,0.20404 -0.49802,0.36005 -0.81,0.46802c-0.31201,0.10803 -0.63602,0.16199 -0.97202,0.16199c-0.612,0 -1.17599,-0.15601 -1.69199,-0.46796c-0.51602,-0.32404 -0.97202,-0.70203 -1.36801,-1.13403l-0.504,1.06201"/>
   <path id="path3600" d="m395.60443,20.19623l0,-12.56403l-1.17001,0.12604l0,12.56396l1.17001,-0.12598"/>
   <path id="path3602" d="m408.90033,8.89221l0,-1.11603l-9,0l-0.16199,1.13403l4.04999,0l0,11.41199l1.18799,-0.12598l0,-11.30402l3.92401,0"/>
   <path id="path3604" d="m414.22083,20.19623l0,-12.56403l-1.16998,0.12604l0,12.56396l1.16998,-0.12598"/>
   <path id="path3606" d="m430.03671,20.43024l-0.522,0l-8.694,-10.27802l0,10.026l-1.20599,0.12604l0,-12.65405l0.54001,-0.03595c1.42798,1.75201 2.87396,3.46796 4.33798,5.14795c1.46399,1.66803 2.91,3.37201 4.33801,5.11206l0,-10.11603l1.20599,-0.12598l0,12.79797"/>
   <path id="path3608" d="m441.2258,4.23022l-1.65601,0.03601l-2.034,2.80798l0.97202,0l2.71799,-2.84399m0.88199,14.922l-6.03,0l0,-4.64398l5.31,0l0,-1.11603l-5.31,0l0,-4.5l5.81403,0l-0.12601,-1.11597l-6.87601,0l0,12.492l7.10999,0l0.108,-1.11603"/>
   <path id="path3610" d="m454.52621,20.01624c-0.612,-0.96002 -1.25403,-1.896 -1.92599,-2.80798c-0.66,-0.91199 -1.37402,-1.78802 -2.142,-2.62799c0.612,-0.16803 1.116,-0.45001 1.51199,-0.84601c0.396,-0.396 0.67801,-0.84601 0.84601,-1.35004c0.17999,-0.50397 0.23999,-1.026 0.17999,-1.56598c-0.06,-0.552 -0.246,-1.04999 -0.55801,-1.49402c-0.31198,-0.45599 -0.75598,-0.82794 -1.332,-1.11597c-0.564,-0.28802 -1.26599,-0.43201 -2.10599,-0.43201l-2.79001,0l0,12.54602l1.18802,-0.12604l0,-5.56201l1.07999,0c0.228,0 0.48599,0.11401 0.77399,0.34204c0.28802,0.22797 0.58801,0.52197 0.90002,0.88196c0.31198,0.36005 0.62399,0.76202 0.93597,1.20599c0.31201,0.43201 0.60602,0.85803 0.88202,1.27802c0.276,0.41998 0.522,0.81 0.73801,1.16998c0.216,0.36005 0.38397,0.63605 0.504,0.828l1.314,-0.32397m-7.12799,-11.12402l1.60199,0c0.80399,0.00006 1.45801,0.21002 1.96201,0.63c0.504,0.42004 0.75598,1.05005 0.75598,1.89001c0,0.396 -0.07199,0.73798 -0.216,1.026c-0.13199,0.28802 -0.31799,0.52802 -0.55798,0.72003c-0.23999,0.19196 -0.522,0.336 -0.84601,0.43195c-0.32401,0.08405 -0.66599,0.12604 -1.026,0.12604l-1.67398,0l0,-4.82404"/>
   <path id="path3612" d="m469.92755,20.25024l-5.97601,-12.672l-0.35999,0l-6.138,12.672l1.26001,0.16199l2.23199,-4.73401l5.54401,0l2.25,4.73401l1.18799,-0.16199m-3.996,-5.66998l-4.46399,0l2.23199,-4.67999l2.23199,4.67999"/>
   <path id="path3614" d="m484.17969,20.43024l-0.522,0l-8.694,-10.27802l0,10.026l-1.20599,0.12604l0,-12.65405l0.54001,-0.03595c1.42798,1.75201 2.87399,3.46796 4.33798,5.14795c1.46399,1.66803 2.91,3.37201 4.33801,5.11206l0,-10.11603l1.20599,-0.12598l0,12.79797"/>
   <path id="path3616" d="m497.34875,8.89221l0,-1.11603l-9,0l-0.16202,1.13403l4.05002,0l0,11.41199l1.18802,-0.12598l0,-11.30402l3.92398,0"/>
   <path id="path3618" d="m508.65408,20.26825l3.798,0c1.06799,0 2.00397,-0.17999 2.80798,-0.53998c0.81598,-0.36005 1.48798,-0.828 2.01599,-1.40405c0.53998,-0.58795 0.94202,-1.25397 1.20599,-1.99799c0.276,-0.75598 0.414,-1.52399 0.414,-2.30396c0.01202,-0.78003 -0.12,-1.54205 -0.396,-2.28601c-0.26398,-0.75604 -0.66602,-1.422 -1.20599,-1.99805c-0.52802,-0.58795 -1.19397,-1.06195 -1.99799,-1.422c-0.80402,-0.35999 -1.73999,-0.53998 -2.80798,-0.53998l-3.83401,0l0,12.492m1.18799,-11.37598l2.46603,0c0.79199,0 1.51196,0.12 2.15997,0.35999c0.64801,0.22803 1.20599,0.56403 1.67401,1.008c0.46796,0.44397 0.828,0.98401 1.08002,1.62c0.25195,0.63599 0.37799,1.35602 0.37799,2.15997c0,0.79205 -0.138,1.50604 -0.414,2.14203c-0.276,0.62402 -0.65405,1.15802 -1.13403,1.60199c-0.47998,0.44403 -1.04999,0.78601 -1.70996,1.026c-0.66003,0.22803 -1.37402,0.34198 -2.14203,0.34198l-2.358,0l0,-10.25995"/>
   <path id="path3620" d="m530.69684,19.13422l-6.02997,0l0,-4.62598l5.31,0l0,-1.11603l-5.31,0l0,-4.5l5.81396,0l-0.12598,-1.11597l-6.87604,0l0,12.49194l7.11005,0l0.10797,-1.13397"/>
   <path id="path3622" d="m549.01007,19.13422l-5.328,0l0,-11.50201l-1.18799,0.12604l0,12.50995l6.31799,0c0,-0.20398 0.02399,-0.396 0.07202,-0.57599c0.04797,-0.17999 0.08997,-0.36597 0.12598,-0.55798"/>
   <path id="path3624" d="m554.92316,12.47424l-1.04401,0c-0.04797,-0.79199 -0.08398,-1.578 -0.10797,-2.35797c-0.02405,-0.79199 -0.02405,-1.58398 0,-2.37604l1.26001,0c0.02399,0.80402 0.02399,1.59601 0,2.37604c-0.02405,0.76801 -0.06006,1.55396 -0.10803,2.35797"/>
   <path id="path3626" d="m571.47284,20.25024l-5.97601,-12.672l-0.35999,0l-6.138,12.672l1.26001,0.16199l2.23199,-4.73401l5.54401,0l2.25,4.73401l1.18799,-0.16199m-3.99597,-5.66998l-4.46405,0l2.23199,-4.67999l2.23206,4.67999"/>
   <path id="path3628" d="m580.81104,8.89221l-0.12598,-1.11603l-5.95801,0l0,12.54602l1.20599,-0.12598l0,-5.79602l4.086,0.01801l0.03601,-1.15198l-4.14001,0l0,-4.37402l4.896,0"/>
   <path id="path3630" d="m585.36285,7.75824l0,7.81201c0,0.74396 0.11401,1.422 0.34198,2.034c0.22803,0.59998 0.552,1.11597 0.97205,1.54797c0.41998,0.43201 0.92993,0.76801 1.52997,1.008c0.59998,0.22803 1.27197,0.34198 2.01599,0.34204c0.76801,-0.00006 1.44598,-0.12604 2.034,-0.37799c0.59998,-0.26404 1.09802,-0.61804 1.49402,-1.06201c0.40796,-0.45599 0.71399,-0.99603 0.91797,-1.62c0.216,-0.62402 0.32404,-1.30804 0.32404,-2.052l0,-7.758l-1.18799,0.12598l0,7.41602c-0.00006,0.57599 -0.07202,1.11597 -0.216,1.62c-0.14404,0.50397 -0.36603,0.948 -0.66602,1.33197c-0.29999,0.37201 -0.67804,0.672 -1.13397,0.90002c-0.44403,0.216 -0.97803,0.32397 -1.60205,0.32397c-0.59998,0 -1.12799,-0.10199 -1.58398,-0.30597c-0.44403,-0.20404 -0.82202,-0.48004 -1.13397,-0.828c-0.30005,-0.35999 -0.52802,-0.78003 -0.68402,-1.26001c-0.15601,-0.492 -0.23401,-1.02002 -0.23401,-1.58398l0,-7.73999l-1.18799,0.12598"/>
   <path id="path3632" d="m600.80896,15.31824c0.58801,0 1.224,-0.06 1.90802,-0.17999c0.69598,-0.13202 1.33197,-0.34198 1.90796,-0.63c0.58801,-0.29999 1.07404,-0.69598 1.45801,-1.18799c0.396,-0.492 0.59399,-1.10999 0.59399,-1.854c0,-0.66003 -0.10797,-1.224 -0.32397,-1.69202c-0.20398,-0.46796 -0.49799,-0.85199 -0.88202,-1.15198c-0.37201,-0.29999 -0.81598,-0.51599 -1.33197,-0.64801c-0.51599,-0.14398 -1.08002,-0.216 -1.69202,-0.216c-0.47998,0 -0.95398,0.00598 -1.422,0.01801c-0.46802,0.01196 -0.94202,0.01196 -1.422,0l0,12.54602l1.20599,-0.12604l0,-4.87799m4.59003,-3.85199l-0.01801,0c0,0.52802 -0.16205,0.966 -0.48602,1.31396c-0.32397,0.34802 -0.72601,0.62402 -1.20599,0.828c-0.46802,0.20404 -0.966,0.354 -1.49402,0.45001c-0.52802,0.08398 -0.99597,0.13202 -1.40399,0.14398l0,-5.31l1.92603,0c0.38397,0.00006 0.73798,0.06 1.06195,0.18005c0.32404,0.12 0.60602,0.29401 0.84601,0.52197c0.24005,0.22803 0.42603,0.49799 0.55804,0.81c0.14398,0.31201 0.216,0.66602 0.216,1.06201"/>
  </g>
  <g class="secondary" id="pt_date">
   <path id="path3635" d="m112.91807,81.14917l-4.72114,0c0.41143,-0.44226 0.81257,-0.88965 1.20343,-1.34216c0.39085,-0.46289 0.78171,-0.92578 1.17257,-1.38867c0.216,-0.2572 0.432,-0.53491 0.648,-0.83313c0.22628,-0.29822 0.432,-0.61206 0.61714,-0.94116c0.18513,-0.33936 0.33427,-0.67883 0.44743,-1.01831c0.11314,-0.34961 0.16971,-0.69934 0.16972,-1.04907c-0.00002,-0.47314 -0.0874,-0.91541 -0.26229,-1.3269c-0.16458,-0.41138 -0.396,-0.76624 -0.69428,-1.06458c-0.29829,-0.29822 -0.65315,-0.53479 -1.06457,-0.70972c-0.40115,-0.1748 -0.83829,-0.26221 -1.31143,-0.26233c-0.34972,0.00012 -0.69429,0.05701 -1.03372,0.1698c-0.32914,0.11316 -0.63771,0.27771 -0.9257,0.49377c-0.288,0.20569 -0.53487,0.45251 -0.74057,0.74048c-0.20573,0.28809 -0.35487,0.60181 -0.44743,0.94116l0.756,0.43201c0.15428,-0.47314 0.37543,-0.84863 0.66344,-1.12634c0.29828,-0.27759 0.62228,-0.4679 0.972,-0.5708c0.34971,-0.11316 0.70457,-0.14392 1.06457,-0.09302c0.35999,0.05103 0.68399,0.1748 0.972,0.37024c0.29828,0.18518 0.53999,0.44238 0.72514,0.77148c0.19542,0.31885 0.29314,0.68909 0.29314,1.11072c0,0.32922 -0.0463,0.64807 -0.13885,0.95667c-0.09261,0.29822 -0.21601,0.59131 -0.37029,0.87939c-0.144,0.27783 -0.31372,0.55029 -0.50914,0.81775c-0.18515,0.25708 -0.37543,0.50916 -0.57086,0.75598c-0.56572,0.70972 -1.15714,1.3988 -1.77428,2.06738c-0.60686,0.65833 -1.23429,1.3114 -1.88229,1.95947l0,0.21594l6.64971,0l0.0926,-0.95654"/>
   <path id="path3637" d="m115.84498,81.02576c0.16457,0.21594 0.35999,0.40625 0.58628,0.57092c0.22629,0.1543 0.468,0.28796 0.72514,0.40112c0.25714,0.10291 0.51942,0.17993 0.78686,0.23132c0.27771,0.052 0.55028,0.07703 0.81771,0.07703c0.63771,0 1.188,-0.11829 1.65086,-0.35486c0.46285,-0.24683 0.83315,-0.55542 1.11086,-0.92578c0.2777,-0.38062 0.4577,-0.797 0.54,-1.24963c0.0926,-0.46289 0.0874,-0.91028 -0.0154,-1.34229c-0.10287,-0.44238 -0.30344,-0.84338 -0.60172,-1.20349c-0.29829,-0.35999 -0.69943,-0.63257 -1.20342,-0.81763c0.46285,-0.19556 0.82799,-0.45776 1.09542,-0.78687c0.27771,-0.33948 0.45771,-0.69946 0.54,-1.08008c0.0823,-0.39075 0.072,-0.78162 -0.0309,-1.17261c-0.09261,-0.40112 -0.27258,-0.76111 -0.54,-1.07996c-0.25715,-0.31885 -0.59658,-0.57593 -1.01829,-0.77136c-0.42172,-0.20569 -0.91544,-0.30859 -1.48114,-0.30859c-0.50401,0 -0.99773,0.10291 -1.48114,0.30859c-0.47315,0.19543 -0.88457,0.47827 -1.23429,0.84851l0.37029,0.83313c0.29829,-0.30847 0.64285,-0.55542 1.03371,-0.74048c0.40114,-0.19556 0.82286,-0.29321 1.26514,-0.29321c0.41143,0 0.77657,0.09302 1.09543,0.27771c0.32914,0.17493 0.58628,0.40125 0.77143,0.67883c0.18514,0.27771 0.28285,0.58118 0.29314,0.9104c0.0206,0.31873 -0.0617,0.62231 -0.24685,0.91028c-0.18515,0.27771 -0.49372,0.51941 -0.92572,0.7251c-0.42172,0.20569 -0.98229,0.32397 -1.68171,0.35486l0,0.91028c0.40114,0 0.78171,0.026 1.14171,0.0769c0.37028,0.05103 0.69427,0.15942 0.972,0.3241c0.27771,0.16455 0.49885,0.396 0.66343,0.69421c0.16457,0.28809 0.24685,0.66858 0.24686,1.14172c-0.00001,0.35999 -0.0617,0.67371 -0.18515,0.94116c-0.12343,0.26746 -0.29314,0.49365 -0.50914,0.67883c-0.216,0.18506 -0.47314,0.32397 -0.77143,0.41663c-0.28799,0.09204 -0.60171,0.13879 -0.94114,0.13879c-0.45257,0 -0.88457,-0.09802 -1.296,-0.29309c-0.40114,-0.20569 -0.74057,-0.48352 -1.01828,-0.83325l-0.52457,0.80237"/>
   <path id="path3639" d="m139.76056,81.90527l-2.05199,-2.28345c0.32913,-0.39075 0.63255,-0.797 0.91028,-1.21875c0.27771,-0.42175 0.55028,-0.84863 0.8177,-1.28064l-0.91028,-0.30859c-0.43201,0.73035 -0.91028,1.42468 -1.43486,2.08289l-2.23714,-2.51489c0.25714,-0.1543 0.51428,-0.3291 0.77144,-0.52454c0.25713,-0.20569 0.48856,-0.43188 0.69427,-0.67883c0.2057,-0.24695 0.37029,-0.51428 0.49371,-0.80225c0.13371,-0.28809 0.20056,-0.59143 0.20058,-0.9104c-0.00002,-0.31873 -0.06171,-0.60669 -0.18513,-0.86389c-0.12344,-0.2572 -0.28802,-0.47839 -0.49373,-0.66345c-0.20572,-0.18506 -0.44743,-0.32397 -0.72514,-0.41663c-0.26743,-0.10278 -0.55542,-0.1543 -0.864,-0.1543c-0.33943,0 -0.65828,0.05701 -0.95657,0.16968c-0.29828,0.11328 -0.56056,0.27271 -0.78685,0.47839c-0.216,0.20581 -0.39087,0.45251 -0.52457,0.7406c-0.13371,0.27771 -0.20058,0.59131 -0.20058,0.94104c0,0.48352 0.11314,0.93616 0.33943,1.35779c0.22627,0.42175 0.49371,0.80737 0.80228,1.1571c-0.30856,0.18506 -0.61714,0.396 -0.9257,0.63257c-0.29829,0.22632 -0.56572,0.4834 -0.80228,0.77148c-0.2263,0.28796 -0.41144,0.60168 -0.55544,0.94104c-0.144,0.32922 -0.216,0.68921 -0.216,1.08008c0,0.39087 0.06689,0.74573 0.20058,1.06458c0.144,0.31885 0.33943,0.59143 0.58627,0.81763c0.24686,0.22632 0.53487,0.40125 0.864,0.52466c0.33943,0.12341 0.69943,0.18506 1.08,0.18506c0.33943,0 0.66344,-0.05603 0.972,-0.16968c0.31885,-0.10278 0.62228,-0.2417 0.91029,-0.4165c0.28799,-0.17493 0.56056,-0.37549 0.8177,-0.60181c0.25714,-0.2262 0.49886,-0.45764 0.72514,-0.69421l1.65086,1.83606l1.03371,-0.27783m-5.508,-6.20215c-0.23657,-0.24695 -0.46286,-0.54529 -0.67885,-0.8949c-0.216,-0.36011 -0.32401,-0.72009 -0.32401,-1.08008c0,-0.42163 0.13371,-0.77136 0.40114,-1.04907c0.26743,-0.27771 0.61714,-0.41663 1.04915,-0.41663c0.17485,0 0.34456,0.03101 0.50914,0.09302c0.16457,0.06201 0.30856,0.14905 0.43201,0.26221c0.12341,0.11316 0.22113,0.24695 0.29314,0.40125c0.08231,0.14392 0.12341,0.30859 0.12343,0.49365c-0.00002,0.24695 -0.05659,0.4834 -0.16972,0.70972c-0.11313,0.21594 -0.25714,0.41663 -0.43199,0.60168c-0.17487,0.18518 -0.3703,0.35486 -0.58629,0.50916c-0.20572,0.14404 -0.41142,0.26746 -0.61714,0.37036m2.19086,3.91882c-0.18515,0.19531 -0.38057,0.39087 -0.58627,0.5863c-0.19545,0.19531 -0.4063,0.37537 -0.63258,0.53992c-0.22629,0.1543 -0.468,0.28296 -0.72514,0.38574c-0.24686,0.09302 -0.5143,0.13892 -0.80228,0.13892c-0.5143,0 -0.936,-0.1543 -1.26514,-0.46289c-0.31886,-0.30859 -0.4783,-0.7251 -0.4783,-1.24976c0,-0.30859 0.06171,-0.59131 0.18515,-0.84851c0.13371,-0.26746 0.30342,-0.50916 0.50914,-0.72522c0.20572,-0.21594 0.43199,-0.41138 0.67885,-0.58618c0.24687,-0.17493 0.49371,-0.33435 0.74057,-0.47839l2.37601,2.70007"/>
   <path id="path3641" d="m155.1022,81.14917l-4.72115,0c0.41142,-0.44226 0.81258,-0.88965 1.20343,-1.34216c0.39085,-0.46289 0.78171,-0.92578 1.17258,-1.38867c0.21599,-0.2572 0.43199,-0.53491 0.64799,-0.83313c0.22627,-0.29822 0.43199,-0.61206 0.61714,-0.94116c0.18513,-0.33936 0.33427,-0.67883 0.44743,-1.01831c0.11313,-0.34961 0.16971,-0.69934 0.16971,-1.04907c0,-0.47314 -0.0874,-0.91541 -0.26228,-1.3269c-0.16458,-0.41138 -0.39601,-0.76624 -0.69429,-1.06458c-0.29829,-0.29822 -0.65315,-0.53479 -1.06458,-0.70972c-0.40114,-0.1748 -0.83829,-0.26221 -1.31143,-0.26233c-0.3497,0.00012 -0.69429,0.05701 -1.03371,0.1698c-0.32915,0.11316 -0.63771,0.27771 -0.9257,0.49377c-0.28801,0.20569 -0.53487,0.45251 -0.74059,0.74048c-0.2057,0.28809 -0.35484,0.60181 -0.44742,0.94116l0.756,0.43201c0.15428,-0.47314 0.37543,-0.84863 0.66342,-1.12634c0.29829,-0.27759 0.6223,-0.4679 0.972,-0.5708c0.34972,-0.11316 0.70457,-0.14392 1.06458,-0.09302c0.36,0.05103 0.68401,0.1748 0.972,0.37024c0.29828,0.18518 0.53999,0.44238 0.72514,0.77148c0.19542,0.31885 0.29314,0.68909 0.29315,1.11072c-0.00002,0.32922 -0.04631,0.64807 -0.13887,0.95667c-0.09259,0.29822 -0.216,0.59131 -0.37027,0.87939c-0.14401,0.27783 -0.31372,0.55029 -0.50916,0.81775c-0.18513,0.25708 -0.37543,0.50916 -0.57085,0.75598c-0.56572,0.70972 -1.15715,1.3988 -1.77429,2.06738c-0.60686,0.65833 -1.23428,1.3114 -1.88228,1.95947l0,0.21594l6.6497,0l0.09261,-0.95654"/>
   <path id="path3643" d="m164.83311,77.67786l-1.65086,0l0,-6.63428l-0.2623,0.03101l-5.39998,7.29773l0,0.21594l4.64398,0l0,3.62573l1.0183,-0.16968l0,-3.47144l1.57372,0l0.07719,-0.8949m-2.66914,0l-3.132,0l3.132,-4.27368l0,4.27368"/>
   <path id="path3645" d="m172.28642,83.38647c0.19543,0.13367 0.40628,0.22632 0.63257,0.27771c0.22629,0.06201 0.45772,0.09302 0.69429,0.09302c0.48343,0 0.88457,-0.08704 1.20343,-0.26233c0.32913,-0.17493 0.58627,-0.41138 0.77142,-0.70972c0.19542,-0.28796 0.32913,-0.62231 0.40114,-1.00293c0.08231,-0.39075 0.12343,-0.797 0.12344,-1.21875l0,-9.28796l-1.0183,0.10791l0,8.79431c0,0.28796 -0.0154,0.5863 -0.0463,0.8949c-0.0206,0.29822 -0.08231,0.57593 -0.18515,0.83301c-0.10286,0.24695 -0.2623,0.45264 -0.47829,0.61719c-0.216,0.16467 -0.50916,0.24683 -0.87943,0.24683c-0.18515,0 -0.36514,-0.03601 -0.54001,-0.10803c-0.17485,-0.0719 -0.33429,-0.16443 -0.47829,-0.27759l-0.20056,1.00281"/>
   <path id="path3647" d="m180.16251,71.38306l0,6.69604c0,0.6377 0.0977,1.21875 0.29315,1.74341c0.19542,0.51428 0.47314,0.95654 0.83315,1.32678c0.36,0.37024 0.79713,0.65833 1.31143,0.86401c0.51428,0.19543 1.09027,0.29309 1.728,0.29309c0.65828,0 1.23943,-0.10791 1.74342,-0.32397c0.51428,-0.22632 0.94113,-0.52966 1.28056,-0.91028c0.34972,-0.39087 0.61198,-0.85364 0.78687,-1.38855c0.18512,-0.53479 0.27771,-1.12109 0.27771,-1.75879l0,-6.64978l-1.01828,0.10803l0,6.35645c-0.00002,0.49377 -0.06171,0.95667 -0.18515,1.38867c-0.12343,0.43201 -0.31372,0.81262 -0.57085,1.14172c-0.25716,0.31885 -0.58116,0.57593 -0.972,0.77136c-0.38058,0.18518 -0.8383,0.27783 -1.37315,0.27783c-0.51428,0 -0.96686,-0.08801 -1.35771,-0.26233c-0.38057,-0.17493 -0.70457,-0.4115 -0.97198,-0.70972c-0.25716,-0.30859 -0.45259,-0.66858 -0.5863,-1.07996c-0.13371,-0.42188 -0.20056,-0.87439 -0.20056,-1.35779l0,-6.63428l-1.0183,0.10803"/>
   <path id="path3649" d="m193.32314,82.04407l0,-10.76904l-1.00285,0.10791l0,10.76917l1.00285,-0.10803"/>
   <path id="path3651" d="m206.32248,82.24475l-0.44743,0l-7.452,-8.80969l0,8.59363l-1.03371,0.10803l0,-10.84631l0.46286,-0.03101c1.22398,1.50183 2.46341,2.97266 3.71828,4.4126c1.25485,1.42981 2.49428,2.89038 3.71828,4.38171l0,-8.67078l1.03372,-0.10803l0,10.96973"/>
  </g>
  <g class="secondary" id="pt_url">
   <path id="path3695" d="m452.99802,72.10815l-1.06458,-0.20056l-3.08572,8.3468l-3.17825,-8.3468l-0.1543,0l-3.22458,8.40845l-3.13199,-8.40845l-1.06458,0.20056l4.07312,10.83081l0.216,0l3.20917,-8.45483l3.11658,8.45483l0.20056,0l4.08856,-10.83081"/>
   <path id="path3697" d="m469.20334,72.10815l-1.06458,-0.20056l-3.08569,8.3468l-3.17828,-8.3468l-0.1543,0l-3.22458,8.40845l-3.13199,-8.40845l-1.06458,0.20056l4.07315,10.83081l0.216,0l3.20914,-8.45483l3.11658,8.45483l0.20056,0l4.08856,-10.83081"/>
   <path id="path3699" d="m485.40869,72.10815l-1.06458,-0.20056l-3.08569,8.3468l-3.17828,-8.3468l-0.1543,0l-3.22458,8.40845l-3.13199,-8.40845l-1.06458,0.20056l4.07315,10.83081l0.216,0l3.20914,-8.45483l3.11655,8.45483l0.20059,0l4.08856,-10.83081"/>
   <path id="path3701" d="m489.13235,82.15198c0,-0.18506 -0.06171,-0.32397 -0.18515,-0.4165c-0.11316,-0.10291 -0.24686,-0.1543 -0.40115,-0.1543c-0.14398,0 -0.27771,0.04602 -0.40112,0.13879c-0.11316,0.09302 -0.16974,0.23657 -0.16971,0.43201c-0.00003,0.18518 0.05658,0.32922 0.16971,0.43201c0.12341,0.09302 0.25714,0.13892 0.40112,0.13892c0.1543,0 0.28799,-0.04602 0.40115,-0.13892c0.12341,-0.09302 0.18515,-0.23645 0.18515,-0.43201"/>
   <path id="path3703" d="m493.6496,78.51086c0.504,0 1.04913,-0.05103 1.63544,-0.1543c0.59656,-0.11316 1.14169,-0.29309 1.63541,-0.54004c0.504,-0.25708 0.92059,-0.59644 1.24973,-1.01831c0.33942,-0.42163 0.50912,-0.95129 0.50916,-1.58911c-0.00003,-0.56567 -0.09262,-1.04907 -0.27774,-1.4502c-0.17487,-0.40112 -0.42685,-0.73035 -0.75598,-0.98743c-0.31888,-0.2572 -0.69943,-0.44226 -1.14172,-0.55542c-0.44229,-0.12354 -0.92572,-0.18518 -1.45029,-0.18518c-0.41144,0 -0.81772,0.01001 -1.21884,0.01501c-0.40115,0.01001 -0.80743,0.01001 -1.21887,0l0,10.75366l1.03372,-0.10803l0,-4.18103m3.9343,-3.30176l-0.01541,0c0,0.45264 -0.13885,0.828 -0.41656,1.12634c-0.27774,0.29834 -0.62228,0.53479 -1.03372,0.70972c-0.40115,0.17493 -0.828,0.30334 -1.28058,0.38562c-0.45258,0.07202 -0.8537,0.11328 -1.20343,0.12341l0,-4.55139l1.65088,0c0.32913,0 0.63257,0.05103 0.91028,0.1543c0.27771,0.10291 0.51941,0.25208 0.72513,0.44739c0.20572,0.19556 0.36514,0.427 0.4783,0.69434c0.12341,0.26746 0.18512,0.57092 0.18515,0.91028"/>
   <path id="path3705" d="m510.73318,82.69202l0,-10.76904l-1.03372,0.10791l0,4.8291l-6.41827,0l0,-4.93701l-1.01828,0.10791l0,10.76917l1.03369,-0.10803l0,-4.89075l6.4183,0l0,4.99878l1.01828,-0.10803"/>
   <path id="path3707" d="m515.36273,78.51086c0.50397,0 1.04913,-0.05103 1.63544,-0.1543c0.59656,-0.11316 1.14166,-0.29309 1.63544,-0.54004c0.50397,-0.25708 0.92053,-0.59644 1.24969,-1.01831c0.33942,-0.42163 0.50916,-0.95129 0.50916,-1.58911c0,-0.56567 -0.09259,-1.04907 -0.27771,-1.4502c-0.17487,-0.40112 -0.42688,-0.73035 -0.75604,-0.98743c-0.31885,-0.2572 -0.6994,-0.44226 -1.14172,-0.55542c-0.44226,-0.12354 -0.92572,-0.18518 -1.45026,-0.18518c-0.41144,0 -0.81769,0.01001 -1.21887,0.01501c-0.40112,0.01001 -0.80743,0.01001 -1.21887,0l0,10.75366l1.03375,-0.10803l0,-4.18103m3.93427,-3.30176l-0.01538,0c0,0.45264 -0.13885,0.828 -0.41656,1.12634c-0.27771,0.29834 -0.62231,0.53479 -1.03369,0.70972c-0.40118,0.17493 -0.82806,0.30334 -1.28058,0.38562c-0.45258,0.07202 -0.85376,0.11328 -1.20343,0.12341l0,-4.55139l1.65082,0c0.32916,0 0.63257,0.05103 0.91028,0.1543c0.27771,0.10291 0.51947,0.25208 0.72516,0.44739c0.20569,0.19556 0.36517,0.427 0.47827,0.69434c0.12341,0.26746 0.18518,0.57092 0.18518,0.91028"/>
   <path id="path3709" d="m530.71832,73.00293l0,-0.95654l-7.71429,0l-0.13885,0.97192l3.47144,0l0,9.78174l1.01831,-0.10803l0,-9.68909l3.3634,0"/>
   <path id="path3711" d="m544.37988,77.40002c0,-0.78174 -0.14917,-1.51184 -0.44745,-2.1908c-0.29828,-0.67896 -0.70459,-1.26514 -1.21881,-1.75891c-0.50403,-0.50403 -1.10059,-0.89478 -1.78973,-1.17249c-0.68915,-0.28796 -1.41943,-0.43201 -2.19086,-0.43201c-0.78174,0 -1.51715,0.14404 -2.2063,0.43201c-0.67883,0.27771 -1.27545,0.66846 -1.78973,1.17249c-0.50397,0.49377 -0.90509,1.07996 -1.20337,1.75891c-0.28802,0.67896 -0.43201,1.40906 -0.43201,2.1908c0,0.79211 0.14911,1.52747 0.44739,2.2063c0.29828,0.66858 0.69946,1.25488 1.20343,1.75891c0.51428,0.49365 1.11084,0.88464 1.78973,1.17261c0.68915,0.27771 1.42456,0.4165 2.2063,0.4165c0.77142,0 1.49652,-0.13879 2.17542,-0.4165c0.68915,-0.28796 1.28571,-0.67896 1.78973,-1.17261c0.51422,-0.50403 0.92053,-1.09546 1.21881,-1.77429c0.29828,-0.67883 0.44745,-1.40906 0.44745,-2.19092m-1.0954,0c-0.00006,0.62756 -0.11835,1.21887 -0.35486,1.77429c-0.23663,0.55554 -0.56061,1.03894 -0.97205,1.45032c-0.41144,0.41138 -0.89484,0.7406 -1.45026,0.98743c-0.55542,0.23657 -1.14685,0.35486 -1.77429,0.35486c-0.6377,0 -1.23431,-0.11829 -1.78973,-0.35486c-0.5451,-0.23657 -1.02344,-0.56055 -1.43481,-0.97205c-0.40118,-0.42163 -0.72003,-0.90503 -0.9566,-1.4502c-0.23657,-0.55554 -0.35486,-1.15198 -0.35486,-1.78979c0,-0.62744 0.11829,-1.21875 0.35486,-1.77417c0.23657,-0.55554 0.55542,-1.03894 0.9566,-1.45032c0.41138,-0.42175 0.89484,-0.75085 1.45026,-0.98743c0.55542,-0.23657 1.15198,-0.35486 1.78973,-0.35486c0.62738,0 1.21368,0.12341 1.75885,0.37024c0.55542,0.23669 1.03882,0.5658 1.45026,0.98743c0.41144,0.41138 0.73541,0.8949 0.97205,1.45032c0.23651,0.54504 0.3548,1.13135 0.35486,1.75879"/>
   <path id="path3713" d="m547.70386,72.03088l0,6.69604c0,0.6377 0.09772,1.21887 0.29315,1.74341c0.19543,0.51428 0.47314,0.95654 0.83313,1.3269c0.35999,0.37024 0.79718,0.6582 1.3114,0.86389c0.51434,0.19543 1.09033,0.29321 1.72803,0.29321c0.65826,0 1.23944,-0.10803 1.74341,-0.3241c0.51428,-0.22632 0.94116,-0.52966 1.28058,-0.91028c0.34973,-0.39075 0.612,-0.85364 0.78687,-1.38843c0.18512,-0.53491 0.27771,-1.12122 0.27771,-1.75891l0,-6.64978l-1.01825,0.10803l0,6.35657c0,0.49377 -0.06171,0.95667 -0.18518,1.38855c-0.12341,0.43213 -0.31372,0.81262 -0.57086,1.14185c-0.25714,0.31873 -0.58112,0.57593 -0.97198,0.77136c-0.38055,0.18506 -0.83826,0.27771 -1.37311,0.27771c-0.51434,0 -0.96686,-0.08704 -1.35773,-0.26233c-0.38062,-0.1748 -0.70459,-0.41138 -0.97205,-0.70972c-0.25714,-0.30859 -0.45251,-0.66858 -0.58624,-1.07996c-0.13373,-0.42175 -0.20056,-0.87439 -0.20056,-1.35779l0,-6.63428l-1.01831,0.10803"/>
   <path id="path3715" d="m566.21814,82.53784c-0.5246,-0.82288 -1.07489,-1.62524 -1.65088,-2.40686c-0.56567,-0.78174 -1.17767,-1.53259 -1.836,-2.25269c0.5246,-0.14392 0.9566,-0.38562 1.29602,-0.7251c0.33942,-0.33936 0.58112,-0.7251 0.72516,-1.1571c0.15424,-0.43201 0.20569,-0.87952 0.1543,-1.34229c-0.05145,-0.47314 -0.21088,-0.90002 -0.47833,-1.28052c-0.2674,-0.39099 -0.64801,-0.70972 -1.14172,-0.95667c-0.4834,-0.24683 -1.08508,-0.37024 -1.80511,-0.37024l-2.39142,0l0,10.75366l1.01831,-0.10803l0,-4.76733l0.92566,0c0.19543,0 0.41656,0.09802 0.66345,0.29321c0.24683,0.19531 0.50403,0.44739 0.77142,0.75598c0.26746,0.30847 0.53485,0.65308 0.80231,1.03369c0.2674,0.37024 0.51941,0.73535 0.75598,1.09534c0.23657,0.35999 0.44745,0.69434 0.63257,1.00293c0.18512,0.30847 0.32916,0.54504 0.43201,0.70972l1.12628,-0.27771m-6.10968,-9.53491l1.37311,0c0.68915,0 1.24969,0.18005 1.6817,0.54004c0.43201,0.35999 0.64801,0.90002 0.64801,1.62c0,0.33936 -0.06171,0.63257 -0.18512,0.87939c-0.11316,0.24695 -0.27258,0.45264 -0.47833,0.61719c-0.20569,0.16455 -0.44739,0.28796 -0.7251,0.37036c-0.27771,0.0719 -0.57086,0.10791 -0.87946,0.10791l-1.43481,0l0,-4.13489"/>
   <path id="path3717" d="m570.53076,82.15198c0,-0.18506 -0.06171,-0.32397 -0.18518,-0.4165c-0.1131,-0.10291 -0.24683,-0.1543 -0.40112,-0.1543c-0.14398,0 -0.27771,0.04602 -0.40112,0.13879c-0.11316,0.09302 -0.16974,0.23657 -0.16974,0.43201c0,0.18518 0.05664,0.32922 0.16974,0.43201c0.12341,0.09302 0.25714,0.13892 0.40112,0.13892c0.1543,0 0.28802,-0.04602 0.40112,-0.13892c0.12347,-0.09302 0.18518,-0.23645 0.18518,-0.43201"/>
   <path id="path3719" d="m585.18457,77.40002c0,-0.78174 -0.14917,-1.51184 -0.44745,-2.1908c-0.29828,-0.67896 -0.70459,-1.26514 -1.21881,-1.75891c-0.50403,-0.50403 -1.10059,-0.89478 -1.78973,-1.17249c-0.68915,-0.28796 -1.41943,-0.43201 -2.19086,-0.43201c-0.78174,0 -1.51715,0.14404 -2.2063,0.43201c-0.67883,0.27771 -1.27539,0.66846 -1.78967,1.17249c-0.50403,0.49377 -0.90515,1.07996 -1.20343,1.75891c-0.28802,0.67896 -0.43201,1.40906 -0.43201,2.1908c0,0.79211 0.14911,1.52747 0.44739,2.2063c0.29834,0.66858 0.69946,1.25488 1.20343,1.75891c0.51428,0.49365 1.1109,0.88464 1.78973,1.17261c0.68915,0.27771 1.42456,0.4165 2.2063,0.4165c0.77142,0 1.49652,-0.13879 2.17542,-0.4165c0.68915,-0.28796 1.28571,-0.67896 1.78973,-1.17261c0.51422,-0.50403 0.92053,-1.09546 1.21881,-1.77429c0.29828,-0.67883 0.44745,-1.40906 0.44745,-2.19092m-1.0954,0c-0.00006,0.62756 -0.11835,1.21887 -0.35486,1.77429c-0.23663,0.55554 -0.56061,1.03894 -0.97205,1.45032c-0.41144,0.41138 -0.89484,0.7406 -1.45026,0.98743c-0.55542,0.23657 -1.14685,0.35486 -1.77429,0.35486c-0.6377,0 -1.23431,-0.11829 -1.78973,-0.35486c-0.5451,-0.23657 -1.02344,-0.56055 -1.43481,-0.97205c-0.40118,-0.42163 -0.72003,-0.90503 -0.9566,-1.4502c-0.23657,-0.55554 -0.35486,-1.15198 -0.35486,-1.78979c0,-0.62744 0.11829,-1.21875 0.35486,-1.77417c0.23657,-0.55554 0.55542,-1.03894 0.9566,-1.45032c0.41138,-0.42175 0.89484,-0.75085 1.45026,-0.98743c0.55542,-0.23657 1.15198,-0.35486 1.78973,-0.35486c0.62738,0 1.21368,0.12341 1.75885,0.37024c0.55542,0.23669 1.03882,0.5658 1.45026,0.98743c0.41144,0.41138 0.73541,0.8949 0.97205,1.45032c0.23651,0.54504 0.3548,1.13135 0.35486,1.75879"/>
   <path id="path3721" d="m595.0965,82.53784c-0.5246,-0.82288 -1.07483,-1.62524 -1.65088,-2.40686c-0.56567,-0.78174 -1.17767,-1.53259 -1.83594,-2.25269c0.52454,-0.14392 0.95654,-0.38562 1.29596,-0.7251c0.33942,-0.33936 0.58112,-0.7251 0.72516,-1.1571c0.1543,-0.43201 0.20569,-0.87952 0.1543,-1.34229c-0.05145,-0.47314 -0.21088,-0.90002 -0.47833,-1.28052c-0.2674,-0.39099 -0.64801,-0.70972 -1.14166,-0.95667c-0.48346,-0.24683 -1.08514,-0.37024 -1.80518,-0.37024l-2.39142,0l0,10.75366l1.01831,-0.10803l0,-4.76733l0.92566,0c0.19543,0 0.41656,0.09802 0.66345,0.29321c0.24689,0.19531 0.50403,0.44739 0.77142,0.75598c0.26746,0.30847 0.53485,0.65308 0.80231,1.03369c0.2674,0.37024 0.51941,0.73535 0.75598,1.09534c0.23657,0.35999 0.44745,0.69434 0.63257,1.00293c0.18512,0.30847 0.32916,0.54504 0.43201,0.70972l1.12628,-0.27771m-6.10968,-9.53491l1.37311,0c0.68915,0 1.24969,0.18005 1.6817,0.54004c0.43201,0.35999 0.64801,0.90002 0.64801,1.62c0,0.33936 -0.06171,0.63257 -0.18512,0.87939c-0.11316,0.24695 -0.27258,0.45264 -0.47827,0.61719c-0.20575,0.16455 -0.44745,0.28796 -0.72516,0.37036c-0.27771,0.0719 -0.57086,0.10791 -0.87946,0.10791l-1.43481,0l0,-4.13489"/>
   <path id="path3723" d="m607.30853,81.73547l0,-4.39722l-3.672,0l-0.16974,0.97205l2.82343,0l0,2.83887c-0.39087,0.27771 -0.82281,0.4834 -1.29596,0.61707c-0.47314,0.13379 -0.94629,0.20068 -1.41943,0.20068c-0.64801,0 -1.25488,-0.11316 -1.82056,-0.33948c-0.55548,-0.23657 -1.03888,-0.55542 -1.45032,-0.95654c-0.41144,-0.41138 -0.73541,-0.89478 -0.97198,-1.45032c-0.23657,-0.56567 -0.35486,-1.17773 -0.35486,-1.83606c0,-0.64795 0.11316,-1.24963 0.33942,-1.80505c0.22632,-0.55542 0.53998,-1.03369 0.94116,-1.43494c0.41144,-0.41138 0.88971,-0.73022 1.43488,-0.95642c0.55542,-0.23657 1.1571,-0.35498 1.80511,-0.35498c0.59656,0 1.17255,0.11316 1.72803,0.33948c0.55542,0.22632 1.0697,0.50916 1.54285,0.84851l0.35486,-0.97192c-0.5246,-0.41138 -1.1109,-0.71497 -1.75885,-0.91028c-0.64801,-0.19543 -1.30115,-0.29309 -1.95947,-0.29309c-0.78168,0 -1.51196,0.14392 -2.19086,0.43201c-0.66858,0.27759 -1.24969,0.66846 -1.74341,1.17249c-0.49371,0.49377 -0.88458,1.07996 -1.17255,1.75891c-0.27771,0.66858 -0.41663,1.39368 -0.41663,2.17529c0,0.79211 0.14404,1.52759 0.43201,2.2063c0.28802,0.67896 0.68402,1.27039 1.18805,1.77441c0.50397,0.49365 1.0954,0.88452 1.77423,1.17249c0.68915,0.27771 1.42975,0.4165 2.22174,0.4165c0.67883,0 1.34229,-0.0979 1.9903,-0.29309c0.65826,-0.20569 1.26514,-0.51428 1.82056,-0.92566"/>
  </g>
  <path class="secondary" id="pt_lieu_fond" d="m213.69133,68.93689l216.41698,0l3.42856,8.46326l-3.42856,8.46313l-216.41698,0l3.42857,-8.46313l-3.42857,-8.46326z"/>
  <g class="primary" id="pt_lieu">
   <path id="path3654" d="m235.29472,82.69202l-1.06458,-10.78455l-0.52457,0l-3.73372,6.86572l-3.76456,-6.86572l-0.50916,0l-1.08,10.76917l1.00287,0.13892l0.7097,-8.48572l3.64114,6.40283l3.564,-6.40283l0.74057,8.47021l1.0183,-0.10803"/>
   <path id="path3656" d="m246.81577,82.73828l-5.12227,-10.86169l-0.30859,0l-5.26114,10.86169l1.08,0.13892l1.91315,-4.05774l4.752,0l1.92857,4.05774l1.01828,-0.13892m-3.42514,-4.85999l-3.82628,0l1.91315,-4.01147l1.91313,4.01147"/>
   <path id="path3658" d="m256.97476,82.89258l-0.44742,0l-7.45201,-8.80969l0,8.59375l-1.03371,0.10791l0,-10.84631l0.46286,-0.03101c1.224,1.50171 2.46342,2.97266 3.71828,4.4126c1.25485,1.42981 2.49428,2.89026 3.71829,4.38171l0,-8.6709l1.03371,-0.10791l0,10.9696"/>
   <path id="path3660" d="m259.27795,72.03088l0,6.69604c0,0.6377 0.09769,1.21887 0.29312,1.74341c0.19543,0.51428 0.47314,0.95654 0.83316,1.3269c0.35999,0.37024 0.79712,0.6582 1.31143,0.86389c0.51428,0.19543 1.09027,0.29321 1.728,0.29321c0.65826,0 1.23941,-0.10803 1.74344,-0.3241c0.51425,-0.22632 0.94113,-0.52966 1.28055,-0.91028c0.34973,-0.39075 0.612,-0.85364 0.78687,-1.38843c0.18512,-0.53491 0.27771,-1.12122 0.27771,-1.75891l0,-6.64978l-1.01828,0.10803l0,6.35657c0,0.49377 -0.06171,0.95667 -0.18515,1.38855c-0.12341,0.43213 -0.31372,0.81262 -0.57083,1.14185c-0.25717,0.31873 -0.58118,0.57593 -0.97202,0.77136c-0.38058,0.18506 -0.83829,0.27771 -1.37314,0.27771c-0.51431,0 -0.96686,-0.08704 -1.35773,-0.26233c-0.38055,-0.1748 -0.70456,-0.41138 -0.97198,-0.70972c-0.25714,-0.30859 -0.45258,-0.66858 -0.5863,-1.07996c-0.1337,-0.42175 -0.20056,-0.87439 -0.20056,-1.35779l0,-6.63428l-1.01828,0.10803"/>
   <path id="path3662" d="m274.57971,73.00293l-0.108,-0.95654l-5.10684,0l0,10.75366l1.03369,-0.10803l0,-4.96802l3.50229,0.01501l0.03091,-0.98743l-3.54858,0l0,-3.74915l4.19656,0"/>
   <path id="path3664" d="m285.98987,82.73828l-5.12228,-10.86169l-0.30856,0l-5.26114,10.86169l1.07999,0.13892l1.91315,-4.05774l4.75198,0l1.92859,4.05774l1.01828,-0.13892m-3.42514,-4.85999l-3.82629,0l1.91315,-4.01147l1.91315,4.01147"/>
   <path id="path3666" d="m295.19226,80.99487c-0.46286,0.29834 -0.95142,0.53491 -1.4657,0.70972c-0.51431,0.17493 -1.04404,0.26233 -1.58914,0.26233c-0.7406,0 -1.38858,-0.12866 -1.944,-0.38574c-0.55545,-0.26746 -1.01831,-0.61194 -1.38858,-1.03369c-0.3703,-0.43201 -0.64801,-0.92065 -0.83313,-1.4657c-0.17487,-0.54517 -0.2623,-1.10059 -0.2623,-1.66626c0,-0.57605 0.09259,-1.1366 0.27771,-1.68176c0.18515,-0.54517 0.46286,-1.02856 0.83316,-1.45032c0.37027,-0.43201 0.82797,-0.77661 1.37314,-1.03369c0.55542,-0.26746 1.19827,-0.40112 1.92856,-0.40112c0.54514,0 1.0697,0.08691 1.5737,0.26221c0.504,0.17493 0.98743,0.396 1.45029,0.66345l-0.09259,-1.20337c-0.42172,-0.23669 -0.87943,-0.41663 -1.37314,-0.54004c-0.48343,-0.12341 -0.96686,-0.18506 -1.45029,-0.18506c-0.77142,0 -1.50171,0.14392 -2.19086,0.43201c-0.67886,0.27759 -1.27542,0.66846 -1.7897,1.17249c-0.504,0.49377 -0.90515,1.07996 -1.20343,1.75891c-0.29828,0.67883 -0.44745,1.40906 -0.44745,2.1908c0,0.82288 0.13885,1.57373 0.41656,2.25256c0.28802,0.67883 0.67886,1.26514 1.17261,1.75891c0.50397,0.4834 1.10056,0.86401 1.7897,1.14172c0.68915,0.26733 1.43997,0.401 2.25256,0.401c0.49371,0 0.98743,-0.0719 1.48114,-0.21594c0.49371,-0.13367 0.95657,-0.31885 1.38858,-0.55542l0.09259,-1.18799"/>
   <path id="path3668" d="m303.84262,73.00293l0,-0.95654l-7.71429,0l-0.13885,0.97192l3.47144,0l0,9.78174l1.01828,-0.10803l0,-9.68909l3.36343,0"/>
   <path id="path3670" d="m305.11163,72.03088l0,6.69604c0,0.6377 0.09769,1.21887 0.29315,1.74341c0.1954,0.51428 0.47314,0.95654 0.83313,1.3269c0.36002,0.37024 0.79715,0.6582 1.31143,0.86389c0.51428,0.19543 1.09027,0.29321 1.728,0.29321c0.65826,0 1.23944,-0.10803 1.74344,-0.3241c0.51428,-0.22632 0.94113,-0.52966 1.28055,-0.91028c0.34973,-0.39075 0.612,-0.85364 0.78687,-1.38843c0.18512,-0.53491 0.27771,-1.12122 0.27771,-1.75891l0,-6.64978l-1.01828,0.10803l0,6.35657c0,0.49377 -0.06171,0.95667 -0.18515,1.38855c-0.12341,0.43213 -0.31372,0.81262 -0.57083,1.14185c-0.25717,0.31873 -0.58118,0.57593 -0.97202,0.77136c-0.38058,0.18506 -0.83829,0.27771 -1.37314,0.27771c-0.51428,0 -0.96686,-0.08704 -1.35773,-0.26233c-0.38055,-0.1748 -0.70456,-0.41138 -0.97198,-0.70972c-0.25714,-0.30859 -0.45258,-0.66858 -0.5863,-1.07996c-0.1337,-0.42175 -0.20056,-0.87439 -0.20056,-1.35779l0,-6.63428l-1.01828,0.10803"/>
   <path id="path3672" d="m322.12598,82.53784c-0.52457,-0.82288 -1.07486,-1.62524 -1.65085,-2.40686c-0.56573,-0.78174 -1.17773,-1.53259 -1.836,-2.25269c0.52457,-0.14392 0.95657,-0.38562 1.29599,-0.7251c0.33942,-0.33936 0.58115,-0.7251 0.72513,-1.1571c0.1543,-0.43201 0.20572,-0.87952 0.1543,-1.34229c-0.05139,-0.47314 -0.21085,-0.90002 -0.47827,-1.28052c-0.26746,-0.39099 -0.64801,-0.70972 -1.14172,-0.95667c-0.48343,-0.24683 -1.08514,-0.37024 -1.80515,-0.37024l-2.39142,0l0,10.75366l1.01828,-0.10803l0,-4.76733l0.92572,0c0.19543,0 0.41656,0.09802 0.66342,0.29321c0.24686,0.19531 0.504,0.44739 0.77142,0.75598c0.26743,0.30847 0.53485,0.65308 0.80228,1.03369c0.26746,0.37024 0.51944,0.73535 0.75601,1.09534c0.23657,0.35999 0.44742,0.69434 0.63257,1.00293c0.18515,0.30847 0.32913,0.54504 0.43201,0.70972l1.12628,-0.27771m-6.10971,-9.53491l1.37314,0c0.68915,0 1.24973,0.18005 1.6817,0.54004c0.43201,0.35999 0.64801,0.90002 0.64801,1.62c0,0.33936 -0.06171,0.63257 -0.18515,0.87939c-0.11313,0.24695 -0.27255,0.45264 -0.47827,0.61719c-0.20572,0.16455 -0.44745,0.28796 -0.72516,0.37036c-0.27771,0.0719 -0.57083,0.10791 -0.87943,0.10791l-1.43484,0l0,-4.13489"/>
   <path id="path3674" d="m329.69055,81.78186l-5.16855,0l0,-3.96521l4.55139,0l0,-0.95654l-4.55139,0l0,-3.85718l4.9834,0l-0.108,-0.95654l-5.89371,0l0,10.70752l6.0943,0l0.09259,-0.97205"/>
   <path id="path3676" d="m335.99673,82.75378l3.25543,0c0.91541,0 1.71771,-0.1543 2.40686,-0.46289c0.6994,-0.30859 1.27542,-0.70972 1.728,-1.20337c0.46283,-0.50403 0.8074,-1.07495 1.03369,-1.71265c0.23657,-0.64795 0.35486,-1.30627 0.35489,-1.97485c0.01028,-0.66858 -0.10287,-1.32178 -0.33945,-1.95947c-0.22629,-0.64795 -0.57086,-1.21875 -1.03372,-1.71252c-0.45258,-0.50391 -1.02344,-0.91028 -1.71255,-1.21887c-0.68915,-0.30859 -1.49146,-0.46289 -2.40686,-0.46289l-3.28629,0l0,10.70752m1.01828,-9.75085l2.11371,0c0.67886,0 1.29602,0.10291 1.85144,0.30859c0.55542,0.19531 1.03369,0.4834 1.43484,0.86401c0.40115,0.38049 0.70972,0.84338 0.92572,1.38855c0.216,0.54504 0.32401,1.16223 0.32401,1.85144c0,0.67871 -0.11832,1.29077 -0.35486,1.83594c-0.23657,0.53479 -0.56058,0.99268 -0.97202,1.37317c-0.41141,0.38049 -0.89999,0.67371 -1.4657,0.87939c-0.56573,0.19543 -1.17773,0.29321 -1.836,0.29321l-2.02115,0l0,-8.79431"/>
   <path id="path3678" d="m352.8334,81.78186l-5.16858,0l0,-3.96521l4.55142,0l0,-0.95654l-4.55142,0l0,-3.85718l4.98343,0l-0.108,-0.95654l-5.89371,0l0,10.70752l6.0943,0l0.09259,-0.97205"/>
   <path id="path3680" d="m354.47775,81.50403c0.30856,0.40125 0.67883,0.71997 1.11087,0.95654c0.43198,0.22632 0.87939,0.37036 1.34225,0.43201c0.47314,0.07202 0.94116,0.06201 1.40402,-0.03101c0.46283,-0.0929 0.87427,-0.26221 1.23428,-0.50916c0.37027,-0.25708 0.66855,-0.59143 0.89484,-1.00281c0.22629,-0.42175 0.33942,-0.91553 0.33945,-1.4812c-0.00003,-0.62744 -0.1286,-1.12622 -0.38571,-1.49658c-0.25714,-0.38049 -0.57602,-0.68384 -0.95657,-0.91016c-0.38058,-0.22632 -0.79715,-0.4115 -1.24973,-0.55554c-0.45258,-0.14404 -0.86914,-0.30334 -1.24969,-0.47827c-0.38058,-0.1748 -0.69943,-0.39087 -0.95657,-0.64795c-0.25717,-0.2572 -0.38574,-0.61719 -0.38574,-1.07996c0,-0.30859 0.05661,-0.58118 0.16974,-0.81787c0.12341,-0.23645 0.28284,-0.43201 0.47827,-0.58618c0.20572,-0.1543 0.43713,-0.26746 0.69431,-0.33948c0.2674,-0.08203 0.54514,-0.12341 0.83313,-0.12341c0.43201,0 0.84341,0.09802 1.23428,0.29309c0.39087,0.18518 0.7457,0.41663 1.06458,0.69434l0.33942,-0.94116c-0.30856,-0.31885 -0.66858,-0.56055 -1.07999,-0.7251c-0.41144,-0.1748 -0.83829,-0.27771 -1.28058,-0.30859c-0.43201,-0.03101 -0.86401,0.01001 -1.29599,0.12341c-0.42172,0.11316 -0.80228,0.29309 -1.14172,0.54004c-0.32913,0.23657 -0.59656,0.54504 -0.80228,0.92566c-0.20572,0.38062 -0.30859,0.82288 -0.30859,1.3269c0,0.61719 0.12857,1.11084 0.38574,1.48108c0.25714,0.36011 0.57599,0.6532 0.95657,0.87939c0.39084,0.21606 0.8074,0.396 1.24969,0.54004c0.45258,0.13379 0.86914,0.29321 1.24973,0.47827c0.39084,0.17493 0.71484,0.40125 0.97198,0.67896c0.25714,0.26733 0.38571,0.64282 0.38571,1.12634c0,0.30847 -0.06168,0.5863 -0.18512,0.83301c-0.11316,0.24695 -0.27258,0.46289 -0.4783,0.64807c-0.19543,0.17493 -0.42685,0.30859 -0.69427,0.40112c-0.26746,0.0929 -0.54517,0.13879 -0.83316,0.13879c-0.52457,0 -1.008,-0.13367 -1.45029,-0.401c-0.44226,-0.27783 -0.83313,-0.60181 -1.17255,-0.97205l-0.43201,0.91016"/>
   <path id="path3682" d="m373.96426,73.00293l0,-0.95654l-7.71429,0l-0.13885,0.97192l3.47144,0l0,9.78174l1.01828,-0.10803l0,-9.68909l3.36343,0"/>
   <path id="path3684" d="m384.79895,82.73828l-5.12228,-10.86169l-0.30856,0l-5.26114,10.86169l1.07999,0.13892l1.91315,-4.05774l4.75198,0l1.92859,4.05774l1.01828,-0.13892m-3.42514,-4.85999l-3.82629,0l1.91315,-4.01147l1.91315,4.01147"/>
   <path id="path3686" d="m385.65454,82.75378l2.99313,0c0.72,0 1.32684,-0.11316 1.82059,-0.33948c0.50397,-0.23657 0.89484,-0.53479 1.17255,-0.89478c0.28799,-0.35999 0.46799,-0.7561 0.54001,-1.18799c0.07199,-0.44238 0.04111,-0.86926 -0.09259,-1.28064c-0.12344,-0.41138 -0.34973,-0.78174 -0.67886,-1.11096c-0.32916,-0.33936 -0.74573,-0.58618 -1.24973,-0.74048c0.43201,-0.23657 0.75085,-0.55029 0.95657,-0.94116c0.216,-0.40112 0.32401,-0.84851 0.32401,-1.34216c0,-0.55554 -0.0874,-1.01331 -0.2623,-1.37329c-0.17484,-0.35999 -0.41141,-0.64795 -0.70969,-0.86401c-0.29831,-0.21594 -0.64801,-0.37024 -1.04916,-0.46277c-0.39084,-0.09302 -0.80228,-0.14917 -1.23428,-0.1698c-0.42169,-0.03101 -0.8537,-0.03601 -1.29599,-0.01501c-0.43201,0.01001 -0.84344,0.01501 -1.23428,0.01501l0,10.70752m4.70572,-7.7915l-0.01541,0c0,0.52466 -0.12341,0.92065 -0.37027,1.18799c-0.24689,0.2572 -0.55545,0.44226 -0.92572,0.55554c-0.3703,0.10278 -0.77142,0.1543 -1.20343,0.15417c-0.42172,0.00012 -0.81259,0.00012 -1.17258,0l0,-3.85706c0.39087,0 0.80228,0 1.23428,0c0.43201,-0.01001 0.828,0.04102 1.18802,0.1543c0.37027,0.10291 0.67371,0.29309 0.91028,0.5708c0.23657,0.26746 0.35486,0.67883 0.35486,1.23425m-3.68744,2.83887c0.27771,0 0.57599,-0.01001 0.89487,-0.01501c0.32913,-0.00989 0.65826,-0.00989 0.98743,0.01501c0.32913,0.021 0.64285,0.06702 0.94113,0.13879c0.30856,0.06201 0.58115,0.17493 0.81772,0.3396c0.23657,0.1543 0.42169,0.36499 0.55542,0.63245c0.14401,0.2572 0.216,0.5863 0.216,0.98755c0,0.37024 -0.07709,0.67871 -0.23141,0.92566c-0.14401,0.23657 -0.33945,0.42676 -0.5863,0.5708c-0.24686,0.13379 -0.52972,0.23145 -0.84857,0.29321c-0.30856,0.06201 -0.62741,0.10278 -0.95654,0.12341c-0.32916,0.01001 -0.65317,0.01001 -0.97202,0c-0.30859,-0.01001 -0.58115,-0.01501 -0.81772,-0.01501l0,-3.99597"/>
   <path id="path3688" d="m403.72305,82.73828l-5.12228,-10.86169l-0.30859,0l-5.26114,10.86169l1.08002,0.13892l1.91315,-4.05774l4.75198,0l1.92859,4.05774l1.01828,-0.13892m-3.42514,-4.85999l-3.82629,0l1.91315,-4.01147l1.91315,4.01147"/>
   <path id="path3690" d="m412.92548,80.99487c-0.46286,0.29834 -0.95145,0.53491 -1.4657,0.70972c-0.51431,0.17493 -1.04401,0.26233 -1.58917,0.26233c-0.74057,0 -1.38855,-0.12866 -1.944,-0.38574c-0.55542,-0.26746 -1.01828,-0.61194 -1.38855,-1.03369c-0.3703,-0.43201 -0.64801,-0.92065 -0.83316,-1.4657c-0.17484,-0.54517 -0.26227,-1.10059 -0.26227,-1.66626c0,-0.57605 0.09259,-1.1366 0.27771,-1.68176c0.18515,-0.54517 0.46286,-1.02856 0.83313,-1.45032c0.3703,-0.43201 0.828,-0.77661 1.37314,-1.03369c0.55545,-0.26746 1.1983,-0.40112 1.92859,-0.40112c0.54514,0 1.0697,0.08691 1.57373,0.26221c0.50397,0.17493 0.9874,0.396 1.45026,0.66345l-0.09259,-1.20337c-0.42172,-0.23669 -0.87943,-0.41663 -1.37314,-0.54004c-0.48343,-0.12341 -0.96686,-0.18506 -1.45029,-0.18506c-0.77142,0 -1.50171,0.14392 -2.19086,0.43201c-0.67886,0.27759 -1.27542,0.66846 -1.7897,1.17249c-0.50403,0.49377 -0.90515,1.07996 -1.20343,1.75891c-0.29831,0.67883 -0.44745,1.40906 -0.44745,2.1908c0,0.82288 0.13889,1.57373 0.4166,2.25256c0.28799,0.67883 0.67886,1.26514 1.17255,1.75891c0.504,0.4834 1.10059,0.86401 1.78973,1.14172c0.68912,0.26733 1.44,0.401 2.25256,0.401c0.49371,0 0.98743,-0.0719 1.48114,-0.21594c0.49371,-0.13367 0.95657,-0.31885 1.38858,-0.55542l0.09259,-1.18799"/>
   <path id="path3692" d="m414.29355,81.50403c0.30856,0.40125 0.67886,0.71997 1.11087,0.95654c0.43198,0.22632 0.87943,0.37036 1.34229,0.43201c0.47311,0.07202 0.94113,0.06201 1.40399,-0.03101c0.46283,-0.0929 0.87427,-0.26221 1.23428,-0.50916c0.37027,-0.25708 0.66855,-0.59143 0.89484,-1.00281c0.22629,-0.42175 0.33945,-0.91553 0.33945,-1.4812c0,-0.62744 -0.12857,-1.12622 -0.38571,-1.49658c-0.25714,-0.38049 -0.57602,-0.68384 -0.95657,-0.91016c-0.38058,-0.22632 -0.79715,-0.4115 -1.24973,-0.55554c-0.45258,-0.14404 -0.86914,-0.30334 -1.24969,-0.47827c-0.38058,-0.1748 -0.69943,-0.39087 -0.95657,-0.64795c-0.25714,-0.2572 -0.38571,-0.61719 -0.38571,-1.07996c0,-0.30859 0.05658,-0.58118 0.16971,-0.81787c0.12341,-0.23645 0.28284,-0.43201 0.47827,-0.58618c0.20572,-0.1543 0.43713,-0.26746 0.69431,-0.33948c0.26743,-0.08203 0.54514,-0.12341 0.83313,-0.12341c0.43201,0 0.84341,0.09802 1.23428,0.29309c0.39087,0.18518 0.7457,0.41663 1.06458,0.69434l0.33945,-0.94116c-0.30859,-0.31885 -0.66858,-0.56055 -1.08002,-0.7251c-0.41144,-0.1748 -0.83829,-0.27771 -1.28058,-0.30859c-0.43201,-0.03101 -0.86398,0.01001 -1.29599,0.12341c-0.42172,0.11316 -0.80228,0.29309 -1.14172,0.54004c-0.32913,0.23657 -0.59656,0.54504 -0.80228,0.92566c-0.20572,0.38062 -0.30856,0.82288 -0.30856,1.3269c0,0.61719 0.12857,1.11084 0.38571,1.48108c0.25714,0.36011 0.57599,0.6532 0.95657,0.87939c0.39084,0.21606 0.80743,0.396 1.24969,0.54004c0.45258,0.13379 0.86914,0.29321 1.24973,0.47827c0.39084,0.17493 0.71484,0.40125 0.97202,0.67896c0.25711,0.26733 0.38568,0.64282 0.38568,1.12634c0,0.30847 -0.06168,0.5863 -0.18512,0.83301c-0.11316,0.24695 -0.27258,0.46289 -0.4783,0.64807c-0.19543,0.17493 -0.42685,0.30859 -0.69427,0.40112c-0.26743,0.0929 -0.54514,0.13879 -0.83313,0.13879c-0.5246,0 -1.00803,-0.13367 -1.45029,-0.401c-0.44229,-0.27783 -0.83316,-0.60181 -1.17258,-0.97205l-0.43201,0.91016"/>
  </g>
  <path class="ternary" id="pt_jyserai_fond" d="m589.79749,60.7287l-148.26556,0l-6.37198,-15.72882l6.37198,-15.72864l148.26556,0l-6.37195,15.72864l6.37195,15.72882z"/>
  <g class="secondary" id="pt_jyserai">
   <path id="path5117" d="m452.31061,51.005c0.40216,0 0.72208,-0.14618 0.95972,-0.43872c0.25592,-0.29248 0.46616,-0.68549 0.63068,-1.17908c0.16452,-0.49347 0.29248,-1.06018 0.38388,-1.70001c0.10968,-0.65808 0.21021,-1.35278 0.30161,-2.08398c0.03662,-0.32898 0.07312,-0.71289 0.10971,-1.15161c0.03659,-0.45697 0.07309,-1.0329 0.10968,-1.72748c0.05478,-0.71301 0.10965,-1.59039 0.16452,-2.63239c0.07309,-1.06024 0.15536,-2.35815 0.24677,-3.89374c0.01831,-0.25586 0.04572,-0.42957 0.08231,-0.521c0.03659,-0.09137 0.1554,-0.13708 0.35648,-0.13708l1.50812,0c0.62152,0 1.10596,0.05493 1.45328,0.16455c0.3656,0.10968 0.6398,0.24677 0.8226,0.41132c0.1828,0.16449 0.29248,0.34729 0.32907,0.5484c0.0365,0.1828 0.05478,0.3656 0.05478,0.5484c0,0.1828 -0.009,0.60321 -0.0274,1.26129c-0.01828,0.65814 -0.04568,1.4259 -0.08228,2.30334c-0.03662,0.85919 -0.0914,1.7641 -0.16452,2.7146c-0.0549,0.95056 -0.11887,1.80981 -0.19196,2.57758c-0.10971,1.04193 -0.28336,2.11133 -0.521,3.20813c-0.21936,1.07855 -0.58496,2.06567 -1.0968,2.96136c-0.51187,0.89581 -1.19739,1.62701 -2.05655,2.19373c-0.84088,0.56671 -1.93771,0.84998 -3.29044,0.84998c-0.74948,0 -1.42587,-0.091 -2.02911,-0.27417c-0.58496,-0.1828 -1.08768,-0.42963 -1.50812,-0.7403c-0.40216,-0.3291 -0.71292,-0.7038 -0.93228,-1.12433c-0.21939,-0.43872 -0.32907,-0.89569 -0.32907,-1.37097c0,-0.43872 0.08231,-0.83173 0.2468,-1.17914c0.1828,-0.3656 0.42044,-0.66718 0.71292,-0.90491c0.29248,-0.23755 0.62152,-0.42035 0.98715,-0.5484c0.38388,-0.12787 0.77692,-0.19189 1.17908,-0.19189c0.10968,0 0.1828,0.10974 0.21936,0.32904c0.05481,0.20111 0.1188,0.43878 0.19193,0.71295c0.0914,0.25592 0.21936,0.49353 0.38391,0.71295c0.16452,0.20105 0.42957,0.30157 0.79517,0.30157"/>
   <path id="path5119" d="m463.8139,42.55951c-0.49356,0.00012 -0.82263,-0.11877 -0.98715,-0.35638c-0.16452,-0.25592 -0.24677,-0.62152 -0.24677,-1.0968c0,-0.12799 0.009,-0.30164 0.0274,-0.521c0.01828,-0.23773 0.03659,-0.56671 0.05478,-0.98724c0.03662,-0.43866 0.08231,-1.01447 0.13712,-1.72736c0.05478,-0.71295 0.1188,-1.61786 0.19193,-2.71466c0.01831,-0.21936 0.03662,-0.34735 0.05481,-0.38391c0.03659,-0.0365 0.12796,-0.05481 0.2742,-0.05481l1.70007,0c0.5484,0.00006 0.94144,0.10974 1.17908,0.32904c0.23764,0.21942 0.35645,0.46619 0.35648,0.74036c-0.00003,0.27423 -0.04572,0.6947 -0.13712,1.26135c-0.07309,0.56671 -0.16452,1.16992 -0.2742,1.80969c-0.10968,0.63983 -0.22852,1.27051 -0.35648,1.89203c-0.10968,0.62152 -0.20108,1.12421 -0.2742,1.50812c-0.03659,0.12799 -0.07309,0.21027 -0.10968,0.24677c-0.01828,0.03699 -0.0914,0.05499 -0.21936,0.05499l-1.371,0"/>
   <path id="path5121" d="m475.07556,55.00842c-1.09683,0 -1.84631,-0.21021 -2.24847,-0.63068c-0.40216,-0.43872 -0.60327,-1.1059 -0.60324,-2.00171c-0.00003,-0.31073 0.01828,-0.81342 0.05478,-1.50812c0.03662,-0.69458 0.11884,-1.77319 0.2468,-3.2356c-0.14624,-0.27417 -0.2742,-0.51178 -0.38388,-0.71289c-0.10968,-0.20111 -0.21936,-0.41132 -0.32904,-0.63068c-0.10968,-0.21936 -0.22852,-0.47534 -0.35648,-0.76782c-0.12796,-0.29242 -0.29248,-0.65802 -0.49356,-1.0968c-0.31076,-0.67633 -0.66724,-1.4624 -1.0694,-2.35809c-0.38388,-0.89569 -0.75864,-1.75488 -1.12424,-2.57751c-0.3656,-0.84088 -0.67636,-1.5813 -0.93231,-2.22107c-0.23764,-0.63983 -0.35645,-1.04199 -0.35645,-1.20654c0,-0.38385 0.6124,-0.57581 1.83716,-0.57581c0.76776,0 1.38016,0.08228 1.83716,0.24677c0.47531,0.1463 0.85919,0.35651 1.15167,0.63068c0.29248,0.25598 0.51184,0.56671 0.65808,0.93231c0.14624,0.34735 0.28336,0.72205 0.41132,1.12427c0.16452,0.53009 0.28333,0.9231 0.35648,1.17902c0.07309,0.25598 0.12796,0.46619 0.16452,0.63068c0.05478,0.16449 0.10968,0.3291 0.16452,0.49359c0.05481,0.14624 0.12796,0.38391 0.21936,0.71289c0.10968,0.3291 0.25592,0.78613 0.43872,1.37103c0.1828,0.58502 0.43872,1.38928 0.76776,2.41296c0.53012,-1.11505 0.95056,-2.0199 1.26135,-2.7146c0.32904,-0.69458 0.61237,-1.33435 0.85004,-1.91937c0.23761,-0.60327 0.45697,-1.21558 0.65808,-1.83722c0.21936,-0.63977 0.49356,-1.44409 0.8226,-2.41296c0.10968,-0.34729 0.21936,-0.56665 0.32904,-0.65808c0.12796,-0.10968 0.31992,-0.16449 0.57584,-0.16455c0.0914,0.00006 0.33817,0.01831 0.74036,0.05481c0.42044,0.01831 0.85001,0.08228 1.28876,0.19196c0.457,0.10968 0.86832,0.28339 1.23392,0.521c0.3656,0.23767 0.5484,0.55756 0.5484,0.95972c0,0.31079 -0.10968,0.74951 -0.32904,1.31622c-0.20111,0.56671 -0.47528,1.20654 -0.8226,1.91943c-0.32907,0.6947 -0.72211,1.435 -1.17908,2.22101c-0.43875,0.78607 -0.89575,1.55389 -1.37103,2.30334c-0.47528,0.74951 -0.95056,1.44415 -1.42584,2.08392c-0.45703,0.62152 -0.87747,1.13342 -1.26135,1.53558c-0.01831,0.43872 -0.04568,0.95972 -0.08231,1.56293c-0.01828,0.60327 -0.0549,1.20648 -0.10968,1.80981c-0.03659,0.5849 -0.07309,1.12421 -0.10968,1.6178c-0.03659,0.47528 -0.064,0.80426 -0.08231,0.98706c-0.01828,0.14624 -0.05478,0.25592 -0.10968,0.32904c-0.05478,0.05499 -0.16452,0.08197 -0.32904,0.08197l-1.50812,0"/>
   <path id="path5123" d="m497.74878,35.26575c1.71835,0 2.9888,0.37476 3.81143,1.12421c0.84088,0.74951 1.26132,1.7276 1.26135,2.93396c-0.00003,1.02374 -0.28336,1.80981 -0.85004,2.35822c-0.56671,0.53009 -1.38019,0.79523 -2.44043,0.79523c-0.32904,0 -0.53928,-0.02704 -0.63065,-0.08203c-0.0914,-0.073 -0.13712,-0.21021 -0.13712,-0.41132c0,-0.1828 -0.01831,-0.42041 -0.05481,-0.71289c-0.01828,-0.29248 -0.08228,-0.57581 -0.19193,-0.84998c-0.10971,-0.27423 -0.28336,-0.50269 -0.521,-0.68561c-0.23764,-0.20099 -0.56668,-0.30164 -0.98712,-0.30164c-0.58499,0 -1.10599,0.1828 -1.56299,0.5484c-0.457,0.34741 -0.68552,0.80444 -0.68549,1.37103c-0.00003,0.49359 0.1828,0.89581 0.5484,1.20648c0.38388,0.31079 0.85916,0.60333 1.42587,0.8775c0.56668,0.25592 1.17905,0.521 1.83716,0.79523c0.67636,0.27417 1.29788,0.63977 1.86459,1.0968c0.56665,0.43866 1.03281,0.99628 1.39844,1.67261c0.38385,0.65808 0.57581,1.49896 0.57581,2.52264c0,0.80444 -0.13712,1.56305 -0.41129,2.27594c-0.25595,0.6947 -0.64899,1.30707 -1.17908,1.83722c-0.51187,0.51178 -1.16995,0.914 -1.97427,1.20648c-0.78607,0.29248 -1.70923,0.43866 -2.76947,0.43866c-0.914,0 -1.76404,-0.10046 -2.55008,-0.30157c-0.76779,-0.20111 -1.44415,-0.44788 -2.02911,-0.74042c-0.56671,-0.31067 -1.01456,-0.63977 -1.3436,-0.98706c-0.32904,-0.3656 -0.49359,-0.69464 -0.49359,-0.98712c0,-1.20648 0.064,-2.07477 0.19196,-2.60498c0.14624,-0.53009 0.40216,-0.79523 0.76776,-0.79523c0.25592,0 0.521,0.10974 0.7952,0.3291c0.29248,0.2193 0.62155,0.46613 0.98712,0.7403c0.36563,0.27423 0.78607,0.521 1.26135,0.74042c0.49356,0.2193 1.06024,0.32898 1.70007,0.32898c0.25592,0 0.50269,-0.01801 0.74036,-0.05499c0.25589,-0.05499 0.47528,-0.13708 0.65808,-0.24677c0.20108,-0.10974 0.35645,-0.25592 0.46616,-0.43872c0.12796,-0.1828 0.19193,-0.40222 0.19193,-0.65808c0,-0.45703 -0.17365,-0.82263 -0.52097,-1.0968c-0.34735,-0.27423 -0.78607,-0.521 -1.31619,-0.74042c-0.53012,-0.23761 -1.10596,-0.47528 -1.72748,-0.71289c-0.60327,-0.25592 -1.16995,-0.59412 -1.70007,-1.01459c-0.53012,-0.43872 -0.96887,-0.99622 -1.31619,-1.67261c-0.34732,-0.67639 -0.52097,-1.54474 -0.52097,-2.60492c0,-1.18817 0.21936,-2.19373 0.65808,-3.0163c0.457,-0.82263 1.03284,-1.48981 1.72748,-2.00171c0.71292,-0.53009 1.50812,-0.90485 2.38559,-1.12421c0.89572,-0.23761 1.78232,-0.35645 2.65976,-0.35645"/>
   <path id="path5125" d="m507.89478,55.00842c-1.02368,0 -1.75491,-0.20111 -2.19363,-0.60321c-0.43872,-0.40216 -0.65808,-0.97797 -0.65808,-1.72748c0,-0.3656 0.0274,-0.98718 0.08231,-1.86462c0.05478,-0.89569 0.12796,-1.91028 0.21936,-3.0437c0.0914,-1.1333 0.1828,-2.33069 0.2742,-3.5921c0.0914,-1.26129 0.1828,-2.44946 0.2742,-3.56458c0.0914,-1.11511 0.16452,-2.09308 0.21936,-2.93402c0.05481,-0.84082 0.08231,-1.41669 0.08231,-1.72748c0,-0.27417 0.14624,-0.41125 0.43872,-0.41132l9.65201,0c0.10962,0.00006 0.21021,0.0274 0.30164,0.08234c0.09137,0.05487 0.13702,0.1554 0.13708,0.30164l-0.10968,1.6178c-0.03662,0.54834 -0.19196,0.99622 -0.46619,1.34357c-0.25592,0.3291 -0.79517,0.49359 -1.6178,0.49359l-3.784,0l-0.2742,3.86627l3.89371,0c0.10968,0 0.21021,0.02704 0.30164,0.08203c0.09137,0.05499 0.13708,0.1554 0.13708,0.30157l-0.10968,1.6178c-0.03662,0.54852 -0.19196,0.99628 -0.46619,1.34363c-0.25592,0.3291 -0.79517,0.49359 -1.6178,0.49359l-2.38556,0l-0.30161,4.08557l6.0325,0c0.10962,0.00012 0.21021,0.03699 0.30157,0.10974c0.09143,0.05499 0.13708,0.1463 0.13715,0.27417l-0.10968,1.6178c-0.03662,0.5484 -0.19196,0.99628 -0.46619,1.34363c-0.25592,0.3291 -0.79517,0.49359 -1.6178,0.49359l-6.30667,0"/>
   <path id="path5127" d="m521.65851,55.00842c-1.04199,0 -1.78235,-0.20111 -2.22107,-0.60321c-0.42041,-0.42047 -0.63068,-1.0329 -0.63068,-1.83716c0,-0.21942 0.00903,-0.58502 0.0274,-1.0968c0.03662,-0.53015 0.08234,-1.15173 0.13715,-1.86462c0.05475,-0.71289 0.10968,-1.48981 0.16449,-2.33069c0.07312,-0.85919 0.14624,-1.72754 0.21936,-2.60504c0.14624,-1.84625 0.24677,-3.34528 0.30164,-4.49689c0.07312,-1.15167 0.12799,-2.05646 0.16455,-2.71466c0.05475,-0.82257 0.10968,-1.34357 0.16449,-1.56293c0.05481,-0.23761 0.17365,-0.35645 0.35645,-0.35651c0.56671,0.00006 1.14252,-0.00897 1.72748,-0.02734c0.60327,-0.0365 1.17908,-0.07312 1.72754,-0.10968c0.5484,-0.0365 1.06024,-0.06403 1.53552,-0.08234c0.49353,-0.0365 0.93225,-0.05481 1.31616,-0.05481c1.16992,0.00006 2.17535,0.1463 3.01624,0.43872c0.84088,0.29254 1.51727,0.70386 2.02911,1.23395c0.53015,0.53015 0.914,1.16992 1.15167,1.91943c0.25592,0.74945 0.38385,1.59039 0.38391,2.52271c-0.00006,1.42578 -0.28339,2.69629 -0.85004,3.8114c-0.56671,1.11505 -1.47162,1.96509 -2.71466,2.55005l2.30334,3.29041c0.42041,0.62164 0.7403,1.10602 0.95972,1.45331c0.21936,0.3291 0.32904,0.57593 0.32904,0.74042c0,0.12787 -0.08234,0.31067 -0.24677,0.5484c-0.1463,0.21942 -0.37482,0.44788 -0.68555,0.68549c-0.29248,0.21942 -0.65808,0.41132 -1.0968,0.57581c-0.42047,0.16449 -0.89575,0.24683 -1.42584,0.24683c-0.58502,0 -1.09686,-0.19196 -1.53558,-0.57581c-0.42047,-0.38391 -0.80432,-0.8866 -1.15167,-1.50812c-0.32904,-0.63983 -0.62152,-1.37109 -0.87744,-2.19373c-0.23761,-0.82257 -0.46613,-1.68176 -0.68549,-2.57745c-0.65808,-0.03705 -1.19739,-0.10052 -1.6178,-0.19189c-0.05493,0.80426 -0.10968,1.57208 -0.16455,2.30328c-0.05475,0.7312 -0.10052,1.38928 -0.13708,1.97418c-0.03662,0.56671 -0.07312,1.04199 -0.10968,1.4259c-0.03662,0.3656 -0.05481,0.58502 -0.05481,0.65808c-0.01831,0.14624 -0.05481,0.25592 -0.10968,0.32904c-0.05487,0.05499 -0.16455,0.08197 -0.32904,0.08197l-1.37103,0m4.44214,-15.62958c-0.21936,0 -0.46619,0.01801 -0.74036,0.05499c-0.27423,0.01801 -0.56671,0.04602 -0.87744,0.08197c-0.03662,0.63983 -0.08234,1.40765 -0.13715,2.30334c-0.03656,0.8775 -0.09137,1.81891 -0.16449,2.82428c0.63977,0.14618 1.19733,0.21942 1.67261,0.21942c0.56671,0 1.02368,-0.10974 1.37103,-0.3291c0.3656,-0.2193 0.64899,-0.48444 0.85004,-0.79523c0.20105,-0.32898 0.32904,-0.67627 0.38391,-1.04199c0.07306,-0.36548 0.10962,-0.69458 0.10968,-0.98712c-0.00006,-0.74945 -0.18286,-1.32526 -0.5484,-1.72748c-0.36566,-0.4021 -1.00543,-0.60321 -1.91943,-0.60321"/>
   <path id="path5129" d="m544.36774,35.53992c0.45703,0 0.83173,0.09143 1.12427,0.27423c0.31073,0.16449 0.56665,0.39301 0.76776,0.68549c0.20105,0.27423 0.3656,0.59412 0.49353,0.95972c0.12799,0.36566 0.23767,0.74036 0.32904,1.12427c0.7312,2.96136 1.33447,5.40179 1.80975,7.32117c0.47528,1.91949 0.85004,3.47333 1.12427,4.6615c0.27417,1.16992 0.46613,2.03833 0.57581,2.60492c0.10968,0.56671 0.16449,0.95978 0.16455,1.17908c-0.00006,0.25592 -0.06403,0.42963 -0.19196,0.521c-0.10968,0.091 -0.29248,0.13715 -0.5484,0.13715l-1.39844,0c-0.78607,0 -1.41675,-0.091 -1.89203,-0.27423c-0.45703,-0.20111 -0.81348,-0.48438 -1.0694,-0.84998c-0.23767,-0.3656 -0.41132,-0.80444 -0.521,-1.31622c-0.10968,-0.53009 -0.20105,-1.12421 -0.27417,-1.78229l-4.77118,0l-0.90485,3.784c-0.09143,0.29248 -0.30164,0.43872 -0.63068,0.43872l-1.45331,0c-0.29248,0 -0.59412,-0.02704 -0.90485,-0.08203c-0.31079,-0.073 -0.59412,-0.1828 -0.85004,-0.32898c-0.23767,-0.14624 -0.43872,-0.32904 -0.60327,-0.5484c-0.16449,-0.23773 -0.24677,-0.521 -0.24677,-0.85004c0,-0.40216 0.12799,-1.0603 0.38391,-1.9743c0.25592,-0.914 0.57581,-1.9469 0.95972,-3.09845c0.40216,-1.16992 0.84088,-2.38562 1.31616,-3.64691c0.49353,-1.2796 0.96881,-2.48608 1.42584,-3.61951c0.45703,-1.13342 0.86835,-2.1297 1.23395,-2.98883c0.38385,-0.85919 0.67633,-1.4624 0.87744,-1.80975c0.14624,-0.25592 0.27417,-0.40216 0.38385,-0.43872c0.12799,-0.05481 0.35651,-0.08221 0.68555,-0.08234l2.60492,0m-3.29047,11.26984l3.15338,0l-1.15167,-7.23901l-2.00171,7.23901"/>
   <path id="path5131" d="m555.55914,55.00842c-1.02368,0 -1.75488,-0.20111 -2.1936,-0.60321c-0.43878,-0.40216 -0.65814,-0.97797 -0.65814,-1.72748c0,-0.3656 0.0274,-0.98718 0.08234,-1.86462c0.05481,-0.89569 0.12793,-1.91028 0.21936,-3.0437c0.09137,-1.1333 0.1828,-2.33069 0.27417,-3.5921c0.09143,-1.26129 0.1828,-2.44946 0.27423,-3.56458c0.09137,-1.11511 0.16449,-2.09308 0.21936,-2.93402c0.05481,-0.84082 0.08228,-1.41669 0.08228,-1.72748c0,-0.27417 0.14624,-0.41125 0.43872,-0.41132l1.50818,0c1.11505,0.00006 1.86456,0.23767 2.24841,0.71295c0.38391,0.47534 0.57587,1.17914 0.57587,2.11139c0,0.09094 -0.01831,0.38385 -0.05481,0.87744c-0.01831,0.49365 -0.05481,1.11511 -0.10968,1.86462c-0.05481,0.74951 -0.11884,1.59039 -0.19196,2.52258c-0.05481,0.91412 -0.11884,1.85553 -0.19196,2.82434c-0.05481,0.96887 -0.11877,1.91949 -0.19189,2.85181c-0.05481,0.914 -0.10974,1.74567 -0.16455,2.49518c-0.05487,0.74951 -0.10052,1.38019 -0.13708,1.89197c-0.03662,0.49365 -0.06403,0.79523 -0.08234,0.90491c-0.01825,0.14624 -0.05475,0.25592 -0.10968,0.32904c-0.05481,0.05499 -0.16449,0.08197 -0.32904,0.08197l-1.50812,0"/>
   <path id="path5133" d="m569.30487,50.12762c0.76776,0 1.31616,0.19189 1.6452,0.57581c0.32904,0.3656 0.49359,0.8866 0.49359,1.56299c0,0.29248 -0.03662,0.61243 -0.10968,0.95972c-0.07312,0.34729 -0.21021,0.67639 -0.41132,0.98712c-0.1828,0.29248 -0.45697,0.5484 -0.82263,0.76776c-0.34729,0.20111 -0.80432,0.30164 -1.37097,0.30164c-0.82263,0 -1.38019,-0.21021 -1.67267,-0.63074c-0.29248,-0.43866 -0.43872,-0.97797 -0.43872,-1.6178c0,-0.3656 0.04572,-0.72198 0.13708,-1.0694c0.09143,-0.34729 0.23767,-0.65802 0.43872,-0.93231c0.20111,-0.27417 0.47528,-0.49347 0.82263,-0.65796c0.34735,-0.16461 0.77692,-0.24683 1.28876,-0.24683m0.60327,-1.91949c-0.45703,0.00012 -0.83179,-0.05499 -1.12427,-0.16449c-0.29248,-0.10974 -0.521,-0.27423 -0.68549,-0.49353c-0.16455,-0.23767 -0.28339,-0.521 -0.35651,-0.8501c-0.05475,-0.34729 -0.08228,-0.7403 -0.08228,-1.17908c0,-0.16449 0,-0.33813 0,-0.52094c0.01831,-0.20105 0.03662,-0.44788 0.05481,-0.74036c0.03662,-0.29254 0.06396,-0.65814 0.08228,-1.0968c0.03662,-0.43872 0.08234,-0.99634 0.13715,-1.67273c0.05475,-0.69458 0.11877,-1.52631 0.19189,-2.49518c0.07312,-0.96881 0.1554,-2.12964 0.24683,-3.48242c0.01831,-0.4021 0.06396,-0.63977 0.13708,-0.71289c0.05481,-0.05481 0.20105,-0.08221 0.43872,-0.08234l1.6178,0c1.00543,0.00006 1.71832,0.20111 2.13879,0.60327c0.43872,0.38391 0.65808,0.84088 0.65808,1.37103c0,0.32904 -0.03656,0.76776 -0.10968,1.31622c-0.05481,0.53009 -0.13708,1.12421 -0.24677,1.78229c-0.10968,0.65814 -0.23767,1.35272 -0.38391,2.08392c-0.12793,0.71301 -0.26508,1.4259 -0.41125,2.13879c-0.12799,0.6947 -0.25598,1.36194 -0.38391,2.00171c-0.12799,0.63977 -0.23767,1.18817 -0.32904,1.6452c-0.03662,0.21942 -0.10052,0.36572 -0.19196,0.43878c-0.07312,0.073 -0.21021,0.10974 -0.41132,0.10962l-0.98712,0"/>
  </g>
  <g id="php_forever">
   <g id="ribbon_back" class="secondary">
    <path id="path3093" d="m697.83502,55.5405l-33.97467,-6.35297l-33.97467,12.98218l33.97467,6.62921l33.97467,-13.25842z"/>
    <path id="path3070" d="m639.0929,33.62729l33.97467,6.35297l33.97467,-12.98218l-33.97467,-6.62921l-33.97467,13.25842z"/>
   </g>
   <g id="ribbon_front" class="ternary">
    <path id="path3068" d="m707.0376,27.00467l-77.14734,15.82263l0,19.33521l77.14734,-15.82263l0,-19.33521z"/>
    <path id="path3066" d="m698.20331,1.95444l-59.11041,11.78522l0,19.88764l61.50427,-12.89014l-8.65479,-8.2865l6.26093,-10.49622z"/>
    <path id="path3089" d="m638.72461,87.21335l59.11041,-11.78522l0,-19.88763l-61.50427,12.89014l8.65479,8.2865l-6.26093,10.49622z"/>
   </g>
   <g id="Forever" transform="matrix(1.16091, -0.246795, 0.246795, 1.16091, -356.708, -969.56)" class="primary">
    <path id="path5616" d="m648.24438,1013.67804l0.77551,-3.67438c0.84937,0.18457 1.73572,0.35077 2.58508,0.35077c1.44019,-0.3139 1.49561,-1.44019 1.75403,-2.2157c-0.51697,0.1662 -1.08936,0.22162 -1.66174,0.22162c-1.16333,0 -2.32654,-0.22162 -3.06506,-0.22162c-4.56067,0 -6.29639,2.34503 -6.29639,4.80072c0,1.32947 0.70166,1.79108 1.97571,1.79108c-0.01855,-0.1662 -0.25854,-0.3139 -0.25854,-1.25562c0,-2.95428 0.97864,-3.76666 2.40039,-3.82208l-2.65881,12.33423l2.65881,0l1.49561,-6.94263l2.6958,0l0.29541,-1.36639l-2.6958,0"/>
    <path id="path5618" d="m654.88525,1011.3786c-3.80371,0 -5.0592,4.43152 -5.0592,6.55493c0,2.10486 1.23706,2.9173 2.95422,2.9173c2.27112,0 4.11755,-2.14185 4.41296,-5.55774c1.3479,-0.22162 2.56653,-0.77551 3.26819,-1.53259l-0.16614,-0.49847c-0.79395,0.55389 -1.99414,1.10779 -2.84351,1.10779c-0.05542,0 -0.12927,0 -0.20313,-0.03699c0,-1.93872 -0.77551,-2.95435 -2.3634,-2.95435m-1.36633,7.81042c-0.70166,0 -0.94177,-0.27692 -0.94177,-1.49561c0,-1.80951 1.14478,-5.18848 2.45581,-5.18848c0.4801,0 0.66467,0.29547 0.70166,1.07098c-0.3324,0.14771 -0.57239,0.47998 -0.57239,0.99707c0,0.3692 0.11072,0.68311 0.49854,0.77551c-0.29541,2.17871 -1.23718,3.84052 -2.14185,3.84052"/>
    <path id="path5620" d="m659.41431,1011.5448l-1.95728,9.23218l2.65894,0l1.47705,-7.01648c0.46167,-0.42468 0.79407,-0.7016 1.3479,-0.7016c0.55396,0 0.03699,1.21863 1.07092,1.21863c0.90479,0 1.32947,-0.7016 1.32947,-1.3479c0,-0.7016 -0.44312,-1.38483 -1.27405,-1.38483c-0.88623,0 -1.58789,0.59088 -2.23413,1.14478l0.23999,-1.14478l-2.65881,0"/>
    <path id="path5622" d="m667.57166,1017.78571c0,-0.2215 0.01843,-0.47998 0.03687,-0.73853c2.2157,-0.12927 4.24683,-1.77258 4.24683,-3.896c0,-0.92316 -0.38782,-1.77258 -2.03113,-1.77258c-3.78516,0 -4.98535,4.44989 -4.98535,6.5733c0,2.08649 1.14478,2.93591 2.88049,2.93591c2.45569,0 4.02515,-1.71722 5.07764,-3.41589l-0.62781,0c-0.92322,1.05237 -1.80945,1.86487 -3.26819,1.86487c-0.88623,0 -1.32947,-0.29547 -1.32947,-1.55109m2.86206,-4.67139c0,1.53247 -1.25562,2.95428 -2.67737,3.04657c0.36926,-1.828 1.27405,-3.80371 2.2157,-3.80371c0.35083,0 0.46167,0.29553 0.46167,0.75714"/>
    <path id="path5624" d="m678.34741,1011.17554c-0.77551,0 -1.14478,0.42468 -1.14478,0.99707c0,0.40625 0.22156,0.94171 0.66467,0.94171c0.14771,0 0.53552,-0.05499 0.59082,-0.18469c0,2.03113 -1.38477,6.16711 -3.19434,6.16711c-0.44312,0 -0.62781,-0.23999 -0.62781,-0.60931c0,-0.1662 0.03699,-0.40619 0.09241,-0.66467l1.32935,-6.27789l-2.65881,0l-1.32947,6.27789c-0.07385,0.35077 -0.09229,0.68317 -0.09229,0.88629c0,1.45868 0.8678,2.17877 2.27112,2.17877c3.76672,0 5.26233,-5.15161 5.26233,-8.1059c0,-0.81238 -0.27698,-1.60638 -1.16321,-1.60638"/>
    <path id="path5626" d="m682.24146,1017.78571c0,-0.2215 0.01855,-0.47998 0.03699,-0.73853c2.2157,-0.12927 4.2467,-1.77258 4.2467,-3.896c0,-0.92316 -0.3877,-1.77258 -2.03101,-1.77258c-3.78516,0 -4.98535,4.44989 -4.98535,6.5733c0,2.08649 1.14478,2.93591 2.88037,2.93591c2.45581,0 4.02527,-1.71722 5.07776,-3.41589l-0.62781,0c-0.92322,1.05237 -1.80957,1.86487 -3.26819,1.86487c-0.88635,0 -1.32947,-0.29547 -1.32947,-1.55109m2.86194,-4.67139c0,1.53247 -1.25549,2.95428 -2.67725,3.04657c0.36926,-1.828 1.27405,-3.80371 2.2157,-3.80371c0.35083,0 0.46155,0.29553 0.46155,0.75714"/>
    <path id="path5628" d="m688.06885,1011.5448l-1.95728,9.23218l2.65894,0l1.47705,-7.01648c0.46167,-0.42468 0.79407,-0.7016 1.3479,-0.7016c0.55396,0 0.03699,1.21863 1.07092,1.21863c0.90479,0 1.32947,-0.7016 1.32947,-1.3479c0,-0.7016 -0.44312,-1.38483 -1.27405,-1.38483c-0.88623,0 -1.58789,0.59088 -2.23413,1.14478l0.23999,-1.14478l-2.65881,0"/>
   </g>
   <g id="stars" transform="matrix(0.980426, -0.196887, 0.196887, 0.980426, -7.97688, 84.1103)" class="primary">
    <path id="path6320" d="m651.3418,115.16122l-1.37006,3.79059l-4.02869,0.12573l3.1817,2.47437l-1.12537,3.87036l3.33649,-2.26135l3.33313,2.2663l-1.11963,-3.87201l3.18536,-2.46973l-4.0285,-0.13159l-1.36444,-3.79266z"/>
    <path id="path4635" d="m662.58899,115.16122l-1.37006,3.79059l-4.02869,0.12573l3.1817,2.47437l-1.12537,3.87036l3.33649,-2.26135l3.33319,2.2663l-1.11969,-3.87201l3.18536,-2.46973l-4.02844,-0.13159l-1.3645,-3.79266z"/>
    <path id="path4637" d="m673.83624,115.16122l-1.37006,3.79059l-4.02869,0.12573l3.1817,2.47437l-1.12537,3.87036l3.33649,-2.26135l3.33319,2.2663l-1.11969,-3.87201l3.18536,-2.46973l-4.0285,-0.13159l-1.36444,-3.79266z"/>
    <path id="path4639" d="m685.08337,115.16122l-1.37006,3.79059l-4.02869,0.12573l3.1817,2.47437l-1.12537,3.87036l3.33649,-2.26135l3.33313,2.2663l-1.11963,-3.87201l3.18536,-2.46973l-4.0285,-0.13159l-1.36444,-3.79266z"/>
   </g>
   <g id="php_logo" transform="matrix(0.0912999, -0.0180165, 0.0180165, 0.0912999, 631.967, 11.1589)" class="primary">
    <g id="svg_6">
     <path id="svg_7" d="m230.22008,113.92832c12.06201,0 20.10181,2.22754 24.12085,6.67969c4.0161,4.45313 4.97313,12.09863 2.87108,22.93066c-2.19505,11.28125 -6.42186,19.33301 -12.68797,24.15723c-6.26611,4.82227 -15.80103,7.2334 -28.60205,7.2334l-19.31201,0l11.85498,-60.99999l21.75513,0l0,-0.00098zm-77.35913,122.75097l31.75,0l7.53101,-38.75l27.19507,0c12,0 21.87109,-1.25781 29.62109,-3.78223c7.74998,-2.51855 14.79295,-6.74512 21.1328,-12.67969c5.32007,-4.89063 9.625,-10.28418 12.92212,-16.18359c3.29297,-5.89551 5.63306,-12.40234 7.01587,-19.51953c3.35913,-17.27637 0.82422,-30.73339 -7.5979,-40.37499c-8.42212,-9.64063 -21.82007,-14.46094 -40.18797,-14.46094l-61.05493,0l-28.32715,145.75097z"/>
     <path id="svg_8" d="m313.34702,52.17832l31.5,0l-7.53101,38.75l28.06201,0c17.65601,0 29.83594,3.08203 36.53906,9.23828c6.70288,6.16016 8.71094,16.14063 6.03101,29.93749l-13.18018,67.8252l-32,0l12.53101,-64.48926c1.42603,-7.33593 0.9021,-12.33984 -1.57397,-15.0078c-2.47583,-2.66797 -7.74585,-4.00391 -15.80493,-4.00391l-25.17603,0l-16.22705,83.49999l-31.5,0l28.33008,-145.74999z"/>
     <path id="svg_9" d="m478.03598,113.92832c12.06201,0 20.10205,2.22754 24.12109,6.67969c4.01685,4.45313 4.97388,12.09863 2.87085,22.93066c-2.19482,11.28125 -6.4209,19.33301 -12.68799,24.15723c-6.26587,4.82227 -15.80103,7.2334 -28.60205,7.2334l-19.31177,0l11.854,-60.99999l21.75586,0l0,-0.00098zm-77.35889,122.75097l31.75,0l7.53003,-38.75l27.19482,0c12,0 21.87109,-1.25781 29.62109,-3.78223c7.75,-2.51855 14.79297,-6.74512 21.13309,-12.67969c5.31982,-4.89063 9.625,-10.28418 12.92188,-16.18359c3.29297,-5.89551 5.63306,-12.40234 7.01611,-19.51953c3.35889,-17.27637 0.82495,-30.73339 -7.59814,-40.37499c-8.42188,-9.64063 -21.8201,-14.46094 -40.18802,-14.46094l-61.05396,0l-28.3269,145.75097z"/>
    </g>
   </g>
  </g>
 </g>
</svg>
